<?xml version="1.0" encoding="utf-8"?>
<!-- Generator: Adobe Illustrator 27.1.1, SVG Export Plug-In . SVG Version: 6.00 Build 0)  -->
<svg version="1.1" id="Layer_1" xmlns="http://www.w3.org/2000/svg" xmlns:xlink="http://www.w3.org/1999/xlink" x="0px" y="0px"
	 viewBox="0 0 182 182" style="enable-background:new 0 0 182 182;" xml:space="preserve">
<style type="text/css">
	.st0{clip-path:url(#SVGID_00000026849637992475546250000008177122978034363307_);}
	.st1{fill:#FDFDFD;}
</style>
<g>
	<defs>
		
			<rect id="SVGID_1_" x="4.7" y="5.3" transform="matrix(7.834835e-02 -0.9969 0.9969 7.834835e-02 -7.837 184.2229)" width="182" height="182"/>
	</defs>
	<clipPath id="SVGID_00000034771549981758306360000009699192514391483538_">
		<use xlink:href="#SVGID_1_"  style="overflow:visible;"/>
	</clipPath>
	<g style="clip-path:url(#SVGID_00000034771549981758306360000009699192514391483538_);">
		<path class="st1" d="M-38,110.4l-9.3,117.8l-181.4-14.3l14.3-181.4L-33,46.7L-38,110.4L-38,110.4z M-85.1,119.3
			c-0.1-0.3-0.2-0.6-0.4-1.4c-0.1-0.8-0.1-1.6,0.1-2.6c0.1-0.1,0.1-0.2,0.4-0.3c-0.1-0.5-0.4-1-0.7-1.5c-0.3-0.5-0.8-0.9-1-1.5
			c-0.6-1.8-1.5-1.6-2.8-0.2c-1,1.5-2,2.9-3.4,0.5l1-2.3c-0.8-0.3-1.6-0.5-2.4-0.8c-1.1-0.5-2.2-1.2-3.3-1.5
			c-0.9-0.3-2.1-0.6-2.7-0.3c-4.4,2.6-8.6,5.4-11,10.5c-0.1,0.4-0.3,0.7-0.7,1.4c-0.1,0.2-0.2,0.5-0.6,0.9c-0.3,1.4-0.6,2.7-0.9,4.1
			c-0.1,0.7-0.3,1.4-0.8,2.2c-0.2,0.5-0.5,1-0.9,1.5c-0.1,0.2-0.2,0.5-0.5,1c-0.5,0.7-0.9,1.4-1.7,2.4c-0.2,0.6-0.5,1.2-1.1,1.9
			c-0.3,1-0.6,2.1-1.1,3.2c-0.1,0.4-0.2,0.8-0.4,1.2c-0.2,0.5-0.4,0.9-0.9,1.7c-0.2,0.4-0.3,0.9-0.7,1.6c-1.6,2.5-3,5-4.8,7.4
			c-0.4,0.5-2.1,0.8-2.6,0.4c-2.3-1.6-4.3-3.5-6.5-5.4c-0.7,2.8-1.7,1.7-2.7,0.6c-1-1-1.9-2.1-3.1-3.4c-0.7,2.3-2.1,4.4-1.6,5.3
			c1.9,3.2,4,6.9,7,8.8c4.1,2.6,11.8-0.2,14.5-4.3c1.7-2.5,3.2-5.3,5.1-8.1c0.2-0.4,0.3-0.8,0.7-1.4c0-0.1,0.1-0.2,0.4-0.4
			c0.2-0.5,0.4-1,0.9-1.8c0.3-0.8,0.6-1.6,1-2.7c1-2,2-4,3-6.1c0.8-1.6,1.5-3.2,2.3-5.2c1.4-2.2,2.8-4.3,4.6-6.4
			c1.1-1.4,2.2-2.8,3.3-4.2c0,0,0,0,0.4,0c0.3,0,0.5-0.1,1.1,0.1c3.3,2.1,1.5,5.8,2.5,9c0.1,0.6,0.3,1.2,0.4,2.2
			c0.1,0.3,0.2,0.5,0.1,1.1c0,0.3,0,0.5-0.2,1.1c0,0.2,0.1,0.5-0.1,1.1c0.2,0.6,0.3,1.2,0.5,2.2c0,0.7,0,1.3-0.1,2.4
			c0,0.3,0,0.5-0.2,1.1c0,0.3,0,0.5-0.2,1.1c0,0.6,0,1.3-0.2,2.3c-0.1,1.2-0.2,2.3-0.5,3.6c0,0.7,0,1.4,0,2.5c0.5,0.4,1,0.8,1.5,1.6
			c0,0.6,0,1.2,0,1.9c0,0,0,0.1-0.3,0.4c-0.2,2.1-0.5,4.2-0.9,6.6c0.1,1,0.2,2,0.1,3.1c0.1,0.4,0.2,0.9,0.3,1.8
			c-0.2,2.2-0.4,4.5-0.6,6.7c-0.1,1.8-0.9,4.1,0,5.3c1.4,2,1.6,4,1.4,6.4c0,1.2,0.1,2.4-0.1,4c-0.1,1.2-0.1,2.3-0.5,3.6
			c0.1,0.3,0.1,0.6,0,1.4c-0.3,3.7-0.8,7.4-0.7,11.1c0.1,2.5,2.8,3.8,5,2.7c2.1-1,4.1-2.4,6.5-3.8c0.2-1.9,0.4-3.7,0.9-5.9
			c-0.1-1.2-0.3-2.4-0.2-4c0-0.3,0-0.5,0.2-1.2c0-0.6,0-1.2,0.2-2.1c-0.1-0.3-0.1-0.5,0-1.1c-0.1-0.8-0.1-1.6,0-2.6
			c-0.1-0.3-0.2-0.6-0.2-1.4c0.1-1.3,0.3-2.6,0.5-4.3c0-0.2-0.1-0.5-0.1-1.2c-0.1-3.2-0.3-6.4-0.4-10c0-0.8,0-1.5,0.1-2.7
			c-0.7-5.2-1.5-10.3-2.1-15.9c-0.1-0.7-0.1-1.5,0-2.4c-0.1-0.3-0.1-0.6-0.1-1.3c0-0.2-0.1-0.5,0-1.1c0-0.8,0-1.6,0-3
			c-0.2-2.4-0.4-4.8-0.5-7.7c0.1-0.4,0.2-0.8,0.8-1.2c0.2-1.1,0.4-2.2,0.5-3.7c-0.1-0.4-0.2-0.8-0.1-1.6c-0.1-0.5-0.3-1.1-0.5-1.7
			c0,0,0.1,0,0.3-0.1C-85.5,119.9-85.4,119.6-85.1,119.3L-85.1,119.3z M-95.7,87.6c-0.4-0.4-0.7-0.8-1.2-1.6c-0.4-0.5-0.9-1.1-1.3-2
			c-0.3-0.3-0.7-0.6-1.1-1.3c-0.4-0.3-0.7-0.7-1-1.1c-1.3-1.7-2.6-3.4-3.9-5.5c-0.4-0.5-0.7-1.1-1.1-1.7c-0.1-0.1-0.2-0.2-0.4-0.6
			c-0.4-0.4-0.8-0.8-1.3-1.5c-0.1-0.1-0.3-0.2-0.4-0.7c-0.9-1-1.7-2-2.6-3.2c0,0-0.2-0.1-0.2-0.4c-0.4-0.4-0.7-0.8-1-1.2
			c-0.4-0.4-0.8-0.9-1.3-1.7c-0.7-1.8-0.9-3.9-3.3-4.8c-1.2-1.4-2.4-2.8-3.7-4.5c-0.4-0.2-0.7-0.5-1-0.9c-0.9-0.7-1.8-1.4-2.8-2.5
			c-1.9-2.4-3.8-4.8-6.1-7.5c-4.6-1.7-7.3,1.1-9.9,4.1c-2.1,2.4-4.4,4.7-6.6,7c-3.4,3.6-6.8,7.1-10.1,10.8c-3.1,3.4-5.9,7-9.1,10.3
			c-2.2,2.3-4.8,4.2-7.4,6.2c-3.5,2.7-6.2,7.3-7,12.2c-0.1,0.5-0.4,1-0.5,1.5c0.7,0,1.6,0.1,2.2-0.2c1.4-0.7,2.6-1.6,3.9-2.3
			c0.8-0.5,1.8-0.7,2.7-1.1c1.1-0.5,2.4-0.7,3.3-1.4c7.3-5.7,12.4-13.3,17.7-21c0.2-0.4,0.5-0.8,1-1.4c0.4-0.6,0.7-1.1,1.5-1.8
			c0.5-0.5,1.1-1,1.9-1.6c0.8-0.7,1.6-1.3,2.7-2c0.3-0.3,0.7-0.6,1.3-1c0.2-0.1,0.4-0.2,0.9-0.2c0.9-0.9,1.8-1.8,3-2.8
			c0.1-0.1,0.2-0.3,0.7-0.6c0.5-0.3,0.9-0.7,1.4-0.7c0.6,0.7,1.3,1.4,2,2.4c0.5,0.3,1,0.5,1.8,1c1.2,1.5,2.6,2.8,3.6,4.4
			c3.3,5.7,6.3,11.6,9.8,17.1c3.1,4.8,6.7,9.1,10.2,13.6c1.5,1.9,3,4.1,6.4,2.1c0.4-0.1,0.9-0.1,1.7,0c0.4,0,0.8-0.1,1.6,0.1
			c1.3-0.3,2.6-0.6,4.3-0.9c0.9-0.7,1.7-1.4,2.9-2.3c-0.1-0.9-0.2-1.7-0.3-2.6c-0.9-1.2-1.8-2.4-2.7-3.6c0,0,0,0,0-0.4
			c-0.5-0.7-0.9-1.4-1.5-2C-95.8,88-95.7,88-95.7,87.6L-95.7,87.6z M-148.3,145.9c0-0.1-0.1-0.2,0-0.6c0-0.2,0.1-0.4,0.4-0.7
			c0.1-0.3,0.3-0.5,0.8-1c0.3-2.2,0.5-4.5,1.1-7c0.2-0.6,0.3-1.2,0.6-2.3c-0.3-1.5-0.6-2.9-0.9-4.7c-0.3-0.4-0.6-0.9-0.8-1.4
			c-0.3-0.3-0.5-0.7-0.8-1.3c-0.2-0.3-0.4-0.7-0.5-1.1c-0.3-0.4-0.7-0.8-1.2-1.5c-0.7-0.8-1.5-1.6-2.4-2.7c-0.7-0.4-1.4-0.8-2.3-1.4
			c-0.2-0.1-0.4-0.2-0.7-0.6c-1.3-0.5-2.5-1-3.8-1.4c0,0,0.1-0.1-0.1-0.5c-2-0.5-4-0.9-6.3-1.6c-0.2,0-0.5-0.1-1-0.4
			c-1.5,0-3.1,0-5-0.1c-0.2,0.1-0.5,0.1-1.1,0c-0.5,0.5-1,0.9-1.6,1.4c0,0,0,0.2-0.4,0.4c-1.3,0.7-2.5,1.4-4.1,2.2
			c-0.3,0.3-0.6,0.5-1,0.7c-0.2,0.5-0.4,1-0.7,1.4c0,0.1-0.1,0.2-0.5,0.4c-0.3,0.6-0.5,1.2-0.9,1.8c-0.6,0.8-1.3,1.6-2.3,2.4
			c-0.4,0.2-0.7,0.5-1.4,0.9c-1.5,1.4-1.6,3.1-0.8,5.2c0.2,0.7,0.4,1.5,0.5,2.7c0.1,0.9,0.4,1.8,0.4,2.7c0.3,7.8,0.5,15.6,0.6,23.7
			c0.2,0.8,0.3,1.6,0.3,2.8c0.4,3,0.8,6.1,1.1,9.4c0.1,0.3,0.2,0.6,0.3,1.3c0,0.4,0.1,0.8,0,1.7c0.2,2.4,0.4,4.9,0.5,7.3
			c0,0,0,0.2-0.2,0.4c0,0.7,0.1,1.5,0.1,2.7c0,3.4,0.1,6.8,0,10.2c-0.1,2.3,1,3.8,2.8,3.9c3,0.2,6.1-0.4,9.5-0.6
			c0.3-0.1,0.6-0.3,1.3-0.4c0.6,0,1.2-0.1,1.8-0.1c0.6,0,1.3,0.5,1.7,0.3c4-2.9,7.9-5.9,12.2-9c0.2-0.4,0.5-0.8,1.1-1.3
			c0.1-0.3,0.3-0.6,0.7-1.1c1.2-2.5,2.6-5,3.5-7.6c2.8-7.5,2.2-14.6-3.2-21.2c-0.2-0.2-0.4-0.4-0.6-1c-0.8-0.9-1.7-1.7-2.6-2.8
			c-0.1-0.2-0.2-0.3-0.3-0.9c0.1-0.7,0.1-1.5,0.3-2.3c0,0,0.2-0.1,0.6,0.1c2.4-0.7,4.4-3.1,4.3-5.5c0,0,0.1-0.1,0.4,0.2
			C-147.6,147.9-146.8,147.4-148.3,145.9L-148.3,145.9z M-128.4,88.5c0-0.1-0.1-0.2,0-0.7c0-0.8,0-1.5,0.2-2.5
			c-0.2-0.5-0.4-1-0.6-1.5c-0.2-0.3-0.3-0.6-0.4-1c-0.1-0.1-0.2-0.1-0.2-0.6c-1.5-4.3-4.5-5.3-7.7-2.3c-1.7,0.5-3.4,1-5.4,1.2
			c-1.8,0-3.6,0-5.7,0.2c-0.7,1.7-1.4,3.4-2.6,5.2c-1.7,1.7-1.4,3.7-0.6,6.1c0.4,0.4,0.7,0.8,1.2,1.5c0.3,0.2,0.7,0.4,1.2,1
			c0.3,0.2,0.6,0.4,1,0.9c1.4,0.7,2.7,1.4,4.4,2.3c0.5,0.4,1,0.9,1.7,1.7c0.9,0.4,1.9,0.8,3.2,1.4c0.4-0.1,0.8-0.1,1.6-0.2
			c0.4-0.2,0.8-0.5,1.6-0.9c0.4-0.3,0.7-0.6,1.4-0.9c0.1-0.3,0.3-0.7,0.7-1.3c0.3-0.4,0.5-0.9,1.1-1.5c0.3-0.7,0.6-1.3,1.2-2.2
			c0.1-0.3,0.2-0.6,0.6-0.9c0.1-0.2,0.1-0.3,0.5-0.8C-129.6,91.4-129.1,90.1-128.4,88.5z M-101.4,198c1.3-2.9,1.1-5.9,0-9.1
			c0-0.4,0-0.7,0.1-1.3c0-0.3-0.1-0.6,0-1.3c0-0.3,0-0.5,0.1-1c0-0.6,0-1.3,0.2-2.3c0-0.2-0.1-0.5,0-1c-0.5-0.5-1-1-1.4-2
			c0.3-0.7,0.5-1.5,0.9-2.6c0.1-0.8,0.2-1.6,0.7-2.5c0.6-0.8,1.3-1.6,2-2.7c-0.5-0.4-1-1.3-1.4-1.3c-2,0.1-4,0.5-6.4,0.8
			c-3.5,1.5-7,3.3-10.7,4.5c-2.2,0.7-3,2.2-3.7,3.9l0.4,0.8c3.6-1,7.2-2.1,11.2-3c0.5-0.2,1.1-0.4,1.6-0.4c0.7-0.2,1.3-0.3,2.4-0.3
			c0.3,0,0.5,0.1,0.8,0.6c-0.7,1.4-1.5,2.7-2.2,4.1c-0.4,0.8-0.6,1.8-1,3c0.2,0.6,0.3,1.2,0.4,2.1c0,0.5,0.1,0.9-0.1,1.7
			c0.2,0.6,0.3,1.2,0.4,2.3c-0.1,2.5-0.3,5-0.3,7.5c0,0.7,0.6,1.4,1,2.4c0.4-0.1,0.8-0.2,1.4-0.4c0.2-0.1,0.4-0.1,0.9-0.2
			c0.4-0.3,0.8-0.5,1.5-0.8c0.2-0.2,0.4-0.4,0.9-0.9C-101.4,198.6-101.5,198.5-101.4,198L-101.4,198z M-129.2,189.7
			c-0.2-0.5-0.4-1-0.5-1.8c-0.1-0.1-0.2-0.1-0.1-0.6c-0.2-1-0.4-1.9-0.5-3.3c-0.1-0.6-0.2-1.3-0.1-2.3c0.2-0.6,0.4-1.2,0.9-2.1
			c0-0.5,0.1-0.9,0.4-1.7c0.3-0.3,0.5-0.6,1.1-0.7c0.3-0.7,0.6-1.4,1-2.5c0-0.3,0-0.5,0.3-1c0.1-0.3,0.2-0.6,0.5-1.2
			c2.6-4.3,6.5-7.1,11.2-8.8c1.1-0.4,2.4-0.2,3.7-0.2c0.7,0,1.9,0.3,2.1,0c0.4-0.9,0.9-2.1,0.6-3c-1.4-3.5-2.9-4-6.4-2.4
			c-1.4,0.6-2.9,1.2-4.3,1.9c-2.1,0.9-4.4,1.6-6.2,2.9c-4.1,3.1-5,8.2-6.7,12.7c-1.5,4-1,8.3-0.8,12.8c0,0.8-0.1,1.6-0.2,2.7
			c0.3,0.3,0.6,0.6,0.8,1.4c1.8,3.5,3.9,6.8,8.4,6.4c5.9-0.5,12.7,0.3,14.3-8c-4,1.4-8,3.1-12.9,1.9l-0.7,0.5c0.3,0.2,0.6,0.4,1.1,1
			c-0.4,1.4-1.2,1.8-2.4,0.7C-126.4,193.5-127.6,191.7-129.2,189.7L-129.2,189.7z M-187.9,114.2l-0.1,5.3c1.8-0.7,3.3-0.8,4.1-1.7
			c0.8-0.9,0.8-2.5,1.2-3.8l2.6,0.7c-0.2-3.5,0.7-4.2,3.9-2.9c3.6,1.4,4,1,4.2-2.8c0.1-1.9-0.1-3.3-2-3.8c-1.6-0.4-3.3-0.8-4.9-0.6
			c-4.1,0.5-6.1,3.6-7.6,7.1C-186.9,112.4-187.3,113.1-187.9,114.2z"/>
		<path d="M39.9,96.9c-1-1.8-0.8-3.4,1-4.9c0.5-0.2,1-0.5,1.4-0.9c0.6-0.8,1.3-1.6,2.2-2.6c0.5-0.7,0.7-1.2,0.9-1.7
			c0-0.1,0.1-0.2,0.4-0.5c0.4-0.5,0.6-0.9,0.8-1.3c0.2-0.2,0.5-0.5,1-0.8c1.2-0.4,2.2-0.6,3-1c0.5-0.2,0.8-0.8,1.2-1.3
			c0,0,0-0.2,0.3-0.2c0.7-0.4,1.2-0.9,1.7-1.3c0.2-0.1,0.5-0.1,1,0c1.9,0.2,3.4,0.2,5,0.3c0.2,0,0.5,0.1,0.9,0.4
			c2.2,0.7,4.3,1.2,6.3,1.6c0,0-0.1,0.1-0.1,0.2c0.9,0.6,1.7,1.2,2.6,1.9c-0.8,1-1.6,1.8-2.4,2.6l0.5,0c-0.2,0.9-0.5,1.7-0.9,2.6
			c-0.9,1.1-1.6,2.1-2.5,3.1c-1-0.7-1.7-1.4-2.4-2.3c0.3-0.5,0.5-0.9,0.8-1.1c0.9,0,1.7-0.1,2.4-0.2l1.4-4.4l-6.7-1.2
			c0.6,1.1,1.3,2.3,1.9,3.4c0,0,0,0-0.1,0c-0.2,0.2-0.4,0.3-0.6,0.6c-0.8,0.5-1.7,1-2.6,1.4c-0.9,0-1.7,0-2.5-0.2
			c-0.8-0.2-1.5-0.2-2.4-0.2c-0.6,0.1-0.9,0.2-1.4,0.3c-0.2,0.4-0.3,0.7-0.3,1.3c0,0.6-0.1,1.1-0.3,1.6c0,1,0.2,1.9,0.5,2.9
			c0.2,0.6,0.2,1,0.1,1.5c-0.1,0.4,0,0.8,0.1,1.4c0,0.8,0,1.4-0.2,2.1c0,1.7,0.1,3.3,0.2,5.1c0,3.2,0.1,6.1-0.1,9.1
			c-0.1,2.4-0.5,4.9-0.9,7.3c-0.1,0.4-0.1,0.8,0,1.4c0.1,2.3,0.1,4.4,0,6.6c-1.9,2-3.1,4-2,6.5c0.7-0.4,1.5-0.7,2.3-0.9
			c0,0.4,0,0.7-0.2,1.1c0,1.5,0.1,2.9,0.2,4.5c-0.2,0.8-0.3,1.4-0.7,2c-0.2,1.5-0.2,2.9-0.1,4.5c-0.1,1.4-0.2,2.5-0.4,3.7
			c-0.7,0.6-1.3,1.1-2,1.8c1,0,1.7-0.1,2.4,0c0.2,0.6,0.4,1,0.5,1.6c-0.6,0.7-1.2,1.3-1.8,1.9c1,0.3,1.9,0.6,2.8,1
			c0,0.1,0,0.4-0.1,0.5c0,0.3,0,0.4-0.3,0.4c-0.8-0.1-1.4-0.1-2-0.3c-0.2,0-0.4,0-0.7,0.1c-0.1,0-0.4,0-0.5,0l-0.6,0
			c-0.1,0-0.4,0-0.5-0.1c-0.6-0.4-1.1-0.7-1.7-1.1c-0.5,3.2-0.5,3.2,1.3,3.4c1.1,1.5,2.1,3,3.2,4.7c1.5,0.6,3.8-4.4,5.2,0.4
			c-3.1,0.3-6.1,0.8-9.2,0.7c-1.8-0.1-3-1.7-2.8-3.9c0.2-3.4,0-6.8,0.2-10.7c0.1-0.8,0.1-1.6,0-2.4c0,0,0-0.2,0.1-0.5
			c-0.1-2.7-0.3-5.1-0.5-7.5c0-0.4-0.1-0.8,0-1.5c0-0.6-0.1-1-0.3-1.3c-0.4-3-0.8-6.1-1.1-9.4c0-1.2-0.2-2-0.4-2.9
			c-0.2-7.8-0.4-15.6-0.7-23.3c0-0.9-0.3-1.8-0.3-3.1C40.3,98.4,40.1,97.6,39.9,96.9z M46.2,113.2l0.1,0.1c-0.1-0.1-0.1-0.2-0.2-0.4
			l-0.1-0.1C46,112.9,46.1,112.9,46.2,113.2L46.2,113.2z M49.1,112.6c-0.1,0-0.1,0-0.3,0.1L49.1,112.6z M47.5,104.7l-0.3,0.1
			L47.5,104.7z M47.6,130.6l0.1,0.1c-0.1-0.1-0.1-0.2-0.1-0.6c3.2-1.5-1-4.2,0.9-6c-1,0.9-1.5,1.9-2.1,2.9c-0.5,0.8-1.1,1.5-1.6,2.3
			C45.7,129.7,46.6,130,47.6,130.6L47.6,130.6z M47.2,134.3l-2.2-1.7l-0.3,4.2C45.9,135.8,46.6,135.2,47.2,134.3L47.2,134.3z
			 M47.6,111l2.4-0.2l-0.1-0.9C48.8,109.2,47.5,107.5,47.6,111L47.6,111z M46.3,114.9c0.9,1.5,0.9,1.5,2.8-0.4
			C47.9,114.5,47.2,114.6,46.3,114.9L46.3,114.9z M46.9,96.6l0.4-1.4c-0.7,0-1.4,0-2.7,0.1C45.6,96,46.1,96.4,46.9,96.6z M45.5,94
			l3.1,0.1l0-0.7C47.5,93.4,46.4,93.6,45.5,94z M58.3,85.8l0.7-1.3l-0.8-0.3C58.2,84.7,58.1,85.2,58.3,85.8z M45.1,107.7l-1.4,0.3
			l0.1,0.5C44.2,108.3,44.7,108.1,45.1,107.7z M45.5,148.8c0,0.3-0.1,0.6-0.1,0.9c0,0,0.3,0.1,0.4,0.1
			C45.8,149.5,45.8,149.2,45.5,148.8z M45.1,138.2l-0.2-0.4l-0.4,0.3C44.7,138.2,44.8,138.3,45.1,138.2z M45.5,152.8l-0.1,0.3
			C45.5,153.1,45.6,153.1,45.5,152.8z M48.2,138.5l-0.3-0.1C48,138.5,48,138.6,48.2,138.5z"/>
		<path d="M123.4,64.4c-2.9,2-4.4-0.2-5.9-2.1c-3.5-4.5-7.2-8.8-10.2-13.6c-3.6-5.5-6.5-11.5-9.8-17.1c-0.9-1.6-2.4-2.9-3.7-4.7
			c-0.7-0.5-1.2-0.8-1.7-1c-0.6-0.7-1.3-1.4-2-2.4c0-0.3,0-0.6,0.2-0.6c1-0.3,1.8-0.6,2.8-0.8c0.4,0.2,0.7,0.4,0.9,0.8
			c0,0.4,0,0.7,0,1.1c1.2,1.2,2.2,2.1,3.4,0c0.4-0.4,0.7-0.7,1.2-1c1.4,0,2.6,0.1,3.8,0.2l0.2-0.6c-1-0.8-1.9-1.5-2.9-2.5
			c-0.4-0.5-0.7-0.7-1-1.2c1.3-0.6,2.6-1,3.9-1.3c0.9,0.7,1.8,1.4,2.7,2.5c0,1-0.1,1.7-0.2,2.5c-0.1,0.8-0.1,1.4-0.2,2
			c0,0,0,0-0.2,0c-0.6,0.1-1.1,0.3-1.7,0.4c-0.2,0-0.3,0-0.6,0c-0.6,0-1-0.1-1.6-0.1c-0.3,0.1-0.4,0.2-0.6,0.2
			c0.2,0.1,0.5,0.2,0.7,0.5c0,0.4-0.1,0.7-0.2,1c-0.9,1.5-0.4,2.1,1.1,2.4c-0.6,2.5,1.3,2.4,2.6,3c0.2,0.5,0.3,0.9,0.5,1.2l0.6-0.2
			c-0.2-0.6-0.3-1.3-0.5-1.9c0.2-1.1,0.6-2.2,0.9-3.2c2.3-0.8,1.2-2,0.8-3.2c-0.1-0.6-0.3-1.1-0.5-1.8c0-0.2,0-0.3,0-0.5
			c0-0.1,0-0.4,0-0.6c0-0.3,0-0.6,0-0.9c1.2,1.4,2.4,2.8,3.6,4.6c0.3,0.9,0.6,1.4,0.9,2.1c-0.2,0.4-0.4,0.6-0.8,0.8
			c-3.2-0.2-3.2-0.2-3.2,1.6c0,1.3-0.1,2.3-0.2,3.6c1.1-0.5,2-1.4,2.5-1.2c2.9,1.3,2.8-0.9,3.4-2.5c0.4,0.2,0.6,0.3,0.9,0.4
			c0.4,0.4,0.8,0.9,1.1,1.6c0.3,0.6,0.7,0.9,1.1,1.3c0,0,0.2,0.1,0.2,0.4c0.9,1.3,1.8,2.3,2.6,3.2c0.1,0.1,0.3,0.2,0.4,0.6
			c0,0.3-0.1,0.5-0.3,0.5c-1.5,0.3-2.9,0.7-4.3,1.1c1,1.5,1.9,3,3.9,1.9c0,0.4-0.1,0.7-0.2,1c0,0.6,0.1,1.2,0.2,1.7
			c0.1-0.2,0.2-0.4,0.6-0.6c0.6,0.6,0.9,1.2,1.3,1.9c0,0.2,0,0.3-0.2,0.4c-0.4,0-0.7-0.1-1.1-0.1c-1.6,0-3.3-0.7-3.6,1.4
			c1,1.1,2,2,2.9,3.2c0.7,1.2,1.3,2.2,1.9,3.3l0.2-0.1c0.5-0.4,0.8-0.7,1.2-1c0.4,0,0.7,0.1,1,0.1l0.6,0c0.4,0.2,0.7,0.3,0.9,0.5
			l-1.7,1.8l6.3,1.4l-0.1,0.8c-0.5,0.1-1,0.1-1.5,0.1c0-0.1-0.1-0.1-0.2-0.2c0.1,0.1,0.1,0.2,0.2,0.4c0,1.1-1.5,2.6,1,2.7
			c0.3,0,0.4,0,0.5,0.2c0.6,0.1,1.1,0,1.7-0.1c0.3-0.1,0.4-0.3,0.6-0.4c0.4,0,0.8,0,1.1,0.1c0.9,0.6,1.5,1.3,2.2,1.9
			c-0.9,0.7-1.7,1.4-3,2c-1.7,0.2-3,0.5-4.3,0.8c-0.4,0-0.8,0.1-1.4-0.2C124.5,64.1,124,64.3,123.4,64.4L123.4,64.4z M106.4,41.7
			l0.1,0.1c-0.1-0.1-0.2-0.3-0.2-0.4l-0.1-0.1C106.2,41.3,106.3,41.4,106.4,41.7L106.4,41.7z M113.3,46.5l-0.3,0.1L113.3,46.5z
			 M104.8,39.9L105,40c-0.1-0.1-0.1-0.2-0.2-0.6l-1.1-0.4l-0.1,0.5C104,39.6,104.4,39.6,104.8,39.9z M115.2,54.2l-0.6,0
			c0.2,0.1,0.5,0.2,0.7,0.6c0.3,0.4,0.6,0.8,0.9,1.1l0.6-0.7C116.3,55,115.8,54.7,115.2,54.2z M110.3,37.3c0.3-0.2,0.5-0.3,1-0.5
			c0-0.1,0.1-0.1,0.1-0.2c-0.1-0.1-0.2-0.2-0.4-0.6c-0.3-0.1-0.6-0.2-1-0.6l-0.6-0.2c0,0.1,0.1,0.3,0.1,0.8c0,0.4-0.1,0.8,0,1.4
			C109.7,37.4,109.8,37.4,110.3,37.3z M107.3,39.1l-1-0.6l0,1.4C106.6,39.7,106.9,39.5,107.3,39.1L107.3,39.1z M127.1,62.5l-0.5-1.5
			l-0.7,0.3C126.3,61.8,126.6,62.3,127.1,62.5z M113.5,42.8l1.2-0.3l-0.2-0.4C114.1,42.2,113.7,42.4,113.5,42.8L113.5,42.8z
			 M120.7,55.1l-0.1,0.7c0.1,0,0.3,0,0.3,0C120.9,55.6,121,55.3,120.7,55.1z M100.8,33.7l-0.3,0.4C100.7,34,100.8,33.9,100.8,33.7z
			 M117.8,54.9l0.5-0.4c-0.1-0.1-0.1-0.2-0.2-0.2C118,54.4,117.8,54.5,117.8,54.9z M121.9,59.6l-0.1-0.4l-0.5,0.4
			C121.5,59.7,121.6,59.7,121.9,59.6L121.9,59.6z M113.2,48.1l0.2,0.3C113.3,48.2,113.3,48.1,113.2,48.1L113.2,48.1z M111.7,41.8
			l-0.3,0.1C111.5,41.9,111.6,42,111.7,41.8L111.7,41.8z M112.8,38l-0.1-0.3C112.7,37.8,112.7,37.9,112.8,38z M117.1,58.9l0.3-0.2
			C117.2,58.7,117.1,58.7,117.1,58.9z M103.7,22.6l0.3,0.1C104,22.7,103.9,22.6,103.7,22.6z M98.6,27.1l-0.3,0.2
			C98.5,27.3,98.6,27.3,98.6,27.1z"/>
		<path d="M92.8,22.1c-0.8,0.3-1.6,0.5-2.8,0.8c-0.6,0-0.9-0.1-1.1-0.2c0.2-0.4,0.4-0.6,0.8-0.8c1.9-0.1,2.8-0.9,2.6-2.6l-0.8-0.6
			c-0.7,1-1.4,2.1-2.2,3c-0.7,0.1-1.3,0.3-1.8,0.6c0.2,0.4,0.5,0.7,0.7,1.3c0,0.5,0,0.8,0,1.1c-0.1,0.1-0.2,0.3-0.6,0.3
			c-0.7-0.3-1.2-0.4-1.8-0.7c-2.2-0.1-4.2-0.1-6.3-0.1l0,0.5c1.9,0.4,3.8,0.9,5.7,1.5c-0.3,0.7-0.5,1.2-0.7,1.7
			c-0.2,0.1-0.4,0.2-0.9,0.3c-0.7,0.1-1,0.3-1.5,0.4c-0.1-0.6-0.1-1.2,0-1.9l-3.8-1L78,26.3l1.5,1.1c-0.4,1.3-0.8,2.5-1.3,3.8
			c-0.2,0.6-0.4,1.1-0.5,1.7c-0.4,0.6-0.7,1.1-1.5,1.8c-0.6,0.5-0.8,1-1,1.4c-5,7.6-10,15.2-17.3,20.9c-0.9,0.7-2.2,0.9-3.3,1.4
			c-0.9,0.4-1.8,0.6-2.7,1.1c-1.3,0.7-2.6,1.7-3.9,2.3c-0.6,0.3-1.4,0.1-2.2,0.2c0.2-0.5,0.5-1,0.5-1.5c0.8-4.9,3.5-9.5,7-12.2
			c2.5-2,5.1-3.9,7.4-6.2c3.2-3.3,6-6.9,9.1-10.3c3.3-3.6,6.7-7.2,10.1-10.8c2.2-2.3,4.5-4.6,6.6-7c2.7-3,5.3-5.9,10.1-3.8
			c-0.7,1.8-1.9,3.2-2.4,4.7c-0.4,1.4-0.1,3.1,0,4.8c1.5,0.7,3.2,1.2,4.6-0.5c0.3,0.3,0.7,0.6,0.9,1.1c-0.4,0.9-0.8,1.8-1.2,2.8
			C98,23.4,97.7,23.7,97,24c-1.3,0-2.3-0.1-3.2-0.2c0-0.3,0.1-0.6,0.2-0.9c0.6-0.3,0.9-0.5,1.3-0.7l-1.1-1.4L92.8,22.1L92.8,22.1z
			 M71.3,37l-3.8-0.3C68.8,38.6,70,38.1,71.3,37L71.3,37z M72.4,33.7l-1.8-0.6l-0.1,1C71.1,34,71.6,33.9,72.4,33.7z M92.4,17.7
			c0.8-2.4-0.8-1-1.7-0.8C91.1,17.2,91.6,17.5,92.4,17.7z M91.2,15.3l0.5-0.3c-0.1,0-0.1-0.1-0.2-0.1c-0.7-0.1-1.4-0.1-2.1-0.2
			l0,0.7C89.9,15.3,90.4,15.3,91.2,15.3L91.2,15.3z M54.8,50l0.6-1.4l-0.7-0.1C54.7,48.9,54.6,49.3,54.8,50z M59.2,48.3l0.2,0.9
			l0.5-0.2C59.7,48.7,59.6,48.4,59.2,48.3z M64.5,42.5l0-0.8l-0.8,0.1C63.9,42.1,64.1,42.3,64.5,42.5z M51,55.1l0.9,0.3l0.1-0.7
			C51.6,54.7,51.3,54.8,51,55.1z M57,51.4l0.9-0.2l-0.2-0.5C57.5,50.8,57.2,51,57,51.4z M58.8,53l-0.5,0.4c0.1,0.1,0.2,0.2,0.2,0.2
			C58.7,53.5,58.8,53.4,58.8,53L58.8,53z"/>
		<path d="M130.2,90.7c-0.1-0.3-0.2-0.5-0.1-1.1c0-1-0.2-1.6-0.4-2.3c-1.1-2.8,0.7-6.4-2.8-8.8c-0.6-0.1-0.9,0-1.3,0.2
			c0,0,0,0-0.2,0c-3.6-0.4-3,2.3-3.4,4.2c-1.4,2.2-2.8,4.3-4.5,6.8c-1,1.4-1.7,2.6-2.7,3.8c-1.7,0-3.2,0.1-4.6,0.1
			c0.1-0.2,0.2-0.5,0.7-0.9c0.5-0.6,0.7-1,0.9-1.5c0.1-0.7,0.3-1.4,0.6-2.4c0.5-1.5,0.8-2.7,1.1-3.9c0.1-0.2,0.2-0.5,0.5-0.9
			c0.4-0.6,0.6-0.9,0.7-1.3c2.1-5,6.3-7.8,10.7-10.4c0.6-0.4,1.8,0,2.7,0.3c1.2,0.4,2.2,1.1,3.3,1.5c0.8,0.3,1.6,0.5,2.4,0.8l-1,2.3
			c1.3,2.5,2.4,1.1,3.8-0.5c0.9,1,1.5,2,2.3,3.5l1.2,0.2c0.1,0.8,0.1,1.6,0.1,2.7c-0.1,0.6-0.2,0.8-0.4,1.1
			c-0.4,0.2-0.6,0.4-0.8,0.7L140,85c0,0-0.1,0-0.2,0.2c0.1,0.7,0.3,1.3,0.4,1.8c0.1,0.4,0.2,0.8,0.2,1.5c-0.3,0.4-0.6,0.5-1,0.5
			c-1.5-0.1-2.9-0.1-4.2-0.1l-0.2,0.8l4.1,3.9c0.2,2.4,0.4,4.8,0.4,7.6c-0.4,0.6-0.5,1-1,1.3c-0.9-0.2-1.9-0.4-2.8-0.6
			c-0.9-0.2-1.8-0.7-2.6-0.5c-0.5,0.1-1.1,1.7-0.9,2c0.6,0.7,1.6,1.1,2.5,1.8c0.2,0.3,0.3,0.4,0.4,0.7c-0.6,1.6-0.1,2.5,1.5,2.8
			c0.1,0.3,0.3,0.4,0.5,0.5c0,0,0,0,0,0.2c0,0.6-0.1,1-0.3,1.4c-0.4,0-0.7,0-1.1,0c-0.7,0.7-1.2,1.4-1.7,2c0,0,0,0-0.2,0
			c-1-0.3-1.8-0.5-2.5-1c-0.2-0.8-0.5-1.5-0.8-2.1c-0.5-0.4-1-0.8-1.3-1.5c1.7-1.1,1.3-1.8,0-2.4c0.1-1.2,0.2-2.3,0.5-3.7
			c1.7-1.1,1.5-1.8,0.1-2.4c0-0.3,0-0.5,0.4-0.9c1.1-0.1,1.9,0,2.7,0.2c0.4,0.3,0.9,0.5,1.3,0.6c-0.3-0.3-0.5-0.5-0.8-1
			c-1.1-0.5-2.2-0.8-3.3-1.2c0-0.8,0-1.6,0.1-2.4c-0.1-1-0.2-1.5-0.4-2.1c0-0.2-0.1-0.5,0.1-0.9C130.3,91.4,130.2,91,130.2,90.7
			L130.2,90.7z M137,100.7l0.5-0.2l-0.1-0.2c-0.2,0.2-0.5,0.3-0.8,0.4C136.6,100.7,136.7,100.7,137,100.7z M133.3,108.5l-1.4,0.8
			l0.5,0.6C132.8,109.4,133.2,108.9,133.3,108.5z M136.6,98.5l-0.6,0.7l1.2-0.1C137.2,98.9,137.1,98.7,136.6,98.5L136.6,98.5z
			 M115.1,87.8l-0.4-1.7c-0.3,0.8-0.6,1.1-0.5,1.4C114.2,87.7,114.6,87.8,115.1,87.8z M132.8,107.5c0.1-0.1,0.1-0.1,0.1-0.2
			c0-0.1-0.1-0.2-0.2-0.2c-0.4,0.1-0.9,0.2-1.3,0.4l0.1,0.4C132,107.8,132.3,107.8,132.8,107.5z M133.4,82.8l-0.4-0.5
			c-0.1,0.1-0.2,0.2-0.2,0.2C133,82.6,133.1,82.8,133.4,82.8z M137.7,96.1l0-0.6l-0.4,0.1C137.3,95.8,137.4,95.9,137.7,96.1
			L137.7,96.1z"/>
		<path d="M130.7,141.9c-0.1-2.2-0.2-4.1-1.6-6.1c-0.8-1.2-0.1-3.5,0-5.3c0.1-2.2,0.4-4.5,0.7-7.1c0-0.8-0.1-1.1-0.1-1.5
			c-0.1-1-0.2-2,0-3.2c0.5-1.7,0.8-3.1,1.2-4.5c1.2-0.5,2.2-0.9,3.2-1.4l0.2,0.1c0.5,0.6,0.8,1.2,1.1,1.7l0.5-1.1
			c1.2,0.1,2.5,0.2,3.9,0.5c0.2,1.2,0.2,2.2,0.1,3.2c-0.2,2.9,0.9,5.4,1.9,8c0,0.8,0,1.5-0.2,2.7c-0.3,3.2-0.4,6.1-0.7,8.9
			c-0.5-0.4-0.9-0.8-1-1.2c-0.5-1.7-0.8-3.5-1.2-5.3l-2,1.8l0.9,0.6c0,0,0,0,0,0.2c-0.5,0.3-0.9,0.5-1.4,0.7l1.3,1.7
			c-1.7,0.4-3.2,0.7-4.7,0.9c-0.5-0.1-0.8-0.1-1.2-0.1l0.2,0.8c0.4-0.2,0.7-0.3,1.1-0.3c0.3,0.8,0.6,1.5,0.9,2.1l0,0.2
			c-0.1,0.7-0.2,1.2-0.3,2.5c0.7-1,1.1-1.5,1.6-2c0.4,0,0.7,0.1,1.1,0.1c0.6,0.1,1.1,0.1,1.5,0.2c-0.2,0.6-0.4,1-0.8,1.5
			c-0.9,1.1-1.6,2.1-2.4,2.9c-0.1-0.3-0.3-0.4-0.5-0.6c-0.1-0.1-0.1-0.1-0.2-0.2c0.1,0.1,0.1,0.2,0.2,0.4c0.1,0.3,0.3,0.4,0.4,0.7
			c-0.9,1.3-1.5,2.4-0.3,3.9c-0.2,0.8-0.5,1.4-0.8,1.9c-0.2,0-0.3,0-0.5-0.1c-0.2,0-0.4,0-0.7,0.1c-0.2,0.5-0.4,1-0.4,1.5
			c0,0.4,0.2,0.8,0.3,1.4c0.5,1,1,1.9,1.5,2.8c0.3,0.6,0.6,1,0.7,1.4c0.4,1.2,0.5,1.2,2,0.3c0.1,0,0.4,0,0.6,0.2
			c1.2,1.3,2.4,2.5,3.6,3.8c-2.1,1.2-4,2.6-6.2,3.6c-2.2,1.1-4.9-0.2-5-2.7c-0.1-3.7,0.4-7.4,0.9-11.4c0.1-0.6,0.1-0.9,0-1.2
			c0.1-1.2,0.1-2.3,0.4-3.8C130.8,144.3,130.8,143.1,130.7,141.9L130.7,141.9z M132,122.1l3.1,6.3c2.1,2.4,2.6-1.6,4.4-1.5
			c-0.4-0.4-1.3-1.1-1.2-1.3c1.4-2.9-0.4-4.6-2.3-6.3c-1.4,0.9-2.9,1.8-4.5,2.7C131.6,122,131.7,122,132,122.1z M131.3,133l-1,0.1
			l0.2,0.8l3.9-1.2c-0.2-0.5-0.4-1.4-0.6-1.4c-1,0-2,0.2-2.9,0.4C131.2,132.1,131.4,132.5,131.3,133z M131.8,116.1l2.2-0.7
			c-0.7-0.4-1.4-0.5-2-0.4C131.8,114.9,131.8,115.9,131.8,116.1z M134.1,142.1c-1.4-2.1-1.6-0.2-2,0.7
			C132.6,142.6,133.2,142.4,134.1,142.1z M132.6,144.6l0.5-0.4c-0.1-0.1-0.2-0.2-0.2-0.2C132.7,144.1,132.5,144.3,132.6,144.6
			L132.6,144.6z"/>
		<path d="M110.1,93.6c1.6-0.2,3.1-0.2,4.6-0.1c-0.4,1-0.7,1.9-1.4,2.4c-1.9,1.4-1.4,3.2-1.1,5c-0.3,0.8-0.6,1.6-1.1,2.5
			c-0.5,0.7-0.7,1.2-0.9,1.7c0,0.1-0.1,0.2-0.4,0.5c-0.4,0.6-0.6,1-0.7,1.4c-1.6,2.7-3,5.4-4.8,7.9c-2.8,4-10.5,6.8-14.5,4.3
			c-3-1.9-5.1-5.6-7-8.8c-0.5-0.9,0.8-3,1.6-5.3c1.2,1.3,2.2,2.3,3.1,3.4c1.1,1.2,2.1,2.3,2.7-0.6c2.2,1.9,4.2,3.8,6.5,5.4
			c0.5,0.4,2.2,0.1,2.6-0.4c1.7-2.3,3.2-4.9,5.1-7.6c0.4-0.7,0.5-1.2,0.7-1.7c0.2-0.5,0.4-0.9,0.9-1.6c0.3-0.5,0.3-0.8,0.4-1.1
			c0.3-1,0.6-2.1,1.3-3.2c0.6-0.8,0.8-1.4,1-2C109.1,95.2,109.5,94.4,110.1,93.6z"/>
		<path d="M74.8,125.6c5.4,6.3,6,13.4,3.2,20.9c-1,2.6-2.3,5.1-3.8,7.5c-0.8-0.8-1.4-1.6-1.9-2.2c0.2-1,0.4-1.9,0.6-2.9
			c-0.1-1.8-0.2-3.4-0.4-5.4c-0.3,0-1.1-0.1-2-0.4c-0.5-2.4-0.4-4.9-1.5-6.8c-2.1-3.5-4.8-6.5-7.2-9.9c0.4-0.4,0.8-0.7,1.4-0.9
			c0.4-0.1,0.7-0.3,1.2-0.5c2.4-2.4-1.5-0.9-0.9-2.8c0.8-0.5,2.1-1.2,3.4-1.9c1,0.2,1.9,0.2,1.7,1.6c-0.1,0.6,0.8,1.2,1.1,2
			c0,0.6,0.1,1.4,0.2,1.4c2.5-0.2,2.6,1.3,2.1,3.1c-0.6-0.1-1-0.1-1.4-0.3c0.9-1.8,0-1.7-1.2-1.7c-1.2,0-2.3-0.4-3.7-0.6l-0.1,1.6
			c1.8,0.3,3.4,0.6,5,1.1c0.6,2.4,1.9,2.7,4,1.3c0.7,0,1.2,0,2.5-0.1c-1.2-0.6-1.6-0.8-2-1.2C74.9,127.5,74.9,126.5,74.8,125.6
			L74.8,125.6z M77,142.7l1.1-0.5l-0.5-0.5c-0.3,0.3-0.7,0.6-1.2,1C76.5,142.7,76.6,142.7,77,142.7L77,142.7z M75.5,139.5
			c0.8,0,1.8,0.3,2.3-0.1c0.5-0.4,0.5-1.4,0.9-2.6c-1.2,0.5-1.7,0.7-2.1,1c-0.5,0.3-0.9,0.6-1.6,0.7l-2.5-0.6l-0.3-1.5l-0.9,0
			c0,1.2,0,2.4,0.1,3.6l2.2-0.5l0.1,2.2l0.8,0.2C74.8,141,75,140.1,75.5,139.5z"/>
		<path d="M95.2,149.2c0.2,1,0.4,1.9,0.4,3.1c-1.2,0.3-2.2,0.4-3.1,0.5c-0.3-4.2-0.8-8.5,0.7-12.5c1.6-4.5,2.6-9.5,6.7-12.7
			c1.8-1.4,4.1-2,6.2-2.9c1.4-0.6,2.9-1.3,4.3-1.9c3.6-1.6,5-1.1,6.4,2.4c0.3,0.8-0.2,2.1-0.6,3c-0.1,0.3-1.4,0-2.1,0
			c-1.2,0-2.6-0.2-3.7,0.2c-4.6,1.7-8.5,4.5-11.4,9c-0.3,0.5-0.4,0.9-0.5,1.3c0,0.3,0,0.5-0.2,1.1c-0.5,0.9-0.8,1.5-1.1,2
			c-0.3,0.4-0.7,0.7-1,1.1c-0.3,0.7-0.3,1.2-0.3,1.8c-0.2,0.7-0.5,1.4-0.8,2.1C95,147.9,95.1,148.5,95.2,149.2L95.2,149.2z"/>
		<path d="M119.4,165.5c-0.3-0.7-0.9-1.4-0.9-2.2c0-2.5,0.2-5,0.4-8c0.1-1,0.2-1.5,0.3-2c0,0,0,0-0.2,0l-0.5-0.1
			c-0.1-0.6,0-1.2,0-1.8c-0.1-1-0.2-1.6-0.4-2.1c0.3-0.9,0.5-1.8,0.9-2.7c0.7-1.4,1.4-2.7,2.2-4.4c-0.4-0.4-0.8-0.4-1.1-0.4
			c-0.7,0.2-1.3,0.3-2.4,0.4c-0.8,0.1-1.2,0.2-1.6,0.4l-10.8,3.1l-0.4-0.8c0.7-1.7,1.5-3.2,3.7-3.9c3.6-1.2,7.1-3,11.1-4.4
			c2.7,0.3,5,0.5,7.2,0.7c-0.6,0.8-1.3,1.6-2.3,2.5c-0.4,1-0.4,1.9-0.4,2.9c-0.3,0.7-0.5,1.5-1,2.5c-0.4,0.6-0.5,0.9-0.9,1.3
			c-0.3,0.1-0.4,0.1-0.6,0.2c0.2,0.1,0.5,0.2,1,0.3l1.9,0.2c0,0.2,0.1,0.5-0.1,1c-0.2,0.9-0.2,1.6-0.1,2.4c0,0.3,0,0.5-0.2,1
			c-0.1,0.6-0.1,0.9,0,1.2c0,0.4,0,0.7-0.1,1.5c-0.1,1.6,0,2.8-0.1,4c-0.5,0.1-0.8,0.3-1.2,0.4c0.4,0.1,0.9,0.2,1.3,0.5
			c-0.3,1.5-0.5,2.8-0.8,4.2c0.2,0.3,0.3,0.4,0.5,0.5c-0.2,0.2-0.4,0.4-1,0.6c-0.7,0.2-1.1,0.5-1.4,0.8c-0.2,0.1-0.4,0.1-0.9,0.2
			C120.1,165.3,119.8,165.4,119.4,165.5z M120.5,162.5l-0.1,0.9l0.3,0c0-0.4,0.1-0.7,0.3-1.1C120.9,162.3,120.8,162.3,120.5,162.5
			L120.5,162.5z M122.4,157.5c0.1-0.2,0.2-0.3,0.2-0.5c0-0.1,0-0.2-0.1-0.2l-2,1.5l0.6,0.5C121.5,158.5,121.8,158.1,122.4,157.5z
			 M120.5,155.9l0.7,0.6l0.3-0.5C121.2,155.8,120.8,155.8,120.5,155.9z M122,151.5l0.3,0.1C122.2,151.6,122.2,151.5,122,151.5z
			 M122.1,153.9l-0.1-0.3C122,153.7,121.9,153.8,122.1,153.9z"/>
		<path d="M63,125.5c-0.4,0.3-0.8,0.5-1.4,0.9c-2.2-0.3-4.2-0.8-6.1-1.4c-0.8-0.3-1.4-0.9-2.1-1.4c0.6-0.6,1.1-1.3,1.8-1.8
			c3.1-2.3,6.8-4.1,9.4-6.9c2.8-3.1,4.7-7.1,7-10.3c0.3,0.9,0.5,1.5,0.7,2.3c0.3,0.8,0.6,1.5,1,2.2c0.4-0.3,0.7-0.7,1.1-1.2
			c0.6,0,1,0.1,1.6,0.2c0-0.6,0.1-1.1,0.1-1.8c-0.4-0.5-0.7-0.7-1.2-1c-0.4,0-0.6,0-1.1-0.1c-0.4,0-0.7-0.1-0.9-0.2
			c0.5-0.9,0.9-1.7,1.2-2.5l0.1,0.1c0.4,0.3,0.7,0.4,1.1,0.7c0.8,0.3,1.4,0.4,2,0.7c0.2,0.4,0.3,0.7,0.4,1.2
			c-0.1,0.8-0.1,1.4-0.3,2.2c-0.1,0.8,0,1.5,0,2.3c0,0.2-0.1,0.4-0.4,0.8c-0.3,0.5-0.3,0.9-0.4,1.4c-0.1,0.5-0.2,0.8-0.3,1.1
			c0,0-0.1,0.1-0.3,0.2c-1.4,1.3-2.6,2.6-3.9,3.8c-1.6-0.3-3.1-0.5-4.7-0.8c-0.1,1.1-0.2,2.1-0.4,3.3c-0.2,0.3-0.4,0.6-0.5,1
			l-3.3,1.9c-0.6,1.8,3.3,0.4,0.7,2.8C63.5,125.2,63.3,125.3,63,125.5L63,125.5z M60.9,120.2c-0.1,0-0.2-0.1-0.3-0.1
			c-0.1,0-0.2,0-0.2,0.1c0.2,0.8,0.4,1.6,0.6,2.4l1.2-0.3C61.8,121.6,61.5,121,60.9,120.2z M63.3,118.6l2.6,0.3l0.1-0.8
			C65.2,118.2,64.4,118.3,63.3,118.6z"/>
		<path d="M37.9,78.8c0.5-0.9,0.9-1.6,1.2-2.4c1.5-3.4,3.5-6.6,7.6-7.1c1.6-0.2,3.3,0.3,4.9,0.6c2,0.5,2.2,1.9,2,3.8
			c-0.3,3.8-0.7,4.3-4.2,2.8c-3.2-1.3-4.1-0.6-3.9,2.9L43,78.9c-0.4,1.3-0.4,2.9-1.2,3.8c-0.7,0.8-2.3,1-4.1,1.7
			C37.8,82.2,37.8,80.6,37.9,78.8z"/>
		<path d="M92.5,153c1-0.3,1.9-0.4,3.1-0.5c0.3,0.1,0.4,0.2,0.2,0.5c-1,0.5-1.7,0.8-2.4,1.1l0.1,0.5l3.2,0.2
			c1.4,1.7,2.7,3.5,4.3,4.9c1.2,1.1,2,0.7,2.4-1.1c0-0.5,0-0.8,0-1c4.5,1.1,8.5-0.6,12.5-2c-1.6,8.2-8.4,7.5-14.3,8
			c-4.6,0.4-6.6-2.9-8.3-6.7c-0.2-0.7-0.6-1-1-1.4C92.3,154.8,92.4,154,92.5,153z"/>
		<path d="M72.8,149.1l-0.6,2.7c0.6,0.7,1.2,1.5,1.8,2.3c-0.1,0.5-0.2,0.8-0.7,1.2c-0.6,0.5-0.8,0.9-1,1.3c-3.9,3-7.9,6-11.8,8.9
			c-0.3,0.2-1.1-0.2-1.7-0.3c-0.6,0-1.2,0.1-2-0.1c-0.2-0.8-0.3-1.3-0.3-1.8l0.7,0.3c0.7-1.1,1.3-2.2,2-3.3c0,0,0,0-0.2,0
			c-0.9-0.1-1.7,0-2.4-0.2c-0.6-0.1-1.2-0.5-1.9-0.7c0,0,0,0,0.1,0c0-0.2,0-0.4,0-0.7c0-0.4,0-0.6,0.1-0.9c0.1-0.2,0.2-0.3,0.4-0.4
			c7,1.6,10.1,0,12.6-6.3c0.3-0.7,0.7-1.3,1.2-1.8c0.4,0.1,0.6,0.2,0.8,0.4c0.2,0.4,0.4,0.5,0.6,0.7c0.1-0.3,0.3-0.6,0.5-1
			c0.2-0.2,0.3-0.3,0.6-0.4l0.6,0L72.8,149.1L72.8,149.1z M69.2,154.5c-0.1,1.1-2,2.2,0.5,3.6C69.6,156.6,69.6,155.6,69.2,154.5z"/>
		<path d="M83.5,64.4c-0.5-0.4-1-0.9-1.6-1.6c-1.6-1-2.9-1.7-4.3-2.4c-0.3-0.2-0.6-0.4-0.9-0.8c-0.1-0.5-0.1-0.6-0.1-1
			c0.7-0.5,1.3-0.7,2-1.1c0.5-0.3,1.1-0.6,1.5-1c0-0.1,0-0.4,0.2-0.4c0.1,0,0.4,0,0.6,0.1c1.6,1.2,3,2.3,4.4,3.4
			c2.1,1.7,2.5,1.6,3.7-1c0.7-1.5,1.8-2.7,2.8-3.9c0.2,0.1,0.3,0.1,0.4,0.1c-0.1-0.1-0.2-0.2-0.3-0.5c0.1-1.6,0.1-3,0.4-4.5
			c1,0.1,1.7,0.1,2.5,0.2l-0.4-0.8l2.3-1.4c0.1,0.2,0.3,0.4,0.4,1c0.1,0.5,0.2,1,0.5,1.4c0,0.8,0,1.5-0.3,2.5
			c-0.5,0.4-0.8,0.5-1.2,0.9c-0.3,1-0.5,1.7-1,2.6c-1.3,0.4-2.4,0.8-3.8,1.3l1.9,4c-0.3,0.4-0.5,0.9-1,1.5c-0.4,0.5-0.6,0.8-0.7,1.1
			c-0.4,0.3-0.7,0.6-1.4,0.9c-0.5,0.2-1.1,0.5-1.6,0.8c-0.4,0.1-0.8,0.1-1.5-0.1C85.5,65.1,84.5,64.8,83.5,64.4z M87.7,63.5l0.3-0.1
			L87.7,63.5L87.7,63.5z M85.4,63.2L84.3,63l0,0.6c0.5-0.1,0.9-0.2,1.5-0.4C85.8,63.2,85.7,63.2,85.4,63.2L85.4,63.2z M93.5,52.8
			l0.9,0.6l0.2-1.4C94.2,52.1,93.9,52.3,93.5,52.8L93.5,52.8z M94,55.4l0.3-0.2C94.1,55.3,94,55.3,94,55.4L94,55.4z"/>
		<path d="M136.9,140.8c0.2-0.4,0.4-0.8,0.7-1.6c0-0.4,0.1-0.5,0.2-0.6c1.6,0.1,2.9,0.2,4.3,0.4c-0.1,1.3-0.3,2.6-0.6,4.3
			c-0.1,0.7,0.1,1,0.2,1.3c0.1,0.8,0.1,1.6,0,2.6c-0.2,0.6-0.1,0.9,0,1.3c0,0.6,0,1.2-0.3,2c-0.2,0.6-0.2,0.9-0.2,1.3
			c0.1,1.2,0.3,2.4,0,3.7c-0.7,0.2-1.3,0.2-1.3,0.4c-0.6,2.5-1.6,1.5-2.8,0.3l-0.5,1.3c0,0-0.3,0-0.6-0.1c-0.4-0.8-0.5-1.6-0.6-2.6
			l-2,0.8c-0.5-0.8-1-1.7-1.3-2.7c0.5-1.1,0.8-2,1.2-2.9c0.2-0.6,0.5-1.2,0.9-1.9c0.5-0.1,1.1,0,1.6,0c0.9-2.2,1.7-4.1,2.6-5.9
			c0-0.2,0-0.4-0.2-0.7C137.9,141.2,137.4,141,136.9,140.8L136.9,140.8z M138.8,148.1l-0.8,0.1l0.1,0.4c0.4-0.2,0.7-0.3,1.2-0.5
			C139.2,148.1,139.2,148.1,138.8,148.1z M138.4,145.9l-0.6,0.5l0.3,0.3c0.2-0.3,0.4-0.5,0.7-0.9
			C138.8,145.9,138.8,145.9,138.4,145.9z"/>
		<path d="M96.5,47.7c-0.8,0.6-1.5,1.1-2.3,1.6l0.4,0.8C93.8,50,93.1,50,92,49.8c-1-0.7-1.9-1.9-2.4-1.7c-1.4,0.4-2.9,1.2-3.9,2.2
			c-0.4,0.4,0.5,2,0.9,3c0.3,0.7,0.7,1.4,1.1,2c-0.7,0.2-1.4,0.5-2.1,0.5c-0.6-0.4-1.1-0.7-1.9-0.9c-0.8-0.2-1.3-0.4-1.9-0.9
			c-0.1-1-0.2-1.8-0.1-2.7c1.1-0.4,1.9-0.8,2.8-1.1l-0.4-0.8c-0.8,1.6-3.5-1.3-3.7,2c-0.2,0.4-0.4,0.6-0.8,0.8
			c-0.9-0.5-1.7-1-2.6-1.6c1.3-1.5,2.5-2.9,4-4.3c1,0,1.7,0,2.4,0c1.8-0.5,3.6-1.1,5.5-1.6c1.6-0.3,3-1.2,3.5,0.9
			c-0.7,0.3-1.4,0.5-2,0.7l0.1,0.9c1.2-0.2,2.4-0.3,3.7-0.5c0.1,0,0.4,0,0.5,0c0.2,0,0.3,0,0.5,0.2c0.3,0.3,0.6,0.4,0.9,0.5
			C96.4,47.5,96.4,47.5,96.5,47.7z"/>
		<path d="M127.7,59.9c-2.4,0-0.8-1.5-0.9-2.6l0-0.2l1.5-0.2l0.1-0.8l-6.3-1.4l1.7-1.8c-0.2-0.2-0.5-0.3-0.8-0.6
			c0.5-0.5,1.1-0.9,1.9-1.3l-1.4-0.7c0,0,0,0,0-0.2c0-0.6,0.1-1.1,0.2-1.5c0.5-0.5,0.8-1,1.3-1.5c0.3,0,0.4,0,0.5,0
			c0.3,0.3,0.6,0.5,0.9,1.1c0.4,0.7,0.8,1,1.1,1.3c0.4,0.5,0.9,1.1,1.3,2c0.4,0.8,0.8,1.2,1.1,1.6c0,0-0.1,0-0.1,0.2
			c0.5,0.8,1,1.5,1.5,2.2c0,0,0,0,0,0.2c0.9,1.4,1.8,2.6,2.8,3.8c0.1,0.7,0.1,1.4,0,2.3c-0.9-0.5-1.5-1.2-2.4-2
			c-0.6-2.8-2.9-0.1-3.8-1.5L127.7,59.9L127.7,59.9z"/>
		<path d="M66.9,90.2l0.7-2.6l-0.5,0c0.8-0.8,1.6-1.6,2.7-2.6c0.4-0.1,0.8-0.2,1.2-0.2c0.2,0.1,0.4,0.2,0.6,0.6
			c0.8,0.7,1.6,1.1,2.3,1.5c0.7,0.8,1.5,1.6,2.3,2.7c0.4,0.7,0.8,1.1,1.2,1.5c0.2,0.2,0.3,0.5,0.5,1.1c0.3,0.7,0.6,1,0.9,1.3
			c0.2,0.4,0.5,0.7,0.6,1.5c-0.1,0.7-0.2,1-0.4,1.3l-2.7-0.2c-0.4,0-0.7-0.1-1-0.2c-0.3-0.4-0.7-0.9-0.7-1c1.8-2.3-0.4-2-1.5-2.1
			l0.4-2.4c-1.8,0.1-3.4,0.1-5.1,0.2C67.8,90.2,67.4,90.2,66.9,90.2L66.9,90.2z"/>
		<path d="M59.1,160.2l-1.9,3.3l-0.7-0.3c0,0.5,0.1,1.1,0.1,1.8c-0.3,0.3-0.6,0.5-1,0.5c-1.5-4.9-3.9,0.2-5.3-0.5
			c-1.1-1.7-2-3.2-3.1-4.9c0.2-0.4,0.6-0.7,1.1-1c0.2-0.3,0.4-0.6,0.5-1c0,0,0.3,0,0.5,0c0.4,0,0.5,0,0.6,0c0.6,0,1.2,0.1,2.1,0.3
			c0.6,0.7,0.9,1.2,1.2,1.7l1.7-1.1c0.6,0.2,1.2,0.6,1.9,0.7c0.7,0.1,1.5,0.1,2.4,0.2L59.1,160.2L59.1,160.2z M50.4,161.7l0-0.6
			c-0.1,0.2-0.2,0.5-0.4,0.7C50,161.8,50.1,161.8,50.4,161.7z M50.9,162.7l0.3,0.1C51.2,162.7,51.1,162.6,50.9,162.7z"/>
		<path d="M98.6,19c-1.5,1.9-3.2,1.4-4.7,0.7c0-1.7-0.4-3.4,0-4.8c0.5-1.6,1.6-2.9,2.5-4.6c1.9,2.2,3.9,4.6,5.9,7.2
			C101.2,18,99.9,18.4,98.6,19L98.6,19z"/>
		<path d="M80.8,46.3l-3.7,4.3c0.8,0.5,1.6,1,2.6,1.8c0.5,0.9,0.8,1.5,1.1,2.3c0,0.6-0.1,1-0.1,1.5c0,0-0.3,0-0.6-0.1
			c-0.9-0.2-1.9-0.4-2.8-0.6l-0.2,0.8l3,0.4c-0.5,0.3-1,0.6-1.5,0.8c-0.6,0.3-1.3,0.6-2.1,1c-0.4,0.1-0.7,0.1-0.9,0
			c-0.4-0.4-0.8-0.8-1.1-1.6c0.1-0.7,0.1-1,0.3-1.4c0.1-0.4,0-0.7,0-1.2c0.3-1.2,0.5-2.2,0.7-3.3c0.7-1.7,1.4-3.4,2.5-5.2
			C79.2,46.1,80,46.2,80.8,46.3L80.8,46.3z"/>
		<path d="M142.2,138.8c-1.4,0.1-2.8-0.1-4.4-0.2c-0.2,0-0.2,0-0.2-0.1c-0.1-0.3-0.3-0.4-0.5-0.5c0,0,0,0,0-0.1
			c-0.1-0.3-0.3-0.4-0.6-0.5c-2.2-0.9-0.9,1.3-1.6,1.6l-1.4,2c0.2-1.2,0.2-1.7,0.4-2.5c0-0.2,0-0.2-0.1-0.2
			c-0.3-0.6-0.6-1.3-0.9-2.1c0-0.2,0-0.2,0-0.2l4.6-1l-1.3-1.7c0.5-0.2,0.9-0.4,1.5-0.7c0-0.2,0-0.1-0.1-0.1l-0.9-0.6l2-1.8
			c0.4,1.8,0.8,3.6,1.2,5.3c0.1,0.5,0.5,0.8,1,1.4c0.5,0.5,0.9,0.8,1.2,1C142.2,138.1,142.2,138.3,142.2,138.8L142.2,138.8z"/>
		<path d="M76.4,95.9c0.8,0.1,1.6,0.1,2.7,0.3c0.6,1.2,0.9,2.3,1.2,3.3c-0.2,0.6-0.3,1.2-0.7,1.9c-0.4,0.1-0.6,0.2-0.9,0.1
			c-0.5-0.6-0.9-1.2-1.3-1.9l-1.1,1.9l-0.5-0.1L75.5,98l2.4,0C77.9,98,76.4,95.9,76.4,95.9z"/>
		<path d="M141.9,124.8c-1.1-2.4-2.2-4.9-2-7.8c0.1-1,0-2-0.1-3.4c-0.2-1.7-0.3-3.1-0.3-4.5c0.1-0.1,0.3-0.1,0.3-0.1
			C140.5,114.3,141.2,119.4,141.9,124.8z"/>
		<path d="M74.8,125.4c0.1,1,0.1,1.9,0.2,3c0,0.2,0,0.2-0.2,0.2c-0.9-0.1-1.7-0.1-2.6-0.2c0,0,0,0,0,0c0.2-1.8,0.1-3.3-2.3-3.1
			c0,0-0.2-0.8-0.2-1.4c0.1-0.2,0.1-0.2,0.2-0.2c0.1-0.4,0-0.7,0-1.2c0-0.3,0-0.4,0-0.4c0,0,0,0,0.2,0c0.6,0,1,0.1,1.4,0.3
			c0.9,0.9,1.8,1.6,2.7,2.3C74.4,124.9,74.6,125.1,74.8,125.4z M73.3,126l0.3,0.1C73.6,126,73.5,126,73.3,126z"/>
		<path d="M78.2,31l1.2-3.6L78,26.3l0.3-0.6l3.8,1c-0.1,0.7-0.1,1.3,0,2c0.2,0.3,0.2,0.4,0.2,0.5c-0.8,0.7-1.6,1.3-2.8,1.9
			C78.8,31,78.5,31,78.2,31z"/>
		<path d="M112.4,100.8c-0.4-1.6-0.9-3.4,1-4.9c0.7-0.5,1-1.5,1.6-2.4c0.8-1.4,1.6-2.5,2.5-3.8c-0.5,1.6-1.2,3.2-2,4.8
			C114.5,96.6,113.4,98.6,112.4,100.8L112.4,100.8z"/>
		<path d="M136.9,157.6c0-0.5,0.2-0.9,0.3-1.4c1.2,1.1,2.3,2.2,2.8-0.3c0-0.2,0.6-0.2,1.1-0.3c0,1.9-0.2,3.8-0.6,5.7
			C139.3,160.2,138.2,158.9,136.9,157.6z"/>
		<path d="M92.7,45.4c-0.7-2-2.1-1.1-3.5-0.8c2.6-2.8,5.6-1.9,7.1,2.6c-0.3,0.1-0.6-0.1-1-0.4c-0.3-0.2-0.5-0.1-0.6-0.1
			c0,0-0.2,0-0.4-0.2C93.8,46.1,93.2,45.7,92.7,45.4z"/>
		<path d="M118.1,40.8c-2,1.3-2.9-0.2-3.9-1.7c1.4-0.4,2.7-0.7,4.4-0.9c0.7,0.4,1.2,0.7,1.6,0.9c0.2,0,0.3,0.1,0.3,0.5
			c-0.1,0.4-0.1,0.6-0.3,0.8C119.3,40.6,118.7,40.7,118.1,40.8z M139.1,93.4c-1.4-1.1-2.7-2.4-4.1-3.7l0.2-0.8c1.3,0,2.6,0,4,0.2
			c0.1,1.1,0.2,2,0.3,2.8C139.4,92.4,139.3,92.8,139.1,93.4z"/>
		<path d="M67.4,119.2l0.3-3.2c1.6,0.3,3,0.5,4.6,1c-0.1,0.6-0.3,0.9-0.6,1.3c0,0-0.2,0.1-0.5,0.1c-0.6,0.4-0.9,0.7-1.4,1.1
			L67.4,119.2L67.4,119.2z"/>
		<path d="M93.1,61.5c-0.8-1.3-1.4-2.6-2-4c1.4-0.5,2.5-0.8,3.8-1c0.2,0.5,0.3,0.9,0.3,1.2c-0.1,0.2-0.1,0.3-0.5,0.6
			c-0.4,0.4-0.4,0.7-0.5,1.1C93.9,60.1,93.6,60.7,93.1,61.5z"/>
		<path d="M137.1,110.7c0-0.4,0.1-0.8,0.3-1.5c0.1-1,0-1.8-0.1-2.6l-1.1-0.1c0.8-0.8,1.7-1.6,2.7-2.3c0.4,0,0.6,0.1,0.8,0.1
			c0,0.2,0.1,0.5-0.1,0.9c-0.1,0.6,0,0.9,0.1,1.3c0.1,0.7,0.1,1.5,0.1,2.4c-0.1,0.2-0.3,0.2-0.5,0.4c-0.5,0.6-0.8,1-1.3,1.5
			C137.5,110.7,137.3,110.7,137.1,110.7L137.1,110.7z"/>
		<path d="M142.2,137.6c-0.4,0-0.7-0.3-1-0.8c0.1-3,0.2-5.9,0.5-8.9C141.9,131,142.1,134.2,142.2,137.6L142.2,137.6z"/>
		<path d="M123.5,163c0.3-1.3,0.5-2.6,0.8-4.2c0-0.5,0-0.6,0-0.7c-0.1-1.2-0.1-2.4-0.1-3.8c1.3,2.7,1.5,5.6-0.1,8.7
			C123.8,163.1,123.6,163,123.5,163z"/>
		<path d="M67.2,119.2c0.9,0,1.8,0.1,2.7,0.3c0.6,0.6,0.9,1.1,1.3,1.5c0.1,0.1,0.2,0.3,0.4,0.7c0,0.2,0,0.3,0,0.5
			c-0.4,0-0.8-0.1-1.4-0.2c-0.3-0.1-0.3-0.2-0.3-0.2l0.2,0.2c0,0.1,0,0.2,0,0.6c0,0.6-0.1,0.8-0.1,1l0,0c-0.4-0.6-1.3-1.3-1.2-1.9
			c0.2-1.4-0.7-1.4-1.7-1.6C66.8,119.9,67,119.6,67.2,119.2L67.2,119.2z"/>
		<path d="M71.9,118.3c0-0.4,0.3-0.8,0.5-1.3c1.2-1.4,2.4-2.7,3.8-3.9C76.5,115.2,74.5,117.7,71.9,118.3z"/>
		<path d="M125.5,46.7c-0.1,0.2-0.2,0.2-0.7,0.2c-1-0.3-1.5-0.5-2.1-0.7c0,0,0,0,0-0.2c-0.3-1-0.5-1.8-0.8-2.6
			c-0.2-0.6-0.4-1.1-0.5-1.8c0.1-0.1,0.3-0.2,0.3-0.2C122.9,43.1,124.2,44.8,125.5,46.7z"/>
		<path d="M122.2,82.9c0.3-1.9-0.4-4.6,3.2-4.3C124.5,80,123.4,81.5,122.2,82.9L122.2,82.9z"/>
		<path d="M127,137.1c-2.3,0-4.6-0.2-7.1-0.5c1.7-0.4,3.7-0.8,5.7-0.9C126.1,135.6,126.6,136.5,127,137.1z"/>
		<path d="M140.2,80.2c-0.7,0-1.4-0.1-1.3-0.1c-0.8-1.5-1.3-2.5-2.1-3.6c0.8-1.3,1.6-1.5,2.3,0.3c0.2,0.5,0.7,1,1.1,1.8
			c0.2,0.6,0.2,0.9,0.3,1.2C140.4,80,140.3,80.1,140.2,80.2L140.2,80.2z"/>
		<path d="M78.8,101.7c0.2,0,0.3,0,0.6,0c-0.1,2.2-0.4,4.5-0.9,6.6c-0.2-0.4-0.2-0.8-0.1-1.2c0.1-0.8,0.1-1.4,0.2-2.2
			C78.8,103.8,78.8,102.7,78.8,101.7z M43.1,141.4c0.3,2.4,0.5,4.8,0.6,7.2C43.4,146.4,43.2,144,43.1,141.4z M74.6,55.7
			c0,0.3-0.1,0.6-0.2,1.1c-0.8-1.8-1.1-3.8,0.8-5.6c0,1-0.2,2-0.5,3.4C74.6,55.2,74.6,55.5,74.6,55.7z"/>
		<path d="M139.8,92c-0.3-0.9-0.4-1.8-0.3-2.8c0.4-0.2,0.6-0.3,1-0.5C140.4,89.8,140.2,90.9,139.8,92z"/>
		<path d="M110.7,27.5c-0.3-0.5-0.7-1-1-1.7c2.5,0.3,2.7,2.5,3.4,4.4c-0.2,0.1-0.4-0.1-1-0.3C111.5,29,111.1,28.2,110.7,27.5
			L110.7,27.5z"/>
		<path d="M130.7,114.1c-0.2,1.4-0.5,2.8-0.9,4.3c0-2,0.3-4.1,0.7-6.1C130.7,113,130.7,113.6,130.7,114.1z M84.7,27.9
			c0.1-0.6,0.3-1.1,0.6-1.9c0.3-0.7,0.5-1.2,0.7-1.6c0.5,0.1,1,0.3,1.5,0.6C86.7,26,85.8,27,84.7,27.9L84.7,27.9z"/>
		<path d="M66.9,82.6c-2-0.3-4-0.8-6-1.4C62.8,81.5,64.8,82,66.9,82.6z"/>
		<path d="M81.1,46.3c-1-0.1-2-0.2-3-0.4c1.5,0,3.3,0,5.3,0.2C82.8,46.2,82.1,46.2,81.1,46.3z M95.4,57.7c-0.2-0.2-0.2-0.6-0.3-1.2
			c0.3-1,0.5-1.8,1-2.7c0.5-0.2,0.8-0.2,1-0.2C96.6,54.9,96.1,56.2,95.4,57.7z"/>
		<path d="M59.6,80.6c-1.4,0.1-3,0.1-4.7-0.1C56.4,80.4,58,80.5,59.6,80.6z M51.6,82.1c-0.2,0.3-0.5,1-1,1.2
			c-0.8,0.4-1.8,0.6-2.8,0.9C48.8,83.6,50.1,82.9,51.6,82.1L51.6,82.1z"/>
		<path d="M96.6,154.7c-1,0.1-2.1,0-3.1-0.1l-0.1-0.5c0.7-0.3,1.5-0.6,2.4-1C96.1,153.6,96.3,154.1,96.6,154.7z"/>
		<path d="M130.9,114.1c-0.2-0.5-0.2-1.1-0.2-1.9c-0.1-0.3-0.1-0.3,0.1-0.3c0.3,0,0.5,0,0.6,0c0.8,0.3,1.6,0.5,2.6,0.8
			C133.1,113.2,132.1,113.6,130.9,114.1z"/>
		<path d="M80.3,99.4c-0.3-0.8-0.6-1.9-1-3.1c-0.1-0.4-0.1-0.8,0.1-1.3C79.8,96.3,80.1,97.7,80.3,99.4L80.3,99.4z M118.3,36.7
			c-0.9-0.8-1.7-1.8-2.6-2.9C116.6,34.6,117.5,35.5,118.3,36.7z M77.7,60.6c1.3,0.5,2.7,1.2,4.1,2.1C80.5,62.1,79.1,61.4,77.7,60.6z
			 M134.1,59c-1-1.1-1.9-2.3-2.7-3.6C132.3,56.4,133.2,57.6,134.1,59z"/>
		<path d="M71.5,122.4c0-0.2,0-0.4,0.1-0.6c0.9,0.8,1.8,1.7,2.6,2.6C73.3,124,72.4,123.3,71.5,122.4z"/>
		<path d="M122.6,146.3c0.2-0.3,0.3-0.7,0.7-1c0.6,0.5,1.1,1,1.6,1.6c-0.6,0.1-1.2,0-2-0.2C122.7,146.6,122.6,146.5,122.6,146.3z"/>
		<path d="M130.6,142.1c0.2,1,0.2,2.2,0.1,3.5C130.5,144.6,130.5,143.4,130.6,142.1z"/>
		<path d="M70.9,84.6c-0.2,0.2-0.5,0.2-1.1,0.2c-1.1-0.6-2-1.1-2.8-1.8C68.3,83.3,69.5,83.9,70.9,84.6z M126.9,64.5
			c1.1-0.4,2.4-0.7,3.9-0.9C129.7,64,128.4,64.3,126.9,64.5z"/>
		<path d="M129.2,105.8c1.4,0.5,1.8,1.3,0.1,2.1C129.1,107.2,129.1,106.6,129.2,105.8L129.2,105.8z"/>
		<path d="M113.3,84.9c-0.1,1.1-0.5,2.3-0.9,3.6C112.5,87.5,112.8,86.2,113.3,84.9z"/>
		<path d="M133,98.7l-2.6-0.2c-0.3-0.3-0.3-0.5-0.2-1c1.1,0.1,2.2,0.5,3.2,1C133.3,98.7,133,98.7,133,98.7z M129.8,99.7
			c1.5,0.5,1.7,1.2,0.1,2.1C129.8,101.2,129.8,100.5,129.8,99.7z"/>
		<path d="M139.7,104.1c-0.3,0.2-0.5,0.2-0.8-0.1c-0.1-0.7-0.1-1.1-0.1-1.5c0.2-0.3,0.4-0.7,0.7-1
			C139.7,102.2,139.7,103,139.7,104.1L139.7,104.1z"/>
		<path d="M124.6,150.2c-0.1-0.7-0.2-1.4,0-2C124.7,148.8,124.7,149.4,124.6,150.2z M124.4,142.4c-0.1-0.7-0.1-1.7,0.1-2.6
			C124.6,140.6,124.5,141.4,124.4,142.4z"/>
		<path d="M83.6,64.5c0.9,0.2,1.9,0.6,2.9,1.2C85.6,65.5,84.7,65.1,83.6,64.5z"/>
		<path d="M41.3,126.2c0.3,0.7,0.5,1.5,0.5,2.5C41.6,128,41.4,127.2,41.3,126.2z"/>
		<path d="M71.2,120.8c-0.4-0.2-0.7-0.7-1.1-1.3c0.3-0.5,0.6-0.9,1.1-1.2C71.3,119.1,71.2,119.9,71.2,120.8z M76.7,112.9
			c-0.1-0.4,0-0.7,0.3-1.2c0.3-0.4,0.4-0.5,0.5-0.6C78.9,112.2,78.1,112.7,76.7,112.9L76.7,112.9z"/>
		<path d="M95.3,149c-0.2-0.5-0.3-1.2-0.3-2C95.2,147.6,95.3,148.2,95.3,149z"/>
		<path d="M129.6,87.5c0.2,0.5,0.4,1.1,0.5,1.9C129.8,88.9,129.7,88.3,129.6,87.5z"/>
		<path d="M131.4,55c-0.5-0.5-1-1.2-1.4-2C130.4,53.4,130.9,54.1,131.4,55z M73.9,86.6c-0.7-0.2-1.4-0.6-2.2-1.2
			C72.4,85.6,73.1,86,73.9,86.6z M97.4,142c0.2-0.7,0.5-1.3,0.9-1.9C98.2,140.8,97.9,141.4,97.4,142z M39.9,97.1
			c0.3,0.6,0.5,1.3,0.6,2.2C40.2,98.8,40,98,39.9,97.1z"/>
		<path d="M105,22.5c0.1-0.6,0.1-1.3,0.2-2.1c0.3-0.1,0.6,0.1,1,0.5c0,0.4,0,0.6-0.1,1.1c-0.3,0.3-0.4,0.5-0.5,0.6c0,0,0,0-0.1,0
			C105.3,22.5,105,22.5,105,22.5z"/>
		<path d="M78.1,31.1c0.4-0.1,0.7-0.1,1.2,0c-0.3,0.6-0.8,1.1-1.6,1.7C77.7,32.3,77.9,31.8,78.1,31.1z"/>
		<path d="M78.3,107.2c0,0.3,0,0.6,0,1.2c-0.1,0.5-0.3,0.8-0.5,1.1c-0.2-0.7-0.3-1.5-0.1-2.2C77.9,107.2,78.1,107.2,78.3,107.2z"/>
		<path d="M53.6,80.5c-0.3,0.5-0.8,0.9-1.5,1.3C52.4,81.3,52.9,80.9,53.6,80.5z"/>
		<path d="M88.4,24.6c-0.2-0.2-0.2-0.5-0.1-1.1c0.3-0.5,0.4-0.6,0.6-0.7l1,0.2c0.2,0,0.1,0.3,0.1,0.4C89.5,23.8,89,24.2,88.4,24.6
			L88.4,24.6z"/>
		<path d="M108.4,96c-0.1,0.5-0.3,1.1-0.7,1.8C107.8,97.3,108,96.7,108.4,96z"/>
		<path d="M120.4,40.3c0-0.1,0-0.3,0.1-0.6c0.4,0.3,0.7,0.8,1.1,1.4c0,0.2-0.2,0.3-0.4,0.3C120.7,41.1,120.5,40.7,120.4,40.3z
			 M123.6,64.4c0.3-0.2,0.9-0.3,1.5-0.3C124.7,64.3,124.3,64.4,123.6,64.4z"/>
		<path d="M140.3,86.9c-0.2-0.4-0.4-0.9-0.5-1.6C140.1,85.6,140.3,86.2,140.3,86.9z"/>
		<path d="M43.4,149.3c0.2,0.5,0.2,1.1,0.1,2C43.4,150.9,43.3,150.1,43.4,149.3z"/>
		<path d="M131.4,111.7c-0.1,0.2-0.3,0.2-0.6,0.1c-0.2-0.6-0.2-1.3-0.2-2.1C130.9,110.3,131.1,110.9,131.4,111.7z"/>
		<path d="M96,144.6c-0.1-0.4-0.1-0.9,0.1-1.5C96.2,143.5,96.2,144,96,144.6z"/>
		<path d="M129.9,93c0.2,0.4,0.4,1,0.5,1.7C130.1,94.4,130,93.8,129.9,93z"/>
		<path d="M118.2,149.5c0.2,0.4,0.4,1,0.5,1.8C118.4,150.9,118.3,150.3,118.2,149.5z"/>
		<path d="M92.3,155.8c0.4,0.2,0.8,0.6,1,1C92.8,156.6,92.5,156.3,92.3,155.8z"/>
		<path d="M110.3,105.1c0.1-0.4,0.3-0.9,0.7-1.5C110.9,104.1,110.7,104.6,110.3,105.1z"/>
		<path d="M139.7,106.4c-0.2-0.3-0.3-0.7-0.2-1C139.7,105.7,139.8,106,139.7,106.4z"/>
		<path d="M88.4,66c0.3-0.3,0.7-0.5,1.2-0.7C89.4,65.5,89,65.7,88.4,66L88.4,66z"/>
		<path d="M120.1,38.9c-0.4-0.1-0.9-0.3-1.4-0.7c-0.1-0.2,0-0.4,0-0.6C119.3,37.9,119.7,38.3,120.1,38.9z M130,52.6
			c-0.4-0.2-0.8-0.6-1.1-1.2C129.3,51.6,129.6,52,130,52.6z M45.3,86.9c0,0.5-0.3,1-0.6,1.5C44.7,88,44.9,87.5,45.3,86.9z
			 M77.4,90.8c-0.3-0.2-0.7-0.6-1.1-1.2C76.7,89.8,77,90.2,77.4,90.8z"/>
		<path d="M92,26.1c0.5,0.1,1,0.3,1.5,0.7C93,26.8,92.5,26.5,92,26.1z"/>
		<path d="M115.5,33.1c-0.4-0.2-0.8-0.5-1.1-1C114.9,32.3,115.2,32.6,115.5,33.1L115.5,33.1z"/>
		<path d="M140.1,85c-0.4,0-0.8-0.1-1.2-0.2c0.2-0.3,0.6-0.5,0.9-0.6c0.3,0,0.6,0,0.6,0C140.3,84.5,140.3,84.7,140.1,85z
			 M118.5,153.4c0.2-0.1,0.3-0.1,0.5-0.1l0.2,0c-0.1,0.5-0.1,1-0.2,1.8C118.8,154.7,118.6,154.1,118.5,153.4z"/>
		<path d="M77.5,110.9c-0.1,0.3-0.2,0.4-0.5,0.6c-0.1-0.3,0-0.7,0.2-1.1C77.4,110.5,77.4,110.6,77.5,110.9z"/>
		<path d="M94.3,59.3c0-0.2,0-0.6,0.3-0.9C94.6,58.7,94.5,59,94.3,59.3z M72.5,156.5c0.1-0.4,0.3-0.8,0.7-1.2
			C73.1,155.6,72.9,156,72.5,156.5z M97.4,50.2c-0.2-0.2-0.4-0.6-0.5-1.1C97.1,49.2,97.3,49.6,97.4,50.2z"/>
		<path d="M130,149.8c0.2,0.3,0.2,0.6,0.2,0.9C130,150.5,130,150.1,130,149.8z"/>
		<path d="M75.3,35.9c0-0.4,0.3-0.8,0.7-1.2C75.9,35.1,75.7,35.5,75.3,35.9z M116.3,142.7c0.2-0.2,0.6-0.4,1.2-0.5
			C117.3,142.4,116.9,142.5,116.3,142.7z M129.5,121.9c0.2,0.3,0.3,0.7,0.3,1.2C129.6,122.9,129.5,122.4,129.5,121.9z"/>
		<path d="M141.8,144.4c-0.2-0.2-0.3-0.5-0.3-1C141.7,143.7,141.8,144,141.8,144.4z"/>
		<path d="M103.1,157.7c0.2,0.3,0.2,0.5,0.1,0.8c-0.4,0-0.7-0.2-1-0.4C102.5,157.9,102.7,157.8,103.1,157.7L103.1,157.7z"/>
		<path d="M120.3,141.9c0.2-0.1,0.6-0.1,1,0.1C121,142.1,120.7,142,120.3,141.9z"/>
		<path d="M124.4,152.5c-0.2-0.2-0.2-0.6-0.2-1C124.4,151.8,124.5,152.1,124.4,152.5z"/>
		<path d="M141.4,151.5c-0.1-0.2-0.1-0.6,0-0.9C141.5,150.8,141.5,151.1,141.4,151.5z"/>
		<path d="M98.7,138.7c0-0.3,0-0.6,0.2-1C99,138,98.9,138.3,98.7,138.7z"/>
		<path d="M82.4,29.1c-0.2-0.1-0.2-0.2-0.2-0.4c0.3-0.3,0.7-0.5,1.2-0.6C83.3,28.4,83,28.8,82.4,29.1z"/>
		<path d="M114.6,82.7c0,0.3-0.1,0.7-0.5,1.1C114.1,83.5,114.3,83.1,114.6,82.7z M106.2,101.2c0.1,0.3,0,0.6-0.1,1
			C105.9,101.9,106,101.5,106.2,101.2z"/>
		<path d="M140.6,79.9c-0.2-0.3-0.2-0.5-0.3-1.1C140.5,79,140.6,79.4,140.6,79.9z"/>
		<path d="M125.8,78.6c0.2-0.1,0.5-0.3,0.9-0.3C126.5,78.5,126.3,78.6,125.8,78.6z"/>
		<path d="M141.9,148.2c-0.2-0.2-0.3-0.6-0.2-0.9C141.8,147.5,141.9,147.8,141.9,148.2z"/>
		<path d="M91.3,64.2c0-0.3,0.2-0.6,0.5-1C91.8,63.5,91.6,63.9,91.3,64.2z M104.9,104c0,0.4-0.1,0.8-0.4,1.4
			C104.4,104.9,104.6,104.5,104.9,104z"/>
		<path d="M121.8,165.1c0.2-0.3,0.5-0.6,1.1-0.8C122.7,164.6,122.3,164.9,121.8,165.1z"/>
		<path d="M140.5,84.2c-0.1,0.1-0.4,0.1-0.5,0c-0.1-0.3,0-0.6,0.2-1C140.4,83.4,140.5,83.8,140.5,84.2z"/>
		<path d="M42.2,91.2c-0.2,0.3-0.5,0.6-1.1,0.8C41.3,91.6,41.6,91.4,42.2,91.2z M75.5,58.7c0.2-0.1,0.4-0.1,0.8,0
			c0.2,0.2,0.2,0.4,0.2,0.7C76.2,59.3,75.9,59.1,75.5,58.7z"/>
		<path d="M130.1,90.8c0.1,0.2,0.1,0.6,0,1C130,91.6,130,91.3,130.1,90.8L130.1,90.8z"/>
		<path d="M46.4,85.1c0,0.4-0.1,0.7-0.5,1.2C46,85.9,46.1,85.6,46.4,85.1z M127.5,49.1c-0.4-0.1-0.7-0.4-1.1-0.9
			C126.8,48.2,127.2,48.6,127.5,49.1L127.5,49.1z"/>
		<path d="M111.6,91.2c0,0.4-0.2,0.8-0.5,1.3C111,92.1,111.2,91.7,111.6,91.2z M109.2,107.1c0-0.3,0.1-0.8,0.4-1.2
			C109.7,106.2,109.5,106.6,109.2,107.1z"/>
		<path d="M119.5,165.6c0.3-0.2,0.6-0.3,1.1-0.3C120.4,165.5,120,165.6,119.5,165.6z M78.7,93.2c-0.3-0.2-0.6-0.5-0.8-1
			C78.2,92.3,78.5,92.7,78.7,93.2z M42.8,138.5c0.2,0.2,0.3,0.5,0.4,1C42.9,139.2,42.8,138.9,42.8,138.5z"/>
		<path d="M97.2,53.4c-0.3,0.1-0.6,0.1-1.1,0.1c0.1-0.2,0.4-0.3,0.8-0.5C97.2,53.1,97.2,53.2,97.2,53.4z"/>
		<path d="M123.6,163.1c0.1-0.1,0.2-0.1,0.5,0c0.2,0.1,0.2,0.2,0.1,0.4C123.9,163.6,123.8,163.4,123.6,163.1z"/>
		<path d="M71.2,101.2c-1.8-2.2-3.6-4.3-5.4-6.4c-0.3-0.4-0.8-0.7-1.3-1.2c0.6-1.2,1.3-2.2,2.2-3.3c0.6,0,1,0,1.7,0.2
			c-0.2,2.3-0.3,4.3,2.9,3.5l0,5.1l0.6,0.3l3.5-3.5l0.9,0.1c0.6,0.6,1,1.3,1.6,2.1l-2.4,0l0.2,3.6l0.5,0.1l1.1-1.9
			c0.5,0.8,0.8,1.3,1.3,1.9c0.2,1.1,0.2,2.1-0.1,3.2c-0.4,0.1-0.5,0.1-0.6,0.1c-0.2-0.4-0.4-0.8-0.5-1.2c-0.7-0.6-1.4-0.9-2.2-1.3
			l-0.9-0.1c0,0,0,0,0-0.2l0.1-1.1c-0.2-0.7-0.3-1.2-0.5-1.7c-0.6,0.6-1.2,1.1-2,1.7C71.6,101.2,71.4,101.2,71.2,101.2L71.2,101.2z"
			/>
		<path d="M61.5,87.5l-1.9-3.4l6.7,1.2l-1.4,4.4c-0.6,0.1-1.4,0.2-2.3,0C62.2,89,61.9,88.2,61.5,87.5L61.5,87.5z"/>
		<path d="M47.6,130.4l-2.8-1.1c0.6-0.8,1.2-1.5,1.6-2.3c0.6-1,1.2-2.1,2.1-2.9c-1.8,1.8,2.3,4.5-0.9,6.2
			C47.6,130.4,47.6,130.4,47.6,130.4L47.6,130.4z"/>
		<path d="M51.2,129.7c0.2,1.6,0.3,3.3,0.3,5.2c-0.8,0.6-1.6,0.9-2.3,1.3C48.1,133.7,49.4,131.7,51.2,129.7L51.2,129.7z"/>
		<path d="M61.5,87.5c0.3,0.6,0.6,1.3,0.9,2.1c-0.2,0.5-0.5,0.9-0.7,1.4c-1.1-0.2-2.1-0.6-3.2-1.3c0.7-0.6,1.4-1,2.4-1.6
			C61.3,87.8,61.4,87.7,61.5,87.5C61.5,87.5,61.5,87.5,61.5,87.5L61.5,87.5z"/>
		<path d="M47.2,134.5c-0.6,0.7-1.3,1.3-2.5,2.3l0.3-4.2C46,133.3,46.6,133.8,47.2,134.5L47.2,134.5z"/>
		<path d="M48.1,159.4c-0.4,0.2-0.7,0.4-1.2,0.8c-1.6,0-1.6,0-1.1-3.2c0.6,0.4,1.1,0.7,1.7,1.2c0.3,0.4,0.4,0.5,0.6,0.7L48.1,159.4z
			"/>
		<path d="M47.5,110.9c0-3.3,1.3-1.7,2.4-1l0.1,0.9C49.2,110.9,48.4,110.9,47.5,110.9z"/>
		<path d="M51.9,100.3c0.2,1.4,0.3,2.9,0.3,4.7C52,103.4,51.9,101.9,51.9,100.3z"/>
		<path d="M51.2,154.7c0.3-0.1,0.6,0.1,1,0.5c0,1,0,1.6,0,2.2l-2.8-0.8C50,156,50.6,155.5,51.2,154.7L51.2,154.7z"/>
		<path d="M52.1,157.6c0.1-0.7,0.1-1.4,0.1-2.2c0.9,0.4,1.8,1,2.8,1.7c0,0.3,0,0.3-0.3,0.5c-0.9,0.1-1.8,0.2-2.7,0.3L52.1,157.6z
			 M51.3,136.5c0.2,1.2,0.3,2.6,0.3,4.1C51.3,139.2,51.2,137.8,51.3,136.5z"/>
		<path d="M52.1,158.1c0.8-0.2,1.6-0.3,2.6-0.3c0.2,0.3,0.1,0.5,0.1,1l0,0.6c0,0,0,0,0,0c-0.6,0.4-1.1,0.7-1.7,1.1
			c-0.3-0.5-0.6-1-1-1.7C52,158.5,52,158.4,52.1,158.1L52.1,158.1z"/>
		<path d="M50.8,143c0.2,1.3,0.2,2.6,0,4.1C50.6,145.9,50.6,144.5,50.8,143z"/>
		<path d="M46.4,114.7c0.8-0.2,1.5-0.2,2.7-0.3C47.3,116.4,47.3,116.4,46.4,114.7z M46.7,96.6c-0.6-0.3-1.1-0.6-2.2-1.4l2.7-0.1
			C47.2,95.6,47,96.1,46.7,96.6z M45.5,93.8c1-0.3,2.1-0.4,3.2-0.5l0,0.7C47.6,94,46.6,94,45.5,93.8z"/>
		<path d="M50.2,151.3c0.3,0.4,0.4,0.8,0.5,1.5c-0.8,0.2-1.5,0.2-2.5,0.3C49,152.4,49.5,151.9,50.2,151.3z"/>
		<path d="M51.4,92.4c0.3,0.7,0.4,1.5,0.5,2.5C51.6,94.3,51.5,93.4,51.4,92.4z M55.8,89.4c-0.6,0.1-1.3,0.1-2.1-0.1
			C54.3,89.2,55,89.2,55.8,89.4z"/>
		<path d="M58.1,85.7c-0.1-0.5,0-1,0.1-1.5l0.8,0.3C58.8,84.9,58.5,85.4,58.1,85.7L58.1,85.7z M45.1,107.9c-0.4,0.3-0.9,0.4-1.4,0.6
			l-0.1-0.5C44.1,107.9,44.6,107.8,45.1,107.9L45.1,107.9z"/>
		<path d="M52,89.5c0.1,0.3,0,0.6-0.2,1C51.7,90.2,51.8,89.9,52,89.5L52,89.5z"/>
		<path d="M45.6,148.8c0.2,0.3,0.2,0.7,0.2,1c-0.2,0-0.4-0.1-0.4-0.1C45.4,149.4,45.4,149.1,45.6,148.8z"/>
		<path d="M51.2,121.8c0.1,0.3,0.1,0.5,0.1,1C51.1,122.5,51.1,122.2,51.2,121.8z"/>
		<path d="M52,96.8c0.2,0.3,0.2,0.5,0.2,1C52,97.6,52,97.2,52,96.8z"/>
		<path d="M45,138.3c-0.2,0-0.3-0.1-0.5-0.2l0.4-0.3C45,137.9,45,138.1,45,138.3z"/>
		<path d="M45.6,152.9c0,0.1-0.1,0.2-0.2,0.3C45.5,153.1,45.5,153,45.6,152.9z M61.4,87.5c0.1,0.2-0.1,0.3-0.3,0.5
			C61,87.9,61.1,87.7,61.4,87.5L61.4,87.5z"/>
		<path d="M48.2,138.6c-0.1,0-0.2-0.1-0.3-0.2C48,138.5,48.1,138.5,48.2,138.6z"/>
		<path d="M48.2,159.3c-0.1,0-0.1-0.1-0.1-0.5c0-0.2,0-0.4,0-0.5l0.4,0C48.6,158.6,48.5,158.9,48.2,159.3L48.2,159.3z"/>
		<path d="M47.2,152.4C47.2,152.4,47.2,152.3,47.2,152.4z M48,158.3c0.1,0,0.1,0.3,0.1,0.4c-0.2,0.1-0.3,0-0.4-0.3
			C47.6,158.2,47.9,158.3,48,158.3z"/>
		<path d="M49.8,158.3c-0.1,0.1-0.1,0.1-0.4,0.1C49.4,158.3,49.6,158.3,49.8,158.3z"/>
		<path d="M48.1,148.6C48.1,148.5,48.1,148.6,48.1,148.6z M46.5,147.8C46.4,147.8,46.5,147.8,46.5,147.8z M47.4,104.8
			C47.4,104.8,47.4,104.8,47.4,104.8L47.4,104.8z M47.4,104.8L47.4,104.8L47.4,104.8z M47.5,106.7C47.5,106.7,47.5,106.8,47.5,106.7
			z M46,111C46,111.1,46,111,46,111z"/>
		<path d="M49,112.7L49,112.7C49,112.7,49,112.7,49,112.7z"/>
		<path d="M46.1,113l-0.2-0.2C46,112.8,46.1,112.9,46.1,113L46.1,113z"/>
		<path d="M49,112.7C48.9,112.7,48.9,112.7,49,112.7C49,112.7,49,112.7,49,112.7z M50.3,113.1C50.4,113.1,50.3,113.1,50.3,113.1z"/>
		<path d="M46.1,113l0.2,0.3C46.3,113.2,46.2,113.2,46.1,113L46.1,113z"/>
		<path d="M50.2,114.7C50.2,114.7,50.2,114.8,50.2,114.7z"/>
		<path d="M47.6,130.4l0.2,0.2C47.7,130.6,47.7,130.6,47.6,130.4C47.6,130.4,47.6,130.4,47.6,130.4z"/>
		<path d="M117.9,49.7l-2.9-3c0.3-2.1,2-1.5,3.6-1.3c0.4,0.8,0.5,1.3,0.5,1.5c1.3,0.3,2.3,0.6,3.4,1.1c0,0.6-0.1,1-0.2,1.5
			c0,0,0,0,0.2,0c0.4,0.2,0.7,0.4,0.9,0.6c0,0,0,0-0.1,0.1C121.4,50.1,119.7,49.9,117.9,49.7z"/>
		<path d="M110.7,27.6c0.4,0.6,0.8,1.3,1.4,2.2c-0.3,1.7-0.2,4-3.1,2.7c-0.5-0.2-1.4,0.6-2.5,1.2c0.1-1.3,0.2-2.4,0.4-3.7
			c1.1-0.7,2.2-1.1,3.2-1.5C110.3,28.2,110.5,28,110.7,27.6z"/>
		<path d="M122.5,47.8l-3.4-0.9c0-0.1-0.1-0.7-0.2-1.5c0.2-0.1,0.4-0.1,0.9,0c0.7-0.1,1.1-0.4,1.5-0.7l-0.2-0.4l-1.2,0.3
			c-0.4-0.6-0.7-1.2-1.3-1.9c-0.3-0.5-0.5-0.7-0.7-1c0-0.2,0-0.5,0.1-0.9c0.7-0.3,1.3-0.4,2.1-0.5c0.4,0.3,0.6,0.7,0.9,1.2
			c0.4,0.6,0.6,1.2,0.8,1.8c0.3,0.8,0.6,1.6,0.8,2.6c-0.1,0.2-0.1,0.4-0.1,0.4l0.2-0.2c0.6,0.2,1.2,0.4,2,0.7
			c-0.1,0.6-0.5,1.1-0.9,1.5c-0.2-0.2-0.4-0.4-0.6-0.6C122.8,47.7,122.7,47.7,122.5,47.8C122.5,47.8,122.5,47.8,122.5,47.8
			L122.5,47.8z"/>
		<path d="M117.9,49.9c1.7,0,3.5,0.3,5.4,0.4c0.6,0.1,1,0.3,1.6,0.6c-0.8,0.5-1.4,0.8-2.1,1.3c-0.2,0.1-0.3,0.1-0.6,0
			c-0.5-0.1-0.8,0-1.2,0c-0.3,0.3-0.6,0.6-1.1,1l-0.2,0.1C119.2,52.1,118.6,51.1,117.9,49.9z"/>
		<path d="M105.7,28.1l-0.9,3.2c-0.2,0.5-0.4,0.6-0.5,0.6c-1.3-0.4-3.2-0.2-2.4-2.8c0.6-0.2,1-0.1,1.6-0.1c0.6-0.3,1.1-0.6,1.7-1
			C105.5,28.1,105.6,28.1,105.7,28.1z"/>
		<path d="M103.4,29c-0.4,0-0.8-0.1-1.4-0.1c-1.7-0.1-2.2-0.7-1.1-2.3c1.3-0.4,2.4-0.7,3.4-0.7C103.9,27,103.7,28,103.4,29z
			 M98.5,23c0.2-0.8,0.5-1.6,1-2.5c1.1,0.7,2.1,1.4,3.1,2.2l-0.2,0.6C101.1,23.1,99.9,23,98.5,23z"/>
		<path d="M127.8,59.9c0-0.6,0.1-1.3,0.2-1.9c0.9,1.4,3.2-1.3,3.6,1.5c0,0.2-0.3,0.2-0.4,0.1c-0.2,0-0.5,0-0.7,0.1
			c-0.1,0.2-0.2,0.3-0.7,0.4c-0.7,0-1.1,0-1.6,0C128.3,59.9,127.8,59.9,127.8,59.9z"/>
		<path d="M105.8,27.9c-0.2,0.1-0.3,0.1-0.5-0.1c-0.1-0.8,0-1.4,0-2.2c-0.2-0.4-0.3-0.7-0.4-1c0,0,0,0,0.1-0.1c0.6,0,1,0.1,1.5,0.2
			C107,25.9,108.1,27.2,105.8,27.9z"/>
		<path d="M104.7,24.7c0.3,0.3,0.4,0.6,0.4,1c-0.4,0.1-0.6,0.1-0.9,0.1c-1,0.2-2.1,0.5-3.2,0.8c-0.1-0.2-0.1-0.4-0.1-1
			c0-0.4,0-0.5,0-0.6c0.4,0,0.8,0.1,1.5,0.2c0.4,0.1,0.6,0,0.7,0C103.6,25,104.1,24.8,104.7,24.7L104.7,24.7z M109.9,28.4
			c-0.8,0.4-1.9,0.9-3.1,1.4C106.7,28.2,106.7,28.2,109.9,28.4z"/>
		<path d="M93,22.1c0.3-0.4,0.8-0.9,1.3-1.3l1.1,1.4c-0.4,0.2-0.9,0.4-1.3,0.5C93.6,22.5,93.4,22.3,93,22.1z"/>
		<path d="M106.6,24.7c-0.6,0-1-0.1-1.6-0.1c-0.1-0.5-0.1-1.1,0-2c0-0.2,0.3-0.2,0.5-0.1c0.3,0.3,0.4,0.4,0.6,0.5
			C106.3,23.6,106.6,24.1,106.6,24.7z"/>
		<path d="M93.9,24c0.9-0.1,1.8,0,3,0.1C96.1,26.1,95,25.3,93.9,24z"/>
		<path d="M111.1,36.9c-0.3,0.2-0.5,0.3-1.1,0.4c-0.4,0-0.5,0-0.6,0c0-0.4,0.1-0.8,0.3-1.4c0.3-0.2,0.3-0.2,0.4-0.2
			c0.3,0.1,0.6,0.2,1,0.6C111.1,36.7,111.1,36.8,111.1,36.9z"/>
		<path d="M115.3,54.5l1.5,0.8l-0.6,0.7c-0.3-0.4-0.6-0.8-0.9-1.3C115.3,54.6,115.3,54.5,115.3,54.5z"/>
		<path d="M107.3,39.2c-0.4,0.3-0.7,0.5-1,0.7l0-1.4C106.7,38.6,107,38.8,107.3,39.2z"/>
		<path d="M127,62.6c-0.4-0.4-0.7-0.8-1.1-1.3l0.7-0.3C126.8,61.5,127,62,127,62.6z"/>
		<path d="M117.8,41.9c0.3,0.2,0.5,0.5,0.7,0.9c-0.2,0.4-0.3,0.6-0.4,0.8C118,43.1,117.8,42.6,117.8,41.9z"/>
		<path d="M104.3,32.1c0.2-0.2,0.3-0.3,0.5-0.6c0.2,0.5,0.4,1,0.5,1.6l-0.6,0.2C104.6,32.9,104.5,32.6,104.3,32.1z"/>
		<path d="M120,44.9c0.4-0.3,0.8-0.4,1.2-0.5c0.1,0.1,0.1,0.2,0.2,0.4c-0.4,0.3-0.9,0.5-1.4,0.7C119.9,45.3,119.9,45.2,120,44.9z"/>
		<path d="M113.4,42.7c0.3-0.3,0.7-0.4,1.1-0.6l0.2,0.4C114.3,42.6,113.9,42.7,113.4,42.7z M120.9,55.1c0.1,0.2,0.1,0.4,0.1,0.7
			c0,0-0.2,0-0.3,0C120.7,55.5,120.7,55.3,120.9,55.1z"/>
		<path d="M104.8,39.7l-1.2-0.2l0.1-0.5c0.4,0.1,0.7,0.2,1.1,0.5L104.8,39.7L104.8,39.7z M100.9,33.8c-0.1,0.2-0.2,0.2-0.4,0.3
			C100.6,34,100.7,33.8,100.9,33.8L100.9,33.8z"/>
		<path d="M117.7,54.8c0.1-0.2,0.3-0.4,0.4-0.5c0,0,0.1,0.1,0.2,0.2C118.1,54.6,118,54.7,117.7,54.8L117.7,54.8z"/>
		<path d="M121.9,59.7c-0.2,0-0.4,0-0.5-0.1l0.5-0.4C121.9,59.4,121.9,59.5,121.9,59.7z M128.4,60.1c0.3-0.1,0.7-0.1,1.3,0
			C129.4,60.1,128.9,60.2,128.4,60.1z M113.3,48c0.1,0.1,0.1,0.2,0.1,0.3C113.3,48.2,113.2,48.2,113.3,48z M100.8,24.9
			c0.1,0.1,0.1,0.2,0.1,0.4c-0.2,0-0.5-0.1-0.7-0.2C100.4,25.1,100.5,25,100.8,24.9z M121.3,52.1c0.1-0.1,0.5-0.1,0.8-0.1
			C121.9,52.2,121.7,52.2,121.3,52.1z"/>
		<path d="M111.7,41.9c-0.1,0.1-0.2,0-0.3,0C111.5,41.9,111.6,41.9,111.7,41.9z"/>
		<path d="M112.7,38c-0.1-0.1,0-0.2,0-0.3C112.8,37.8,112.8,37.9,112.7,38z"/>
		<path d="M117,58.8c0.1-0.1,0.2-0.1,0.3-0.1C117.3,58.8,117.2,58.8,117,58.8z"/>
		<path d="M103.8,22.6c0.1,0,0.2,0.1,0.3,0.2C103.9,22.7,103.8,22.7,103.8,22.6z"/>
		<path d="M110.1,35.6c0,0.1-0.1,0.1-0.4,0.1c-0.1-0.1-0.2-0.2-0.3-0.4C109.6,35.3,109.8,35.4,110.1,35.6z"/>
		<path d="M98.7,27.2c-0.1,0.1-0.2,0.1-0.3,0.1C98.5,27.2,98.5,27.2,98.7,27.2z"/>
		<path d="M115.3,54.5l-0.7-0.3c0.2,0,0.4,0,0.6,0.1C115.3,54.3,115.3,54.5,115.3,54.5z"/>
		<path d="M113.2,46.5C113.2,46.5,113.3,46.5,113.2,46.5L113.2,46.5z M103,25.1c0,0.1-0.2,0.1-0.4,0.1
			C102.7,25.1,102.8,25.1,103,25.1z M113.2,46.5L113.2,46.5L113.2,46.5z"/>
		<path d="M110.4,42.6C110.4,42.6,110.4,42.6,110.4,42.6z M119.2,57.8C119.2,57.9,119.2,57.8,119.2,57.8z"/>
		<path d="M114.3,49.1C114.3,49.1,114.3,49.1,114.3,49.1z"/>
		<path d="M115.9,43.6C115.8,43.6,115.9,43.6,115.9,43.6z M118.4,61.1C118.4,61.1,118.4,61.1,118.4,61.1z"/>
		<path d="M131.2,61C131.2,61,131.2,61,131.2,61z"/>
		<path d="M109.5,37.4c0.1-0.1,0.1-0.1,0.4-0.1C109.8,37.4,109.7,37.4,109.5,37.4z M106.3,41.5c-0.1-0.1-0.1-0.2-0.2-0.2
			C106.2,41.3,106.2,41.3,106.3,41.5L106.3,41.5L106.3,41.5z M104.8,39.7L105,40C104.9,39.9,104.9,39.9,104.8,39.7
			C104.8,39.7,104.8,39.7,104.8,39.7z M109.5,39.8C109.5,39.8,109.5,39.8,109.5,39.8z"/>
		<path d="M106.1,23c-0.2,0.1-0.3,0-0.5-0.3c-0.1-0.1-0.1-0.1,0.1-0.1c0.2,0,0.3,0,0.4,0C106.1,22.6,106.1,22.7,106.1,23z"/>
		<path d="M106.3,41.5l0.2,0.2C106.4,41.7,106.4,41.7,106.3,41.5C106.3,41.5,106.3,41.5,106.3,41.5z M109.1,38.7
			C109.1,38.7,109,38.7,109.1,38.7z"/>
		<path d="M126.8,57l-0.2-0.2C126.7,56.8,126.7,56.9,126.8,57C126.8,57,126.8,57,126.8,57z"/>
		<path d="M106.1,22.4c-0.1,0.1-0.2,0.1-0.4,0.1c-0.1-0.2,0-0.3,0.3-0.5C106.2,22,106.2,22.3,106.1,22.4z"/>
		<path d="M119.9,53.1L119.9,53.1L119.9,53.1z"/>
		<path d="M102.6,35.4C102.6,35.3,102.7,35.4,102.6,35.4z"/>
		<path d="M118.6,59.4C118.6,59.4,118.6,59.5,118.6,59.4z"/>
		<path d="M111.2,36.8c-0.1-0.1-0.1-0.1-0.1-0.4c0.1,0,0.2,0.1,0.3,0.2C111.4,36.7,111.4,36.7,111.2,36.8z"/>
		<path d="M130.6,59.6c0-0.1,0.2-0.1,0.4-0.1C131,59.6,130.9,59.6,130.6,59.6z M124.8,58.3C124.8,58.3,124.7,58.3,124.8,58.3z"/>
		<path d="M117.1,57.1C117.1,57.1,117.1,57.1,117.1,57.1z"/>
		<path d="M85.9,24.2c-0.1,0.6-0.3,1-0.5,1.6c-2-0.3-3.9-0.7-5.8-1.2l0-0.5C81.7,24.1,83.7,24.1,85.9,24.2z"/>
		<path d="M89.5,21.8l2.1-3.1l0.8,0.6c0.1,1.7-0.7,2.5-2.6,2.6C89.5,21.8,89.5,21.8,89.5,21.8L89.5,21.8z"/>
		<path d="M71.3,37.1c-1.3,1-2.6,1.5-3.8-0.5C69,36.8,70.2,36.9,71.3,37.1z M72.3,33.7c-0.7,0.1-1.2,0.2-1.7,0.3l0.1-1
			C71.3,33.3,71.9,33.5,72.3,33.7z"/>
		<path d="M89,22.6c-0.2,0.2-0.4,0.4-0.7,0.6c-0.3-0.2-0.6-0.6-0.8-1c0.6-0.2,1.1-0.4,1.8-0.6c0.2,0.1,0.2,0.1,0.2,0.1
			C89.4,22,89.2,22.3,89,22.6z"/>
		<path d="M92.2,17.7c-0.6-0.2-1.1-0.5-1.5-0.8C91.6,16.7,93.2,15.3,92.2,17.7z M91,15.3c-0.7,0-1.2,0.1-1.7,0.1l0-0.7
			c0.7,0.1,1.4,0.1,2.1,0.2c0.1,0,0.1,0.1,0.2,0.1C91.5,15.1,91.3,15.2,91,15.3z"/>
		<path d="M54.7,49.8c-0.1-0.6,0-1,0-1.4l0.7,0.1C55.2,49.1,55,49.5,54.7,49.8z M59.3,48.2c0.3,0.2,0.4,0.5,0.6,0.9l-0.5,0.2
			C59.3,48.9,59.3,48.6,59.3,48.2L59.3,48.2z M64.4,42.5c-0.3-0.2-0.5-0.5-0.6-0.7l0.8-0.1C64.5,42,64.5,42.2,64.4,42.5L64.4,42.5z
			 M51,55c0.3-0.2,0.7-0.2,1-0.3l-0.1,0.7C51.6,55.3,51.3,55.2,51,55z M56.9,51.3c0.2-0.3,0.5-0.4,0.9-0.6l0.2,0.5
			C57.7,51.2,57.4,51.3,56.9,51.3L56.9,51.3z M58.9,53.1c-0.1,0.2-0.3,0.4-0.4,0.5c0,0-0.1-0.1-0.2-0.2
			C58.5,53.3,58.6,53.2,58.9,53.1z M63.5,44.6C63.5,44.6,63.5,44.5,63.5,44.6z M72.5,35.8C72.6,35.8,72.5,35.8,72.5,35.8z"/>
		<path d="M80.2,22.5C80.2,22.5,80.3,22.4,80.2,22.5z M86.5,21.8C86.4,21.8,86.5,21.9,86.5,21.8z"/>
		<path d="M138.6,102.5c0.2,0.4,0.2,0.8,0.1,1.5c-0.9,1-1.7,1.8-2.5,2.6l1.1,0.1c0.1,0.8,0.2,1.6,0.1,2.4c-0.2,0-0.2,0-0.2-0.1
			c-0.1-0.3-0.3-0.4-0.5-0.5c-1.6-0.2-2-1.1-1.5-2.7c0-0.2,0-0.2,0.2-0.2c0.5-0.5,0.8-1,1-1.7c-0.1-0.3-0.3-0.6-0.6-0.8
			c0,0.3,0,0.6-0.2,0.9c-0.5,0.3-0.7,0.7-1,1c0,0,0,0,0,0c-0.9-0.5-1.9-0.9-2.5-1.6c-0.2-0.3,0.4-1.9,0.9-2c0.8-0.2,1.7,0.3,2.6,0.5
			C136.6,102.1,137.5,102.3,138.6,102.5L138.6,102.5z M138.2,110.8c0.3-0.5,0.6-0.9,1-1.4c0.3,1.3,0.4,2.6,0.4,4.2
			c-1.3,0.1-2.5,0-3.8-0.1l-0.5,1.1c-0.3-0.5-0.6-1.1-1.1-1.7c0.4-0.8,0.9-1.4,1.6-1.9C136.8,110.9,137.5,110.8,138.2,110.8z
			 M133.5,108.4c-0.2,0.4-0.7,0.9-1.1,1.4l-0.5-0.6C132.5,109,133,108.7,133.5,108.4L133.5,108.4z M133,98.9c0-0.2,0.3-0.2,0.4-0.2
			c0.4,0.3,0.7,0.5,0.9,0.8C133.9,99.4,133.5,99.2,133,98.9z M136.8,98.5c0.3,0.2,0.4,0.4,0.5,0.6l-1.2,0.1
			C136.3,98.9,136.4,98.7,136.8,98.5L136.8,98.5z M115,87.9c-0.4-0.1-0.8-0.2-0.8-0.4c0-0.3,0.2-0.6,0.5-1.4
			C114.9,87,115,87.4,115,87.9z"/>
		<path d="M138,110.8c-0.5,0.1-1.2,0.1-2,0.1c0.2-0.1,0.4-0.1,0.8-0.1C137.3,110.7,137.5,110.7,138,110.8z M132.7,107.6
			c-0.4,0.1-0.7,0.2-1,0.3l-0.1-0.4c0.4-0.1,0.8-0.3,1.3-0.4c0,0,0.2,0.1,0.2,0.2C133,107.4,132.9,107.5,132.7,107.6z"/>
		<path d="M133.3,82.8c-0.2-0.1-0.4-0.3-0.5-0.4c0,0,0.1-0.1,0.2-0.2C133.2,82.4,133.3,82.6,133.3,82.8z"/>
		<path d="M137.6,96.1c-0.2-0.2-0.2-0.3-0.3-0.5l0.4-0.1C137.7,95.8,137.7,95.9,137.6,96.1L137.6,96.1z M136.7,100.7l0.6-0.4
			l0.1,0.2c-0.2,0.1-0.3,0.1-0.6,0.2L136.7,100.7z"/>
		<path d="M136.7,108.6c0.1-0.1,0.3,0.1,0.4,0.3C137,109,136.9,108.9,136.7,108.6z"/>
		<path d="M138.5,81.6C138.5,81.6,138.5,81.6,138.5,81.6z"/>
		<path d="M135.9,79.8C135.9,79.7,135.9,79.8,135.9,79.8z"/>
		<path d="M135.2,105.6c-0.2-0.1-0.3-0.2-0.5-0.5c-0.1-0.1,0-0.1,0.1-0.1C135.1,105.2,135.2,105.4,135.2,105.6L135.2,105.6
			L135.2,105.6z M131.7,122l4.4-2.7c1.9,1.7,3.7,3.4,2.3,6.3c-0.1,0.2,0.8,0.9,1.2,1.3c-1.8-0.1-2.4,3.9-4.4,1.5
			c-1-2.1-2.1-4.2-3.3-6.4C131.8,122,131.8,122,131.7,122L131.7,122z"/>
		<path d="M138.5,142l-2.5,6c-0.1,0-0.8-0.1-1.6-0.2c-1.4-1.3-0.8-2.4,0.1-3.7l0-0.2c0.7-1,1.4-2,2.3-3c0.6,0.1,1,0.2,1.6,0.6
			C138.5,141.8,138.5,141.9,138.5,142L138.5,142z"/>
		<path d="M131.4,132.9c-0.1-0.5-0.3-0.8-0.5-1.2c0.9-0.1,1.9-0.4,2.9-0.4c0.2,0,0.4,0.9,0.6,1.4l-3.9,1.2l-0.2-0.8
			C130.6,133.1,131,133.1,131.4,132.9z"/>
		<path d="M133.6,155.7c0.6-0.4,1.2-0.6,1.9-0.9c0.1,1,0.2,1.8,0.5,2.6c-1.2,0.9-1.3,0.9-1.7-0.3
			C134.2,156.6,133.9,156.2,133.6,155.7z M133.3,149.9c-0.2,1-0.5,1.9-1,2.7c-0.3-0.4-0.5-0.8-0.5-1.2c0-0.5,0.1-1,0.4-1.5
			c0.2,0,0.2,0,0.2,0.1c0.2,0,0.4,0,0.5-0.1L133.3,149.9L133.3,149.9z"/>
		<path d="M131.8,116.3c0.1-0.4,0-1.3,0.2-1.3c0.6-0.1,1.3,0,2,0.4C133.2,115.6,132.5,115.9,131.8,116.3z"/>
		<path d="M133.9,142.1c-0.7,0.3-1.3,0.5-1.9,0.7C132.6,141.8,132.7,139.9,133.9,142.1z"/>
		<path d="M135,138.9c0.6-0.3-0.7-2.5,1.4-1.4c0.1,0.3,0.1,0.4,0.1,0.6c-0.2,0.3-0.4,0.6-0.6,0.9C135.7,139,135.5,139,135,138.9z"/>
		<path d="M136.1,139.1c0-0.3,0.2-0.6,0.6-1c0.1-0.1,0.3-0.1,0.5-0.1c0,0,0,0,0.1,0.1c0.1,0.3,0.3,0.4,0.5,0.5l0,0l0,0.4
			C137.1,139.1,136.7,139.1,136.1,139.1z"/>
		<path d="M132.8,136c-0.4,0.2-0.7,0.3-1.1,0.5l-0.2-0.8c0.4,0,0.8,0,1.2,0.1C132.8,136,132.8,136,132.8,136z"/>
		<path d="M132.5,144.5c0.1-0.2,0.3-0.4,0.4-0.5c0,0,0.1,0.1,0.2,0.2C132.9,144.4,132.7,144.5,132.5,144.5L132.5,144.5z
			 M132.8,147.9C132.7,147.9,132.8,148,132.8,147.9z M132.3,149.9c0.2,0,0.3-0.1,0.5-0.1c0,0.1,0,0.1-0.1,0.1L132.3,149.9
			L132.3,149.9z M131.4,157.9C131.4,157.9,131.4,157.8,131.4,157.9z M133.1,156.9C133.1,156.9,133.2,156.8,133.1,156.9z"/>
		<path d="M133.3,119.1C133.4,119.1,133.3,119.1,133.3,119.1z"/>
		<path d="M135.6,140.4C135.6,140.3,135.6,140.4,135.6,140.4z M133.9,143.3l-0.2-0.3C133.8,143.1,133.8,143.1,133.9,143.3
			C133.9,143.3,133.9,143.3,133.9,143.3z M133.9,143.3c0.2,0.1,0.3,0.2,0.5,0.5c0,0.1,0,0.1,0.1,0.1c-0.2-0.1-0.3-0.2-0.5-0.5
			C134,143.4,133.9,143.3,133.9,143.3L133.9,143.3z M131.7,147.3C131.7,147.3,131.7,147.3,131.7,147.3z"/>
		<path d="M132.2,120.1C132.2,120.1,132.1,120.1,132.2,120.1z M131.7,122C131.7,122,131.6,122,131.7,122
			C131.7,122,131.7,122,131.7,122z M134.1,130.2C134.1,130.2,134.1,130.2,134.1,130.2z M135.2,130.3
			C135.2,130.4,135.2,130.3,135.2,130.3z"/>
		<path d="M69.2,149.2c0.2-1.9,0.7-3.6,1.2-5.6c0.9-0.2,1.7-0.1,2-0.1c0.1,2,0.3,3.6,0.4,5.4c0,0.2-0.3,0.2-0.5,0.1
			c-0.3-0.1-0.5,0-0.7,0c-0.2,0-0.3,0.1-0.7,0.4c-0.5,0.1-0.7,0.1-1,0.1C69.9,149.4,69.7,149.3,69.2,149.2z M75.3,139.3l-0.7,2.6
			l-0.8-0.2l-0.1-2.2l-2.2,0.5c0-1.2,0-2.4-0.1-3.6l0.9,0l0.3,1.5c0.9,0.2,1.7,0.4,2.6,0.9C75.3,139.1,75.3,139.2,75.3,139.3z"/>
		<path d="M70.6,128.3l-5-0.9l0.1-1.6c1.4,0.3,2.5,0.7,3.7,0.6c1.3,0,2.1,0,1.2,1.7C70.5,128.3,70.6,128.3,70.6,128.3L70.6,128.3z"
			/>
		<path d="M75.4,139.4c-0.1-0.2-0.1-0.3-0.1-0.6c0.4-0.5,0.8-0.8,1.3-1.1c0.5-0.3,1-0.4,2.1-1c-0.3,1.2-0.4,2.2-0.9,2.6
			C77.3,139.8,76.3,139.5,75.4,139.4z"/>
		<path d="M74.3,129.7c-1.9,1.5-3.2,1.1-3.8-1.2c0-0.2,0-0.2,0-0.2c0.4,0,0.8,0.1,1.5,0.1c0.2,0,0.2,0,0.2,0.2
			C72.9,129.1,73.6,129.4,74.3,129.7C74.3,129.7,74.3,129.7,74.3,129.7z M75,128.7l2,1c-1.3,0.1-1.8,0.1-2.5,0.1
			c-0.2,0-0.2,0-0.1-0.2C74.6,129.2,74.8,128.9,75,128.7C75,128.7,75,128.7,75,128.7z"/>
		<path d="M76.6,142.7l1-0.9l0.5,0.5c-0.4,0.2-0.8,0.3-1.2,0.5C76.7,142.7,76.6,142.7,76.6,142.7L76.6,142.7z"/>
		<path d="M63.2,125.5c0.1-0.2,0.4-0.3,0.8-0.5C63.9,125.2,63.6,125.3,63.2,125.5L63.2,125.5z"/>
		<path d="M76.7,142.7C76.6,142.7,76.5,142.7,76.7,142.7C76.6,142.7,76.7,142.7,76.7,142.7z M77.4,143.6
			C77.4,143.7,77.4,143.6,77.4,143.6z"/>
		<path d="M122.3,157.6c-0.5,0.5-0.8,0.9-1.2,1.2l-0.6-0.5l2-1.5c0,0.1,0.1,0.2,0.1,0.2C122.6,157.2,122.5,157.4,122.3,157.6
			L122.3,157.6z M124.2,158c0.1,0.2,0.1,0.3,0.1,0.5c-0.4,0.1-0.9,0-1.3-0.1C123.4,158.3,123.7,158.1,124.2,158z M120.6,155.8
			c0.4,0,0.6,0.1,0.8,0.2l-0.3,0.5C121,156.2,120.7,156,120.6,155.8z M120.8,162.3l-0.1,1.1l-0.3,0c0-0.3,0.1-0.6,0.3-1
			C120.8,162.3,120.8,162.3,120.8,162.3L120.8,162.3z M122,151.5c0.1,0,0.2,0.1,0.3,0.2C122.2,151.6,122.1,151.6,122,151.5z
			 M122.5,146.3c0.1,0,0.1,0.2,0.2,0.4c-0.2,0-0.5-0.1-0.7-0.2C122,146.4,122.2,146.4,122.5,146.3z M122,153.9c-0.1-0.1,0-0.2,0-0.3
			C122,153.7,122,153.8,122,153.9z M121.1,147.6C121.1,147.6,121.1,147.6,121.1,147.6z M120.8,162.3
			C120.8,162.3,120.9,162.3,120.8,162.3C120.8,162.3,120.8,162.3,120.8,162.3z M122.3,161.1C122.3,161,122.2,161.1,122.3,161.1z
			 M119.2,153.3L119.2,153.3L119.2,153.3z"/>
		<path d="M76.2,106.5l-0.1,1.6c-0.6-0.1-1-0.2-1.7-0.1c-0.5,0.5-0.8,0.7-1.1,1c-0.3-0.6-0.6-1.3-0.9-2.2c0.2-0.4,0.3-0.5,0.7-0.6
			c0.5-0.3,0.7-0.7,1-1c0.2,0,0.5,0,0.9,0.2C75.5,105.9,75.8,106.2,76.2,106.5z"/>
		<path d="M72.8,106.2c-0.2,0-0.3,0.1-0.5,0.4c-0.3-0.5-0.5-1.1-0.8-2c-0.2-0.4-0.2-0.5,0.1-0.7c0.1-0.8,0-1.5-0.1-2.3
			c-0.1-0.1-0.1-0.1-0.3-0.3c0.1-0.1,0.3-0.2,0.8-0.1c1,0.1,1.7,0.1,2.3,0.1l-0.1,0.9c-0.4,1-0.8,1.8-1.3,2.9
			C72.9,105.5,72.9,105.9,72.8,106.2z"/>
		<path d="M61.1,120.3c0.5,0.7,0.8,1.3,1.1,2l-1.2,0.3c-0.2-0.8-0.4-1.6-0.6-2.4c0.1,0,0.1-0.1,0.2-0.1
			C60.7,120.1,60.8,120.2,61.1,120.3z M63.4,118.5c0.9-0.2,1.7-0.3,2.5-0.4l-0.1,0.8C65,118.8,64.1,118.7,63.4,118.5L63.4,118.5z
			 M75.4,102.5c0.7,0.3,1.3,0.6,2,1.1c-0.6,0-1.2-0.1-2-0.5C75.4,102.9,75.3,102.7,75.4,102.5z"/>
		<path d="M77.9,105.1c0.1-0.2,0.2-0.2,0.4-0.1c0.1,0.7,0.1,1.3,0,2.1c-0.1,0.1-0.4,0.1-0.5,0.1C77.8,106.5,77.9,105.9,77.9,105.1
			L77.9,105.1z"/>
		<path d="M73.3,109.2c0.2-0.4,0.5-0.7,0.9-1C74,108.5,73.7,108.9,73.3,109.2z"/>
		<path d="M73,106.2c-0.2-0.2-0.1-0.5-0.1-0.9c0.3-0.2,0.5-0.1,1-0.1C73.8,105.6,73.5,105.9,73,106.2z M76.1,106.3
			c-0.3-0.1-0.7-0.4-1-0.8C75.5,105.6,75.8,105.9,76.1,106.3z"/>
		<path d="M75.2,102.5c0.2,0,0.2,0.3,0.2,0.4c-0.3,0-0.6-0.1-1-0.4C74.5,102.5,74.7,102.5,75.2,102.5z"/>
		<path d="M69.4,154.5c0.2,1.1,0.2,2.1,0.3,3.6C67.2,156.6,69.1,155.5,69.4,154.5z M70,149.6c0.2-0.2,0.5-0.1,0.9-0.1
			c0,0.3-0.1,0.6-0.3,0.8C70.5,150.1,70.2,149.9,70,149.6L70,149.6z"/>
		<path d="M59.1,160.2C59.2,160.2,59.2,160.2,59.1,160.2C59.1,160.2,59.1,160.2,59.1,160.2z M54.8,159.3c-0.1-0.1-0.1-0.1-0.1-0.4
			C54.8,158.9,54.9,159.1,54.8,159.3z"/>
		<path d="M69.4,153C69.4,153,69.4,153,69.4,153z M70.6,151.9C70.6,152,70.6,151.9,70.6,151.9z M71.8,149c0-0.1,0.2-0.1,0.4-0.1
			C72.2,149,72.1,149,71.8,149z"/>
		<path d="M80.1,56.6c-1,0-2-0.1-3-0.2l0.2-0.8c0.8,0.2,1.7,0.4,2.7,0.6C80.1,56.1,80.1,56.4,80.1,56.6L80.1,56.6z"/>
		<path d="M93.5,52.6c0.3-0.3,0.7-0.5,1.1-0.6l-0.2,1.4C94.1,53.2,93.8,53,93.5,52.6z M85.7,63.3c-0.5,0.1-0.9,0.2-1.4,0.3l0-0.6
			c0.4,0.1,0.7,0.1,1.2,0.2L85.7,63.3L85.7,63.3z M93.9,55.3c0.1-0.1,0.2-0.1,0.3-0.1C94.2,55.3,94.1,55.4,93.9,55.3L93.9,55.3z
			 M87.9,63.4L87.9,63.4L87.9,63.4z M87.9,63.4L87.9,63.4L87.9,63.4L87.9,63.4z M85.7,63.3L85.7,63.3L85.7,63.3L85.7,63.3z
			 M91.7,54.7c0.1,0.1,0.2,0.2,0.4,0.2c-0.1,0-0.2,0-0.4-0.1C91.7,54.7,91.7,54.7,91.7,54.7z"/>
		<path d="M138.7,145.9l-0.6,0.8l-0.3-0.3c0.2-0.2,0.4-0.3,0.7-0.5L138.7,145.9L138.7,145.9z M139.1,148.2l-1.1,0.5l-0.1-0.4
			c0.3,0,0.6-0.1,1-0.1L139.1,148.2z"/>
		<path d="M138.6,142.1c-0.1-0.2-0.1-0.3,0-0.5C138.6,141.7,138.6,141.9,138.6,142.1z"/>
		<path d="M135.9,150.4C135.9,150.4,135.9,150.4,135.9,150.4z M140.5,141.3C140.5,141.3,140.5,141.3,140.5,141.3z M140.3,143
			C140.3,143,140.3,143,140.3,143z M138.6,144.5C138.5,144.5,138.6,144.5,138.6,144.5z M138.7,145.9
			C138.8,145.9,138.8,145.9,138.7,145.9C138.7,145.9,138.7,145.9,138.7,145.9z"/>
		<path d="M80.5,51.2c0.2-3.2,2.9-0.3,3.7-1.9l0.4,0.8c-0.9,0.4-1.7,0.7-2.9,1.1C81,51.2,80.7,51.2,80.5,51.2z"/>
		<path d="M80.5,51.4c0.3-0.1,0.5-0.1,0.9-0.1c0.3,0.8,0.4,1.7,0.5,2.7c-0.3,0.3-0.6,0.4-1,0.5c-0.5-0.6-0.8-1.2-1.1-2.1
			C80.1,52,80.3,51.8,80.5,51.4z"/>
		<path d="M92.5,45.5c0.6,0.2,1.1,0.5,1.6,1c-1.1,0.3-2.3,0.5-3.5,0.7l-0.1-0.9C91.2,46.1,91.8,45.9,92.5,45.5z"/>
		<path d="M85.7,55.8c-0.5-0.1-1-0.3-1.6-0.7C84.6,55.1,85.1,55.3,85.7,55.8z"/>
		<path d="M94.9,46.7c0-0.1,0.2-0.1,0.4-0.1C95.2,46.8,95.1,46.7,94.9,46.7z"/>
		<path d="M123.1,47.8c0.2,0.1,0.3,0.2,0.4,0.4c0,0.5,0,1-0.1,1.6c-0.3,0-0.5-0.1-0.9-0.4l-0.1-0.1c0-0.4,0.1-0.8,0.1-1.5
			c0-0.2,0-0.2,0.2-0.2C122.9,47.8,123,47.8,123.1,47.8z"/>
		<path d="M75.2,95.7c-1.1,1.3-2.2,2.5-3.4,3.7l-0.6-0.3l0-5.1c-3.2,0.8-3.1-1.2-2.7-3.5c1.5-0.2,3-0.3,4.9-0.3l-0.4,2.4
			c1.1,0.2,3.3-0.2,1.5,2.1C74.5,94.8,75,95.3,75.2,95.7z"/>
		<path d="M51,162.6c0.1,0,0.2,0.1,0.3,0.2C51.2,162.7,51.1,162.7,51,162.6z M50.1,161.8l0.3-0.7c0,0.2,0,0.4-0.1,0.6
			C50.1,161.8,50.1,161.8,50.1,161.8z M50.1,161.8C50.1,161.8,50,161.8,50.1,161.8C50.1,161.8,50.1,161.8,50.1,161.8z"/>
		<path d="M97.3,17.7C97.3,17.7,97.3,17.7,97.3,17.7z"/>
		<path d="M74.7,55.6c-0.1-0.2-0.1-0.4-0.1-0.8C74.7,54.9,74.8,55.2,74.7,55.6L74.7,55.6z M133.8,138.3L133.8,138.3L133.8,138.3z"/>
		<path d="M137.6,138.5c-0.1,0.1-0.3-0.1-0.4-0.3C137.3,138.1,137.5,138.2,137.6,138.5z"/>
		<path d="M137.6,132.5C137.6,132.4,137.7,132.4,137.6,132.5C137.6,132.5,137.6,132.5,137.6,132.5z"/>
		<path d="M137.1,137.9c0,0.1-0.2,0.1-0.4,0.1c-0.1-0.1-0.1-0.2-0.1-0.4C136.8,137.5,136.9,137.6,137.1,137.9L137.1,137.9z"/>
		<path d="M74.8,128.6c0,0.3-0.2,0.5-0.4,0.9c-0.8-0.2-1.5-0.5-2.2-1C73,128.5,73.8,128.5,74.8,128.6z M73.4,125.9
			c0.1,0,0.2,0.1,0.3,0.2C73.5,126.1,73.4,126,73.4,125.9z M69.9,123.7c-0.1-0.2-0.1-0.4,0-0.8C69.9,123,70,123.3,69.9,123.7z
			 M69.9,122.1c-0.1-0.1-0.1-0.2-0.2-0.2C69.8,121.9,69.8,121.9,69.9,122.1C69.9,122.1,69.9,122.1,69.9,122.1z"/>
		<path d="M131.6,112.8C131.6,112.8,131.6,112.8,131.6,112.8z"/>
		<path d="M71.5,101.9c0.1,0.5,0.3,1.3,0.2,2C71.5,103.3,71.4,102.7,71.5,101.9z"/>
		<path d="M74.4,101.1c-0.6,0.1-1.3,0.1-2.1,0c0.4-0.6,1-1.1,1.6-1.7C74,100,74.2,100.5,74.4,101.1L74.4,101.1z"/>
		<path d="M48.9,110.2C48.8,110.2,48.9,110.1,48.9,110.2z"/>
		<path d="M122.4,49.4C122.4,49.5,122.3,49.5,122.4,49.4C122.3,49.5,122.4,49.5,122.4,49.4z"/>
		<path d="M123,47.7c0,0.1-0.1,0.1-0.4,0.1C122.7,47.7,122.8,47.7,123,47.7z"/>
		<path d="M122.6,46.1c-0.1,0.1-0.1,0.1-0.2,0.2C122.5,46.3,122.5,46.2,122.6,46.1C122.7,46.1,122.6,46.1,122.6,46.1z"/>
		<path d="M104.2,26c0.3-0.2,0.5-0.2,0.9-0.1c0.1,0.6,0.1,1.2,0,2c-0.5,0.5-0.9,0.9-1.6,1.2C103.6,28.1,103.9,27.1,104.2,26z
			 M99.8,21.8C99.8,21.8,99.8,21.8,99.8,21.8z M135.4,105.5c-0.2-0.2-0.3-0.3-0.6-0.5c0.2-0.4,0.4-0.7,1-1.1c0.3,0,0.6,0,0.6,0
			C136.2,104.5,135.9,105,135.4,105.5z"/>
		<path d="M136.5,103.8c0,0.2-0.3,0.1-0.4,0.1c-0.1-0.3-0.1-0.6-0.2-0.9C136.1,103.3,136.3,103.5,136.5,103.8z"/>
		<path d="M135.9,121.4C135.9,121.5,135.9,121.4,135.9,121.4z M132.3,150c0.1-0.1,0.1-0.1,0.4-0.1C132.7,150,132.5,150,132.3,150z"
			/>
		<path d="M73.9,96C74,96,73.9,96.1,73.9,96z"/>
	</g>
</g>
</svg>
