<?xml version="1.0" encoding="utf-8"?>
<!-- Generator: Adobe Illustrator 27.2.0, SVG Export Plug-In . SVG Version: 6.00 Build 0)  -->
<svg version="1.1" id="Layer_1" xmlns="http://www.w3.org/2000/svg" xmlns:xlink="http://www.w3.org/1999/xlink" x="0px" y="0px"
	 viewBox="0 0 182 182" style="enable-background:new 0 0 182 182;" xml:space="preserve">
<style type="text/css">
	.st0{clip-path:url(#SVGID_00000016774363299707869990000002269053121149297087_);}
</style>
<g>
	<g>
		<defs>
			<polygon id="SVGID_1_" points="0,181.9 0,0 182,0 182,182 			"/>
		</defs>
		<clipPath id="SVGID_00000049903625520786190750000017590975037898173348_">
			<use xlink:href="#SVGID_1_"  style="overflow:visible;"/>
		</clipPath>
		<g style="clip-path:url(#SVGID_00000049903625520786190750000017590975037898173348_);">
			<path d="M39.7,95c-1-1.8-0.7-3.4,1.1-4.9c0.5-0.2,1-0.5,1.4-0.9c0.6-0.8,1.3-1.6,2.3-2.6c0.5-0.7,0.7-1.2,0.9-1.7
				c0-0.1,0.1-0.2,0.4-0.5c0.4-0.5,0.6-0.9,0.8-1.3c0.2-0.2,0.5-0.5,1-0.8c1.2-0.4,2.2-0.6,3-0.9c0.5-0.2,0.8-0.8,1.2-1.3
				c0,0,0-0.2,0.3-0.2c0.7-0.4,1.2-0.9,1.7-1.3c0.2-0.1,0.5-0.1,1,0c1.9,0.2,3.4,0.3,5,0.4c0.2,0,0.5,0.1,0.9,0.4
				c2.2,0.7,4.3,1.3,6.3,1.7c0,0-0.1,0.1-0.1,0.2c0.9,0.6,1.7,1.2,2.6,2c-0.8,1-1.6,1.8-2.5,2.5l0.5,0c-0.2,0.9-0.5,1.7-1,2.6
				c-0.9,1.1-1.6,2.1-2.6,3c-1-0.7-1.7-1.4-2.4-2.4c0.3-0.5,0.5-0.9,0.8-1.1c0.9,0,1.7-0.1,2.4-0.1l1.5-4.4l-6.7-1.3
				c0.6,1.1,1.3,2.3,1.8,3.4c0,0,0,0-0.1,0c-0.2,0.2-0.4,0.3-0.6,0.6c-0.8,0.5-1.7,1-2.6,1.3c-0.9,0-1.7,0-2.5-0.3
				c-0.8-0.2-1.5-0.2-2.4-0.3c-0.6,0.1-0.9,0.2-1.4,0.3c-0.2,0.4-0.3,0.7-0.3,1.3c0,0.6-0.1,1.1-0.3,1.6c0,1,0.2,1.9,0.4,2.9
				c0.2,0.6,0.2,1,0.1,1.5c-0.1,0.4,0,0.8,0.1,1.4c0,0.8,0,1.4-0.2,2.1c0,1.7,0,3.3,0.1,5.1c-0.1,3.2,0,6.1-0.3,9.1
				c-0.2,2.4-0.6,4.9-1.1,7.3c-0.1,0.4-0.1,0.8,0,1.4c0.1,2.3,0,4.4-0.1,6.6c-1.9,2-3.2,3.9-2.1,6.5c0.7-0.4,1.5-0.7,2.3-0.9
				c0,0.4,0,0.7-0.2,1.1c0,1.5,0,2.9,0.1,4.5c-0.2,0.8-0.3,1.4-0.7,2c-0.2,1.5-0.3,2.9-0.2,4.5c-0.1,1.4-0.3,2.5-0.5,3.7
				c-0.7,0.6-1.3,1.1-2,1.8c1,0,1.7-0.1,2.4,0.1c0.2,0.6,0.4,1,0.5,1.6c-0.6,0.7-1.2,1.3-1.8,1.9c1,0.3,1.9,0.6,2.8,1.1
				c0,0.1,0,0.4-0.1,0.5c0,0.3,0,0.4-0.3,0.4c-0.8-0.1-1.4-0.1-2-0.3c-0.2,0-0.4,0-0.7,0.1c-0.1,0-0.4,0-0.5,0l-0.6,0
				c-0.1,0-0.4,0-0.5-0.1c-0.6-0.4-1.1-0.7-1.7-1.1c-0.6,3.2-0.6,3.2,1.2,3.4c1.1,1.5,2,3,3.1,4.8c1.5,0.6,3.9-4.3,5.2,0.5
				c-3.1,0.2-6.1,0.7-9.2,0.5c-1.8-0.1-3-1.8-2.7-4c0.3-3.4,0.1-6.8,0.4-10.7c0.1-0.8,0.1-1.6,0.1-2.4c0,0,0-0.2,0.1-0.5
				c0-2.7-0.2-5.1-0.3-7.5c0-0.4-0.1-0.8,0-1.5c0-0.6-0.1-1-0.3-1.3c-0.3-3-0.7-6.1-0.9-9.4c0-1.2-0.2-2-0.3-2.9
				c0-7.8-0.1-15.6-0.2-23.3c0-0.9-0.3-1.8-0.2-3.1C40,96.5,39.8,95.7,39.7,95z M45.6,111.4l0.1,0.1c-0.1-0.1-0.1-0.2-0.2-0.4
				l-0.1-0.1C45.4,111.1,45.5,111.1,45.6,111.4L45.6,111.4z M48.5,110.9c-0.1,0-0.1,0-0.3,0.1L48.5,110.9z M47.1,102.9l-0.3,0.1
				L47.1,102.9z M46.6,128.8l0.1,0.1c-0.1-0.1-0.1-0.2-0.1-0.6c3.2-1.4-0.9-4.2,1-6c-1,0.9-1.5,1.9-2.2,2.9
				c-0.5,0.8-1.1,1.5-1.6,2.3C44.8,127.9,45.6,128.2,46.6,128.8L46.6,128.8z M46.2,132.5l-2.2-1.7l-0.4,4.2
				C44.8,134,45.5,133.4,46.2,132.5L46.2,132.5z M47.1,109.2l2.4-0.1l-0.1-0.9C48.3,107.5,47,105.7,47.1,109.2L47.1,109.2z
				 M45.7,113.1c0.9,1.5,0.9,1.5,2.8-0.3C47.3,112.7,46.6,112.8,45.7,113.1L45.7,113.1z M46.7,94.8l0.4-1.4c-0.7,0-1.4,0-2.7,0
				C45.4,94.2,45.9,94.6,46.7,94.8z M45.3,92.2l3.1,0.2l0-0.7C47.3,91.6,46.2,91.8,45.3,92.2z M58.3,84.3L59,83l-0.8-0.3
				C58.2,83.2,58.1,83.7,58.3,84.3z M44.6,105.9l-1.4,0.3l0.1,0.5C43.7,106.5,44.2,106.3,44.6,105.9z M44.1,147
				c0,0.3-0.1,0.6-0.1,0.9c0,0,0.3,0.1,0.4,0.1C44.4,147.7,44.4,147.4,44.1,147z M44,136.4l-0.2-0.4l-0.4,0.3
				C43.6,136.4,43.7,136.5,44,136.4z M44.1,151l-0.1,0.3C44.1,151.3,44.2,151.3,44.1,151z M47.1,136.7l-0.3-0.1
				C46.9,136.7,46.9,136.8,47.1,136.7z"/>
			<path d="M123.5,67.4c-3,2.2-4.6-0.1-6.2-2.1c-3.8-4.6-7.8-9.1-11.1-14c-3.9-5.7-7.1-11.9-10.7-17.7c-1-1.7-2.6-3-4-4.8
				c-0.7-0.5-1.3-0.8-1.8-1c-0.6-0.7-1.4-1.4-2.2-2.5c0-0.3,0-0.6,0.2-0.6c1-0.3,1.9-0.7,2.9-0.9c0.4,0.2,0.7,0.4,1,0.8
				c0,0.4,0,0.7,0,1.2c1.3,1.2,2.4,2.1,3.6-0.1c0.4-0.4,0.7-0.8,1.2-1.1c1.5,0,2.7,0,4,0.1l0.2-0.6c-1.1-0.8-2-1.5-3.1-2.6
				c-0.4-0.5-0.8-0.7-1.1-1.2c1.3-0.7,2.7-1.1,4.1-1.5c1,0.7,1.9,1.4,2.9,2.6c0,1.1-0.1,1.8-0.1,2.6c-0.1,0.8-0.1,1.5-0.2,2.1
				c0,0,0,0-0.2,0c-0.6,0.1-1.1,0.3-1.8,0.5c-0.2,0-0.3,0-0.6,0c-0.6,0-1.1-0.1-1.7-0.1c-0.3,0.1-0.4,0.2-0.6,0.2
				c0.2,0.1,0.5,0.2,0.7,0.5c0,0.4-0.1,0.7-0.2,1.1c-0.9,1.6-0.4,2.2,1.2,2.5c-0.6,2.6,1.4,2.5,2.8,3.1c0.2,0.5,0.3,0.9,0.6,1.2
				l0.6-0.2c-0.2-0.6-0.3-1.4-0.6-2c0.2-1.2,0.6-2.3,0.9-3.4c2.4-0.9,1.2-2.1,0.8-3.4c-0.1-0.6-0.3-1.1-0.6-1.9c0-0.2,0-0.3,0-0.5
				c0-0.1,0-0.4,0-0.6c0-0.3,0-0.6,0-0.9c1.3,1.4,2.6,2.9,3.9,4.7c0.3,0.9,0.7,1.5,1,2.2c-0.2,0.4-0.4,0.6-0.8,0.9
				c-3.4-0.1-3.4-0.1-3.3,1.8c0,1.4,0,2.4-0.1,3.8c1.1-0.6,2.1-1.5,2.6-1.3c3.1,1.3,2.9-1,3.5-2.7c0.4,0.2,0.6,0.3,1,0.4
				c0.4,0.4,0.9,0.9,1.2,1.7c0.3,0.6,0.8,0.9,1.2,1.3c0,0,0.2,0.1,0.2,0.4c1,1.3,1.9,2.4,2.8,3.3c0.1,0.1,0.3,0.2,0.4,0.6
				c0,0.3-0.1,0.5-0.3,0.5c-1.6,0.4-3,0.8-4.5,1.3c1.1,1.5,2.1,3.1,4.1,1.9c0,0.4-0.1,0.7-0.2,1.1c0,0.6,0.1,1.3,0.3,1.8
				c0.1-0.2,0.2-0.4,0.6-0.6c0.6,0.6,1,1.2,1.4,2c0,0.2,0,0.3-0.2,0.4c-0.4,0-0.7-0.1-1.2-0.1c-1.7,0-3.5-0.7-3.7,1.6
				c1.1,1.1,2.2,2,3.1,3.3c0.8,1.2,1.4,2.3,2.1,3.4l0.2-0.1c0.5-0.4,0.8-0.8,1.2-1.1c0.4,0,0.7,0.1,1.1,0.1l0.6,0
				c0.4,0.2,0.7,0.3,1,0.5l-1.7,1.9l6.7,1.3l-0.1,0.8c-0.5,0.1-1,0.1-1.6,0.1c0-0.1-0.1-0.1-0.2-0.2c0.1,0.1,0.1,0.2,0.2,0.4
				c0,1.2-1.5,2.8,1.1,2.8c0.3,0,0.4,0,0.5,0.2c0.6,0.1,1.2,0,1.8-0.1c0.3-0.1,0.4-0.3,0.6-0.4c0.4,0,0.8,0,1.2,0.1
				c1,0.6,1.6,1.3,2.4,1.9c-0.9,0.8-1.7,1.5-3.1,2.2c-1.8,0.3-3.1,0.6-4.5,0.9c-0.4,0-0.8,0.1-1.5-0.2
				C124.6,67.1,124.1,67.3,123.5,67.4L123.5,67.4z M105,44l0.1,0.1c-0.1-0.1-0.2-0.3-0.2-0.4l-0.1-0.1C104.8,43.6,104.9,43.7,105,44
				L105,44z M112.4,48.9l-0.3,0.1L112.4,48.9z M103.3,42.1l0.2,0.1c-0.1-0.1-0.1-0.2-0.2-0.6l-1.2-0.4l-0.1,0.5
				C102.5,41.8,102.9,41.8,103.3,42.1z M114.6,56.9l-0.6,0c0.2,0.1,0.5,0.2,0.8,0.6c0.3,0.4,0.7,0.8,1,1.1l0.6-0.8
				C115.8,57.7,115.2,57.4,114.6,56.9z M109,39.3c0.3-0.2,0.5-0.3,1-0.6c0-0.1,0.1-0.1,0.1-0.2c-0.1-0.1-0.2-0.2-0.4-0.6
				c-0.3-0.1-0.6-0.2-1.1-0.6l-0.6-0.2c0,0.1,0.1,0.3,0.1,0.8c0,0.4-0.1,0.8,0,1.5C108.4,39.4,108.5,39.4,109,39.3z M105.9,41.2
				l-1.1-0.6l0,1.5C105.2,41.9,105.5,41.7,105.9,41.2L105.9,41.2z M127.3,65.3l-0.6-1.6l-0.7,0.3C126.4,64.6,126.8,65.1,127.3,65.3z
				 M112.5,45l1.3-0.3l-0.2-0.4C113.1,44.3,112.7,44.5,112.5,45L112.5,45z M120.4,57.7l-0.1,0.7c0.1,0,0.3,0,0.3,0
				C120.6,58.2,120.7,57.9,120.4,57.7z M98.9,35.7l-0.3,0.4C98.8,36.1,98.9,35.9,98.9,35.7z M117.3,57.6l0.5-0.4
				c-0.1-0.1-0.1-0.2-0.2-0.2C117.5,57,117.3,57.1,117.3,57.6z M121.8,62.4l-0.1-0.4l-0.5,0.4C121.3,62.5,121.4,62.5,121.8,62.4
				L121.8,62.4z M112.3,50.5l0.2,0.3C112.4,50.6,112.4,50.5,112.3,50.5L112.3,50.5z M110.6,44l-0.3,0.1
				C110.4,44.1,110.5,44.2,110.6,44L110.6,44z M111.7,39.9l-0.1-0.3C111.5,39.7,111.5,39.8,111.7,39.9z M116.7,61.8l0.3-0.2
				C116.8,61.6,116.7,61.6,116.7,61.8z M101.7,24l0.3,0.1C102,24.1,101.9,24,101.7,24z M96.5,28.9l-0.3,0.2
				C96.4,29.1,96.5,29.1,96.5,28.9z"/>
			<path d="M91,23.8c-0.8,0.4-1.6,0.6-2.9,1c-0.6,0-1.9,0-2.1-0.1c0.2-0.4-0.1-9.6,0.3-9.8c2-0.2,4.7,1.6,4.6,1.9l-1.5,3.5
				c-0.7,1.1-1.3,2.3-2.1,3.3c-0.7,0.2-1.3,0.4-1.8,0.8c0.2,0.4,0.6,0.7,0.8,1.3c0,0.5,0.1,0.8,0.1,1.2c-0.1,0.1-0.2,0.3-0.6,0.4
				c-0.8-0.3-1.3-0.3-1.9-0.6c-2.3,0.1-3.2,1-5.4,1.2l-1.2-0.3c2,0.3,8.3-4.7,10.3-4.2c-0.3,0.8-4.7,6.7-4.8,7.2
				c-0.2,0.1-0.4,0.2-0.9,0.4c-0.7,0.2-5.4,2.8-5.9,2.9c-0.1-0.6-1.2-2.8-1.2-3.5l1.4-1.7l-0.3,0.7l1.7,1c-0.3,1.4-0.7,2.7-1.1,4.1
				c-0.2,0.6-0.3,1.2-0.4,1.8c-0.4,0.7-0.7,1.2-1.4,2c-0.6,0.6-0.8,1.1-0.9,1.5c-4.7,8.3-9.4,16.7-16.6,23.2
				c-0.9,0.8-2.2,1.1-3.4,1.7c-0.9,0.5-1.8,0.8-2.7,1.4c-1.3,0.8-2.6,2-3.9,2.7c-0.6,0.4-1.5,0.2-2.3,0.4c0.2-0.5,0.5-1.1,0.4-1.6
				c0.5-5.2,3-10.2,6.4-13.3c2.5-2.3,5.1-4.5,7.3-7c3.1-3.7,5.8-7.7,8.8-11.5c3.2-4,6.5-8,9.8-12.1c2.1-2.6,4.4-5.2,6.4-7.8
				c2.6-3.3,5.1-6.6,10.3-4.7c17.3,16.7-1.8,3.5-2.2,5.1c-0.3,1.5,0.1,3.3,0.4,5c1.6,0.6,3.4,1,4.8-0.9c0.3,0.3,0.8,0.6,1,1.1
				c-0.4,1-0.7,1.9-1.1,3c-0.5,0.4-0.8,0.7-1.5,1.1c-1.4,0.1-2.4,0.1-3.4,0c0-0.3,0.1-0.6,0.1-1c0.6-0.4,0.9-0.6,1.3-0.8l-1.3-1.4
				L91,23.8L91,23.8z M68,39.9l-4-0.2C65.5,41.7,66.7,41.1,68,39.9L68,39.9z M69.1,36.5l-1.9-0.6l-0.1,1.1
				C67.8,36.8,68.3,36.7,69.1,36.5z M89.7,19.1c0.8-2.5-0.9-1-1.8-0.8C88.3,18.7,88.9,19,89.7,19.1z M88.4,16.7l0.5-0.3
				c-0.1,0-0.1-0.1-0.2-0.1c-0.7-0.1-1.5-0.1-2.2-0.2l0,0.7C87,16.7,87.6,16.7,88.4,16.7L88.4,16.7z M55.6,52.1l0.2,0.9l0.5-0.2
				C56.2,52.5,56,52.2,55.6,52.1z M61,45.9l0-0.8l-0.8,0.1C60.4,45.5,60.6,45.7,61,45.9z M47.2,59.5l1,0.3l0.1-0.7
				C47.8,59,47.5,59.1,47.2,59.5z M53.4,55.4l0.9-0.2l-0.2-0.5C53.9,54.8,53.6,55,53.4,55.4z M55.3,57.1l-0.5,0.4
				c0.1,0.1,0.2,0.2,0.2,0.2C55.2,57.6,55.3,57.5,55.3,57.1L55.3,57.1z"/>
			<path d="M128,91.7c-0.1-0.3-0.2-0.5-0.1-1.1c0-1-0.2-1.5-0.3-2.2c-1-2.7,0.8-6.2-2.5-8.5c-0.6-0.1-0.9,0-1.3,0.2c0,0,0,0-0.2,0
				c-3.5-0.4-2.9,2.2-3.4,4c-1.4,2.1-2.8,4.1-4.5,6.5c-1,1.3-1.7,2.5-2.7,3.6c-1.6,0-3.1,0-4.4,0c0.1-0.2,0.2-0.5,0.7-0.9
				c0.5-0.6,0.7-1,0.9-1.4c0.1-0.7,0.3-1.3,0.6-2.3c0.5-1.4,0.8-2.6,1.1-3.7c0.1-0.2,0.2-0.5,0.5-0.9c0.4-0.6,0.6-0.9,0.7-1.2
				c2.1-4.8,6.2-7.4,10.5-9.8c0.6-0.4,1.7,0,2.6,0.3c1.2,0.4,3.9,1.4,4.9,1.8c0.8,0.3,1.5,0.8,2.2,1.1l0.9,1.2c1.2,2.4-1.4,1.5,0,0
				c0.9,1,1.4,2,2.2,3.4l1.2,0.2c0.1,0.8,0.1,1.5,0,2.6c-0.1,0.6-0.2,0.8-0.4,1.1c-0.4,0.2-0.6,0.4-0.8,0.7l1,0.1c0,0-0.1,0-0.2,0.2
				c0.1,0.7,0.3,1.3,0.4,1.7c0.1,0.4,0.2,0.8,0.2,1.5c-0.3,0.4-0.6,0.5-1,0.5c-1.4-0.1-2.8-0.1-4-0.2l-0.2,0.8l3.9,3.8
				c0.2,2.3,0.3,4.6,0.3,7.3c-0.4,0.6-0.5,1-1,1.2c-0.9-0.2-1.8-0.4-2.7-0.6c-0.9-0.2-1.7-0.7-2.5-0.5c-0.5,0.1-1.1,1.6-0.9,1.9
				c0.6,0.7,1.5,1.1,2.4,1.8c0.2,0.3,0.3,0.4,0.4,0.7c-0.6,1.5-0.1,2.4,1.4,2.7c0.1,0.3,0.3,0.4,0.5,0.5c0,0,0,0,0,0.2
				c0,0.6-0.1,1-0.3,1.3c-0.4,0-0.7,0-1.1,0c-0.7,0.7-1.2,1.3-1.7,1.9c0,0,0,0-0.2,0c-1-0.3-1.7-0.5-2.4-1c-0.2-0.8-0.5-1.5-0.7-2
				c-0.5-0.4-1-0.8-1.2-1.5c1.7-1,1.3-1.7,0-2.3c0.1-1.2,0.2-2.2,0.5-3.6c1.7-1,1.5-1.7,0.1-2.3c0-0.3,0-0.5,0.4-0.9
				c1.1-0.1,1.8,0,2.6,0.2c0.4,0.3,0.9,0.5,1.2,0.6c-0.3-0.3-0.5-0.5-0.8-1c-1.1-0.5-2.1-0.8-3.2-1.2c0-0.8,0-1.5,0.1-2.3
				c-0.1-1-0.2-1.5-0.3-2c0-0.2-0.1-0.5,0.1-0.9C128.1,92.4,128,92,128,91.7L128,91.7z M134.4,101.4l0.5-0.2l-0.1-0.2
				c-0.2,0.2-0.5,0.3-0.8,0.4C134,101.4,134.1,101.4,134.4,101.4z M130.7,108.8l-1.4,0.7l0.5,0.6
				C130.2,109.7,130.6,109.2,130.7,108.8z M134,99.2l-0.6,0.7l1.2-0.1C134.6,99.6,134.5,99.4,134,99.2L134,99.2z M113.5,88.5
				l-0.4-1.6c-0.3,0.8-0.6,1.1-0.5,1.3C112.6,88.4,113,88.5,113.5,88.5z M130.2,107.8c0.1-0.1,0.1-0.1,0.1-0.2
				c0-0.1-0.1-0.2-0.2-0.2c-0.4,0.1-0.9,0.2-1.3,0.4l0.1,0.4C129.4,108.1,129.7,108.1,130.2,107.8z M131.2,84l-0.4-0.5
				c-0.1,0.1-0.2,0.2-0.2,0.2C130.9,83.8,130.9,84,131.2,84z M135.1,96.9l0-0.6l-0.4,0.1C134.8,96.6,134.9,96.7,135.1,96.9
				L135.1,96.9z"/>
			<path d="M127.6,141c-0.1-2.1-0.1-4-1.4-5.9c-0.8-1.2,0-3.4,0.1-5.1c0.1-2.1,0.5-4.3,0.8-6.8c0-0.8-0.1-1.1-0.1-1.4
				c-0.1-1-0.2-1.9,0.1-3.1c0.5-1.6,0.8-3,1.2-4.3c1.2-0.5,2.1-0.8,3.1-1.3l0.2,0.1c0.5,0.6,0.8,1.2,1,1.7l0.5-1.1
				c1.2,0.1,2.4,0.2,3.8,0.6c0.2,1.2,0.2,2.1,0,3.1c-0.2,2.8,0.8,5.2,1.7,7.8c0,0.8,0,1.4-0.2,2.6c-0.3,3.1-0.5,5.9-0.8,8.6
				c-0.5-0.4-0.9-0.8-0.9-1.2c-0.5-1.6-0.7-3.4-1.1-5.1l-2,1.7l0.9,0.6c0,0,0,0,0,0.2c-0.5,0.3-0.9,0.5-1.4,0.7l1.2,1.7
				c-1.6,0.4-3.1,0.6-4.5,0.8c-0.5-0.1-0.8-0.1-1.2-0.1l0.2,0.8c0.4-0.2,0.7-0.3,1.1-0.3c0.3,0.8,0.6,1.5,0.8,2l0,0.2
				c-0.1,0.7-0.2,1.2-0.3,2.4c0.7-1,1.1-1.4,1.6-1.9c0.4,0,0.7,0.1,1.1,0.1c0.6,0.1,1.1,0.1,1.4,0.2c-0.2,0.6-0.4,1-0.8,1.4
				c-0.9,1-1.6,2-2.4,2.8c-0.1-0.3-0.3-0.4-0.5-0.6c-0.1-0.1-0.1-0.1-0.2-0.2c0.1,0.1,0.1,0.2,0.2,0.4c0.1,0.3,0.3,0.4,0.4,0.7
				c-0.9,1.2-1.5,2.3-0.4,3.8c-0.2,0.8-0.5,1.3-0.8,1.8c-0.2,0-0.3,0-0.5-0.1c-0.2,0-0.4,0-0.7,0.1c-0.2,0.5-0.4,1-0.4,1.4
				c0,0.4,0.2,0.8,0.3,1.4c0.5,1,0.9,1.9,1.4,2.7c0.3,0.6,0.6,1,0.7,1.4c0.4,1.2,0.5,1.2,1.9,0.3c0.1,0,0.4,0,0.6,0.2
				c1.1,1.3,2.3,2.5,3.4,3.7c-2,1.1-3.9,2.4-6,3.4c-2.1,1-4.7-0.3-4.8-2.7c0-3.6,0.5-7.1,1.1-11c0.1-0.6,0.1-0.9,0-1.2
				c0.1-1.2,0.1-2.2,0.5-3.7C127.6,143.3,127.7,142.2,127.6,141L127.6,141z M129.2,121.9l2.9,6.1c2,2.4,2.5-1.5,4.3-1.4
				c-0.4-0.4-1.2-1.1-1.1-1.3c1.4-2.8-0.3-4.4-2.1-6.1c-1.4,0.8-2.8,1.7-4.4,2.5C128.8,121.8,128.9,121.8,129.2,121.9z M128.3,132.4
				l-1,0.1l0.2,0.8l3.8-1.1c-0.2-0.5-0.4-1.4-0.6-1.4c-1,0-1.9,0.2-2.8,0.3C128.2,131.6,128.4,131.9,128.3,132.4z M129.1,116.1
				l2.1-0.6c-0.7-0.4-1.3-0.5-1.9-0.4C129.1,115,129.1,115.9,129.1,116.1z M130.9,141.2c-1.3-2.1-1.5-0.2-1.9,0.6
				C129.4,141.7,130,141.5,130.9,141.2z M129.4,143.6l0.5-0.4c-0.1-0.1-0.2-0.2-0.2-0.2C129.5,143.2,129.3,143.3,129.4,143.6
				L129.4,143.6z"/>
			<path d="M108.6,94c1.5-0.2,3-0.1,4.4,0c-0.4,1-0.7,1.8-1.4,2.3c-1.9,1.3-1.4,3.1-1.1,4.8c-0.3,0.8-0.6,1.5-1.1,2.4
				c-0.5,0.7-0.7,1.1-0.9,1.6c0,0.1-0.1,0.2-0.4,0.5c-0.4,0.6-0.6,1-0.7,1.3c-1.6,2.6-3,5.2-4.8,7.5c-2.8,3.8-10.2,6.4-14.1,3.9
				c-2.9-1.9-4.8-5.5-6.6-8.6c-0.5-0.9,3.3-3.4,4.1-5.6c1.1,1.3,2.2,2.2,3.1,3.3c1,1.2-0.6,2.8,0,0c2.1,1.9,4,3.7,6.2,5.3
				c0.5,0.4,2.1,0.1,2.5-0.3c1.7-2.2,3.2-4.7,5.1-7.2c0.4-0.7,0.5-1.1,0.7-1.6c0.2-0.5,0.4-0.9,0.9-1.5c0.3-0.5,0.3-0.8,0.4-1.1
				c0.3-1,0.6-2,1.3-3.1c0.6-0.8,0.8-1.3,1-1.9C107.6,95.6,108,94.8,108.6,94z"/>
			<path d="M73.9,124.4c5.3,6.4,5.7,13.5,2.8,21c-1.1,2.6-2.4,5-4,7.4c-0.8-0.8-1.4-1.6-1.9-2.2c0.2-1,0.4-1.9,0.7-2.9
				c-0.1-1.8-0.1-3.4-0.3-5.4c-0.3,0-1.1-0.1-2-0.4c-0.4-2.4-0.3-4.9-1.4-6.8c-2-3.5-4.7-6.6-7-10.1c0.4-0.4,0.8-0.7,1.4-0.9
				c0.4-0.1,0.7-0.3,1.2-0.5c2.5-2.3-1.5-0.9-0.8-2.8c0.8-0.5,2.1-1.2,3.4-1.8c1,0.2,1.9,0.2,1.7,1.6c-0.1,0.6,0.8,1.2,1.1,2
				c0,0.6,0.1,1.4,0.2,1.4c2.5-0.1,2.6,1.4,2,3.1c-0.6-0.1-1-0.1-1.4-0.3c0.9-1.8,0-1.7-1.2-1.7c-1.2,0-2.3-0.4-3.7-0.7l-0.1,1.6
				c1.8,0.3,3.4,0.7,5,1.2c0.5,2.4,1.8,2.7,4,1.4c0.7,0,1.2,0,2.5,0c-1.2-0.6-1.6-0.8-2-1.2C74,126.3,74,125.3,73.9,124.4
				L73.9,124.4z M75.8,141.6l1.1-0.5l-0.5-0.5c-0.3,0.3-0.7,0.6-1.2,1C75.3,141.5,75.4,141.5,75.8,141.6L75.8,141.6z M74.3,138.3
				c0.8,0,1.8,0.3,2.3-0.1s0.5-1.4,1-2.6c-1.2,0.5-1.7,0.7-2.1,1c-0.5,0.3-0.9,0.6-1.6,0.7l-2.5-0.7l-0.3-1.5l-0.9,0
				c0,1.2-0.1,2.4,0,3.6l2.2-0.5l0.1,2.2l0.8,0.2C73.6,139.8,73.8,138.9,74.3,138.3z"/>
			<path d="M90.4,150c0.2,1,0.3,1.8,0.3,3c-1.2,0.2-2.1,0.3-3,0.4c-0.1-4.1-0.4-8.2,1.2-12c1.7-4.3,2.9-9,7-12
				c1.8-1.3,4-1.8,6.1-2.5c1.4-0.5,2.9-1.1,4.2-1.6c3.5-1.4,4.9-0.8,6.1,2.6c0.3,0.8-0.3,2-0.7,2.9c-0.1,0.3-1.3-0.1-2-0.1
				c-1.2-0.1-2.5-0.3-3.6,0c-4.5,1.4-8.4,4-11.4,8.2c-0.3,0.5-0.4,0.9-0.5,1.2c0,0.3,0,0.5-0.2,1.1c-0.5,0.8-0.8,1.4-1.1,1.9
				c-0.3,0.4-0.7,0.6-1,1c-0.3,0.7-0.3,1.1-0.4,1.7c-0.2,0.7-0.5,1.3-0.9,2C90.3,148.7,90.3,149.3,90.4,150L90.4,150z"/>
			<path d="M114.3,163.9c-0.3-0.7-0.8-1.4-0.8-2.2c0.1-2.4,0.4-4.8,0.7-7.7c0.1-1,0.3-1.4,0.4-1.9c0,0,0,0-0.2,0l-0.5-0.1
				c-0.1-0.6,0.1-1.2,0.1-1.7c-0.1-1-0.1-1.6-0.3-2c0.3-0.9,0.6-1.7,1-2.6c0.7-1.3,1.5-2.5,2.3-4.1c-0.4-0.4-0.8-0.4-1-0.4
				c-0.7,0.2-1.3,0.2-2.3,0.3c-0.8,0.1-1.2,0.1-1.6,0.3l-10.5,2.5l-0.4-0.8c0.7-1.6,1.6-3,3.7-3.6c3.5-1,7-2.6,10.9-3.8
				c2.6,0.4,4.8,0.7,6.9,1c-0.6,0.7-1.3,1.5-2.3,2.3c-0.4,0.9-0.5,1.8-0.5,2.8c-0.3,0.7-0.5,1.4-1.1,2.4c-0.4,0.6-0.5,0.8-0.9,1.2
				c-0.3,0.1-0.4,0.1-0.6,0.2c0.2,0.1,0.5,0.2,1,0.3l1.8,0.3c0,0.2,0.1,0.5-0.1,1c-0.2,0.9-0.3,1.5-0.2,2.3c0,0.3,0,0.5-0.2,1
				c-0.1,0.6-0.1,0.9-0.1,1.2c0,0.4,0,0.7-0.2,1.4c-0.2,1.5-0.1,2.7-0.3,3.9c-0.5,0.1-0.8,0.3-1.2,0.3c0.4,0.1,0.9,0.2,1.2,0.5
				c-0.4,1.4-0.6,2.7-0.9,4c0.2,0.3,0.3,0.4,0.5,0.5c-0.2,0.2-0.4,0.4-1,0.5c-0.7,0.2-1.1,0.4-1.4,0.7c-0.2,0.1-0.4,0.1-0.9,0.2
				C114.9,163.8,114.6,163.8,114.3,163.9z M115.4,161.1l-0.1,0.9l0.3,0c0-0.4,0.1-0.7,0.3-1C115.8,160.9,115.7,160.9,115.4,161.1
				L115.4,161.1z M117.5,156.3c0.1-0.2,0.2-0.3,0.2-0.5c0-0.1,0-0.2-0.1-0.2l-2,1.4l0.6,0.5C116.6,157.3,116.9,156.9,117.5,156.3z
				 M115.7,154.7l0.6,0.6l0.3-0.5C116.4,154.6,116,154.6,115.7,154.7z M117.4,150.5l0.3,0.1C117.5,150.6,117.5,150.5,117.4,150.5z
				 M117.3,152.9l-0.1-0.3C117.3,152.7,117.2,152.8,117.3,152.9z"/>
			<path d="M62.1,124.1c-0.4,0.3-0.8,0.5-1.4,0.9c-2.2-0.3-4.2-0.9-6.1-1.5c-0.8-0.3-1.4-0.9-2.1-1.4c0.6-0.6,1.1-1.3,1.8-1.8
				c3.1-2.2,6.9-4,9.5-6.7c2.9-3,4.9-7,7.2-10.1c0.3,0.9,0.5,1.5,0.7,2.3c0.3,0.8,0.6,1.5,1,2.2c0.4-0.3,0.7-0.7,1.1-1.2
				c0.6,0,1,0.1,1.6,0.2c0-0.6,0.1-1.1,0.1-1.8c-0.4-0.5-0.7-0.7-1.2-1c-0.4,0-0.6,0-1.1-0.1c-0.4,0-0.7-0.1-0.9-0.2
				c0.5-0.9,0.9-1.7,1.3-2.5l0.1,0.1c0.4,0.3,0.7,0.4,1.1,0.7c0.8,0.3,1.4,0.4,2,0.7c0.2,0.4,0.3,0.7,0.4,1.2
				c-0.1,0.8-0.1,1.4-0.3,2.2c-0.1,0.8,0,1.5,0,2.3c0,0.2-0.1,0.4-0.4,0.8c-0.3,0.5-0.3,0.9-0.4,1.4c-0.1,0.5-0.2,0.8-0.3,1.1
				c0,0-0.1,0.1-0.3,0.2c-1.4,1.3-2.7,2.5-4,3.7c-1.6-0.3-3.1-0.6-4.7-0.9c-0.1,1.1-0.2,2.1-0.5,3.3c-0.2,0.3-0.4,0.6-0.5,1
				l-3.3,1.8c-0.6,1.8,3.3,0.5,0.6,2.8C62.6,123.8,62.4,123.9,62.1,124.1L62.1,124.1z M60.2,118.7c-0.1,0-0.2-0.1-0.3-0.1
				s-0.2,0-0.2,0.1c0.2,0.8,0.4,1.6,0.5,2.4l1.2-0.3C61,120.1,60.7,119.5,60.2,118.7z M62.6,117.2l2.6,0.4l0.1-0.8
				C64.5,116.8,63.7,116.9,62.6,117.2z"/>
			<path d="M38.6,81.3c0.3-0.8,0.6-1.5,0.8-2.2c1-3.1,2.4-6,5.8-6.8c1.4-0.3,2.9-0.1,4.2,0.1c6,3.4,2.5,2.9,2.3,4
				c-0.8,3.3-2.8,2-3.5,1.8c-2.9-0.8-3.6-0.1-3.1,2.8L43,80.9c-0.2,1.2-0.1,2.5-0.7,3.4c-0.5,0.8-1.9,1.1-3.3,1.8
				C38.9,84.2,38.7,82.9,38.6,81.3z"/>
			<path d="M87.6,153.5c1-0.2,1.8-0.3,3-0.4c0.3,0.1,0.4,0.2,0.2,0.5c-1,0.4-1.7,0.7-2.4,1l0.1,0.5l3.1,0.3c1.3,1.7,2.5,3.5,3.9,4.9
				c1.1,1.1,1.9,0.8,2.4-1c0-0.5,0-0.8,0-1c4.3,1.3,8.2-0.2,12.1-1.4c-1.9,7.8-8.4,6.9-14.1,7.1c-4.5,0.2-6.2-3.1-7.7-6.8
				c-0.2-0.7-0.5-1-0.9-1.4C87.4,155.3,87.5,154.5,87.6,153.5z"/>
			<path d="M71.4,147.9l-0.7,2.7c0.6,0.7,1.2,1.5,1.8,2.3c-0.1,0.5-0.2,0.8-0.7,1.2c-0.6,0.5-0.8,0.9-1,1.3c-4,2.9-8,5.8-12,8.6
				c-0.3,0.2-1.1-0.2-1.7-0.3c-0.6,0-1.2,0.1-2-0.1c-0.2-0.8-0.3-1.3-0.3-1.8l0.7,0.3c0.7-1.1,1.3-2.2,2.1-3.3c0,0,0,0-0.2,0
				c-0.9-0.1-1.7,0-2.4-0.3c-0.6-0.1-1.2-0.5-1.9-0.7c0,0,0,0,0.1,0c0-0.2,0-0.4,0-0.7c0-0.4,0-0.6,0.1-0.9c0.1-0.2,0.2-0.3,0.4-0.4
				c7,1.7,10.1,0.2,12.7-6c0.3-0.7,0.7-1.3,1.2-1.8c0.4,0.1,0.6,0.2,0.8,0.4c0.2,0.4,0.4,0.5,0.6,0.7c0.1-0.3,0.3-0.6,0.5-1
				c0.2-0.2,0.3-0.3,0.6-0.4l0.6,0L71.4,147.9L71.4,147.9z M67.7,153.2c-0.1,1.1-2,2.2,0.4,3.6C68.1,155.3,68.1,154.3,67.7,153.2z"
				/>
			<path d="M83,79.7c-0.4-0.5-0.8-1.2-1.2-2c-1.4-1.4-2.5-2.4-3.8-3.5c-0.3-0.3-0.5-0.6-0.7-1c0-0.5,0-0.6,0.1-1
				c0.8-0.3,1.5-0.4,2.3-0.6c0.6-0.2,1.3-0.3,1.8-0.7c0-0.1,0.1-0.4,0.3-0.4c0.1,0,0.4,0.1,0.6,0.2c1.3,1.6,2.5,3.1,3.7,4.5
				c1.7,2.2,2.2,2.2,4-0.1c1.1-1.4,2.5-2.3,3.8-3.3c0.2,0.2,0.3,0.2,0.4,0.2c-0.1-0.1-0.2-0.3-0.2-0.6c0.5-1.6,0.8-3,1.5-4.5
				c1,0.3,1.7,0.5,2.5,0.8l-0.2-0.9l2.7-0.9c0.1,0.2,0.2,0.5,0.2,1.1c0,0.5,0,1.1,0.2,1.6c-0.2,0.8-0.4,1.5-0.9,2.5
				c-0.6,0.3-0.9,0.3-1.4,0.6c-0.6,0.9-0.9,1.6-1.7,2.4c-1.4,0.1-2.6,0.2-4.2,0.4l1,4.6c-0.4,0.3-0.7,0.8-1.4,1.3
				c-0.5,0.4-0.8,0.7-1,1c-0.5,0.2-0.9,0.4-1.7,0.6c-0.6,0.1-1.2,0.2-1.8,0.4c-0.4,0-0.8-0.1-1.5-0.5C84.9,80.9,83.9,80.3,83,79.7z
				 M87.5,79.8l0.3,0L87.5,79.8L87.5,79.8z M85.2,78.9l-1.1-0.5L84,79c0.5,0,1,0,1.6,0C85.7,79,85.5,79,85.2,78.9L85.2,78.9z
				 M96.1,70.3l0.8,0.8l0.5-1.4C96.9,69.7,96.6,69.8,96.1,70.3L96.1,70.3z M95.9,73l0.4-0.1C96.1,73,96,72.9,95.9,73L95.9,73z"/>
			<path d="M133.6,140c0.2-0.4,0.4-0.8,0.7-1.5c0-0.4,0.1-0.5,0.2-0.6c1.5,0.1,2.8,0.2,4.1,0.5c-0.1,1.3-0.3,2.5-0.7,4.1
				c-0.1,0.7,0.1,1,0.2,1.3c0.1,0.8,0.1,1.5,0,2.5c-0.2,0.6-0.1,0.9,0,1.3c0,0.6,0,1.2-0.3,1.9c-0.2,0.6-0.2,0.9-0.2,1.3
				c0.1,1.2,0.2,2.3-0.1,3.6c-0.7,0.2-1.3,0.2-1.3,0.4c-0.6,2.4-1.6,1.4-2.7,0.2l-0.5,1.2c0,0-0.3,0-0.6-0.1
				c-0.4-0.8-0.5-1.6-0.5-2.5l-1.9,0.7c-0.5-0.8-0.9-1.7-1.2-2.6c0.5-1.1,0.8-1.9,1.2-2.8c0.2-0.6,0.5-1.1,0.9-1.8
				c0.5-0.1,1.1,0,1.5,0c0.9-2.1,1.7-3.9,2.6-5.6c0-0.2,0-0.4-0.2-0.7C134.5,140.4,134.1,140.2,133.6,140L133.6,140z M135.3,147.1
				l-0.8,0.1l0.1,0.4c0.4-0.2,0.7-0.3,1.2-0.5C135.7,147.1,135.7,147.1,135.3,147.1z M134.9,145l-0.6,0.5l0.3,0.3
				c0.2-0.3,0.4-0.5,0.7-0.9C135.3,145,135.3,145,134.9,145z"/>
			<path d="M100.5,65.2c-1,0.4,0.7,0.6-0.2,1l-2,1.8c-0.8-0.3-1.4-0.6-2.5-1.1c-0.9-0.9-1.8-3-2.4-2.9c-1.5,0.1-3.2,0.6-4.5,1.4
				c-0.5,0.3,0.1,2.2,0.2,3.3c0.1,0.8,0.4,1.6,0.7,2.3c-0.8,0-1.5,0.2-2.3,0c-0.5-0.5-1-1-1.7-1.4C85,69.3,84.5,69,84,68.3
				c0.1-1,0.2-1.9,0.5-2.8c1.2-0.2,0.3-1.7,1.3-1.8l1.6,0.4c-1.2,1.5-2.7-0.9-3.7,2.5c-0.3,0.4-2.4,1.5-2.9,1.6
				c-0.8-0.7-1.7-3.3-2.5-4.1c1.7-1.2,2-3.7,3.8-4.8c1,0.2,6.3,3,7,3.1c2-0.1,2.1-1.9,4.2-2c1.7,0.1,4.4,0.2,4.4,2.5
				C97,63,98.7,63.8,98,63.8l-3.5-0.5c1.3,0.1,2.5,0.2,3.9,0.3c0.1,0,0.4,0.1,0.5,0.1c0.2,0,0.3,0.1,0.5,0.3
				c0.2,0.4,0.5,0.5,0.8,0.7C100.5,65,100.5,65,100.5,65.2z"/>
			<path d="M127.9,62.6c-2.5,0.1-0.9-1.6-1-2.7l0-0.2l1.6-0.2l0.1-0.8l-6.7-1.3l1.7-1.9c-0.2-0.2-0.5-0.3-0.9-0.6
				c0.5-0.5,1.1-1,2-1.4l-1.5-0.7c0,0,0,0,0-0.2c0-0.6,0.1-1.2,0.2-1.6c0.5-0.5,0.8-1.1,1.3-1.6c0.3,0,0.4,0,0.5,0
				c0.3,0.3,0.6,0.5,1,1.1c0.4,0.7,0.9,1,1.2,1.3c0.4,0.5,1,1.1,1.4,2.1c0.4,0.8,0.9,1.2,1.2,1.7c0,0-0.1,0-0.1,0.2
				c0.5,0.8,1.1,1.5,1.6,2.3c0,0,0,0,0,0.2c1,1.4,2,2.7,3,3.9c0.1,0.7,0.1,1.5,0.1,2.4c-1-0.5-1.6-1.2-2.6-2c-0.7-2.9-3,0-4-1.5
				L127.9,62.6L127.9,62.6z"/>
			<path d="M66.8,88.9l0.8-2.6l-4.2-3.1c0.8-0.8,5.3,1.6,6.4,0.6c0.4-0.1,0.8-0.2,1.2-0.2c0.2,0.1,0.4,0.2,0.6,0.6
				c0.8,0.7,1.6,1.1,2.3,1.5c0.7,0.8,1.5,1.6,2.2,2.7c0.4,0.7,0.8,1.1,1.2,1.5c0.2,0.2,0.3,0.5,0.5,1.1c0.3,0.7,0.6,1,0.9,1.3
				c0.2,0.4,0.5,0.7,0.6,1.5c-0.1,0.7-0.2,1-0.4,1.3L76.1,95c-0.4,0-0.7-0.1-1-0.2c-0.3-0.4-0.7-0.9-0.7-1c1.8-2.3-2.2-0.8-3.3-1
				l2.3-3.6c-1.8,0.1-3.4,0-5.1,0.1C67.7,88.9,67.3,88.9,66.8,88.9L66.8,88.9z"/>
			<path d="M57.5,158.7l-2,3.3l-0.7-0.3c0,0.5,0.1,1.1,0.1,1.8c-0.3,0.3-0.6,0.5-1,0.5c-1.4-4.9-3.9,0.1-5.3-0.6
				c-1.1-1.7-1.9-3.2-3-5c0.2-0.4,0.6-0.7,1.1-1c0.2-0.3,0.4-0.6,0.5-1c0,0,0.3,0,0.5,0c0.4,0,0.5,0,0.6,0c0.6,0,1.2,0.1,2.1,0.3
				c0.6,0.7,0.9,1.2,1.2,1.7l1.7-1.1c0.6,0.2,1.2,0.6,1.9,0.7c0.7,0.1,1.5,0.1,2.4,0.3L57.5,158.7L57.5,158.7z M48.8,160l0-0.6
				c-0.1,0.2-0.2,0.5-0.4,0.7C48.4,160.1,48.5,160.1,48.8,160z M49.2,161l0.3,0.1C49.5,161,49.5,160.9,49.2,161z"/>
			<path d="M96.5,20.9c-1.5,2-3.3,1.6-4.9,0.9c0-1.8-0.5-3.6-0.1-5c0.5-1.7,1.6-3.1,2.5-4.9c2.1,2.3,4.2,4.7,6.4,7.4
				C99.2,19.8,97.8,20.2,96.5,20.9L96.5,20.9z"/>
			<path d="M84,60.6l-4.8,3.6c0.7,0.7,1.4,1.4,2.3,2.4c0.3,1,0.5,1.7,0.6,2.6c-0.1,0.6-0.3,1-0.4,1.5c0,0-0.3-0.1-0.6-0.2
				c-0.9-0.4-1.9-0.8-2.7-1.3l-0.4,0.8l3,1.1c-0.6,0.2-1.2,0.4-1.7,0.5c-0.7,0.2-1.5,0.3-2.4,0.5c-0.4,0-0.7-0.1-0.9-0.2
				c-0.3-0.5-0.6-1-0.8-1.9c0.3-0.7,0.3-1,0.6-1.4c0.2-0.4,0.2-0.7,0.3-1.2c0.6-1.2,1-2.1,1.5-3.2c1.1-1.6,2.2-3.2,3.8-4.8
				C82.4,60,83.2,60.3,84,60.6L84,60.6z"/>
			<path d="M138.7,138.2c-1.4,0.1-2.7-0.1-4.2-0.3c-0.2,0-0.2,0-0.2-0.1c-0.1-0.3-0.3-0.4-0.5-0.5c0,0,0,0,0-0.1
				c-0.1-0.3-0.3-0.4-0.6-0.5c-2.1-0.9-0.9,1.2-1.6,1.5l-1.4,1.9c0.2-1.2,0.2-1.6,0.4-2.4c0-0.2,0-0.2-0.1-0.2
				c-0.3-0.6-0.6-1.3-0.8-2c0-0.2,0-0.2,0-0.2l4.5-0.9l-1.2-1.7c0.5-0.2,0.9-0.4,1.5-0.6c0-0.2,0-0.1-0.1-0.1l-0.9-0.6l2-1.7
				c0.4,1.7,0.7,3.5,1.1,5.1c0.1,0.5,0.5,0.8,0.9,1.4c0.5,0.5,0.9,0.8,1.1,1C138.7,137.5,138.7,137.7,138.7,138.2L138.7,138.2z"/>
			<path d="M76.4,94.4c0.8,0.1,1.6,0.1,2.7,0.4c0.6,1.2,0.9,2.3,1.1,3.3c-0.2,0.6-0.3,1.2-0.7,1.9c-0.4,0.1-3.5,8.8-3.8,8.7
				c-0.5-0.6-5.1-14.8-5.5-15.5l6-2.4l-0.5,9.1l-0.2-3.4l-0.4-1.8L76.4,94.4z"/>
			<path d="M138.7,124.7c-1-2.3-2-4.8-1.8-7.6c0.1-1,0-1.9,0-3.3c-0.2-1.6-0.2-3-0.2-4.3c0.1-0.1,0.3-0.1,0.3-0.1
				C137.5,114.5,138.1,119.5,138.7,124.7z"/>
			<path d="M73.9,124.2c0.1,1,0.1,1.9,0.1,3c0,0.2,0,0.2-0.2,0.2c-0.9-0.1-1.7-0.1-2.6-0.3l0,0c0.2-1.8,0.2-3.3-2.2-3.1
				c0,0-0.2-0.8-0.2-1.4c0.1-0.2,0.1-0.2,0.2-0.2c0.1-0.4,0-0.7,0-1.2c0-0.3,0-0.4,0-0.4s0,0,0.2,0c0.6,0,1,0.1,1.4,0.3
				c0.9,0.9,1.8,1.6,2.7,2.4C73.5,123.7,73.7,123.9,73.9,124.2z M72.4,124.8l0.3,0.1C72.7,124.8,72.6,124.8,72.4,124.8z"/>
			<path d="M77.4,33.5l1.2-3.8l-1.5-1.1l0.3-0.6l4,1c-0.1,0.7-0.1,1.4,0.1,2.1c0.2,0.3,0.2,0.4,0.2,0.5c-0.8,0.8-1.6,1.4-2.9,2.1
				C78,33.5,77.7,33.5,77.4,33.5z"/>
			<path d="M110.7,101c-0.4-1.6-0.8-3.3,1.1-4.7c0.7-0.5,1-1.4,1.6-2.3c0.8-1.3,1.6-2.4,2.5-3.6c-0.5,1.5-1.2,3.1-2,4.6
				C112.8,97,111.7,98.9,110.7,101L110.7,101z"/>
			<path d="M133.3,156.2c0-0.5,0.2-0.9,0.3-1.3c1.1,1.1,2.2,2.2,2.7-0.2c0-0.2,0.6-0.2,1.1-0.3c0,1.8-0.3,3.7-0.7,5.5
				C135.5,158.8,134.5,157.5,133.3,156.2z"/>
			<path d="M96.4,62.4c-0.3-2.2-1.9-1.6-3.4-1.6c3.3-2.3,6.2-0.7,6.7,4.3c-0.3,0-0.6-0.2-0.9-0.6c-0.3-0.3-0.5-0.2-0.6-0.2
				c0,0-0.2,0-0.4-0.3C97.3,63.3,96.8,62.8,96.4,62.4z"/>
			<path d="M113.7,41.9c-2.5,2.6-3.7-0.3-5.1-3.1c1.8-0.8,3.4-1.5,5.6-2c0.9,0.7,1.6,1.3,2.1,1.7c0.3,0,0.4,0.2,0.4,1
				c-0.1,0.8-0.1,1.2-0.3,1.6C115.2,41.5,114.5,41.7,113.7,41.9z M138.4,94.2c-1.5-1.1-2.8-2.3-4.3-3.6l0.2-0.8
				c1.3,0,2.6-0.1,4.1,0.1c0.1,1.1,0.3,2,0.4,2.8C138.6,93.2,138.5,93.6,138.4,94.2z"/>
			<path d="M66.7,117.9l0.4-3.2c1.6,0.3,3,0.6,4.6,1.1c-0.1,0.6-0.3,0.9-0.6,1.3c0,0-0.2,0.1-0.5,0.1c-0.6,0.4-0.9,0.7-1.4,1.1
				L66.7,117.9L66.7,117.9z"/>
			<path d="M93.1,79c-0.5-1.5-0.8-3-1.1-4.6c1.5-0.2,2.7-0.2,4.1-0.1c0.1,0.6,0.1,1,0,1.3c-0.1,0.2-0.2,0.3-0.7,0.5
				c-0.5,0.3-0.6,0.6-0.8,1C94.2,77.7,93.8,78.3,93.1,79z"/>
			<path d="M134.3,111c0-0.4,0.1-0.8,0.3-1.4c0.1-1,0-1.7-0.1-2.5l-1.1-0.1c0.8-0.8,1.7-1.5,2.6-2.2c0.4,0,0.6,0.1,0.8,0.1
				c0,0.2,0.1,0.5-0.1,0.9c-0.1,0.6,0,0.9,0.1,1.3c0.1,0.7,0.1,1.4,0.1,2.3c-0.1,0.2-0.3,0.2-0.5,0.4c-0.5,0.6-0.8,1-1.3,1.4
				C134.7,111,134.5,111,134.3,111L134.3,111z"/>
			<path d="M138.7,137.1c-0.4,0-0.7-0.3-1-0.8c0.1-2.9,0.3-5.7,0.6-8.6C138.6,130.7,138.7,133.8,138.7,137.1L138.7,137.1z"/>
			<path d="M118.3,161.7c0.3-1.2,0.6-2.5,0.9-4c0-0.5,0-0.6,0-0.7c0-1.2,0-2.3,0.1-3.7c1.1,2.7,1.2,5.5-0.5,8.4
				C118.6,161.8,118.4,161.7,118.3,161.7z"/>
			<path d="M66.5,117.9c0.9,0,1.8,0.1,2.7,0.4c0.6,0.6,0.9,1.1,1.3,1.5c0.1,0.1,0.2,0.3,0.4,0.7c0,0.2,0,0.3,0,0.5
				c-0.4,0-0.8-0.1-1.4-0.2c-0.3-0.1-0.3-0.2-0.3-0.2l0.2,0.2c0,0.1,0,0.2,0,0.6c0,0.6-0.1,0.8-0.1,1l0,0c-0.4-0.6-1.3-1.3-1.2-1.9
				c0.2-1.4-0.7-1.4-1.7-1.6C66.1,118.5,66.3,118.3,66.5,117.9L66.5,117.9z"/>
			<path d="M71.2,117.1c0-0.4,0.3-0.8,0.5-1.3c1.2-1.4,2.5-2.6,3.9-3.8C75.9,114.1,73.8,116.5,71.2,117.1z"/>
			<path d="M125.2,48.8c-0.1,0.2-0.2,0.2-0.7,0.2c-1.1-0.3-1.6-0.5-2.2-0.7c0,0,0,0,0-0.2c-0.3-1-0.6-1.9-0.9-2.7
				c-0.2-0.6-0.4-1.1-0.6-1.9c0.1-0.1,0.3-0.2,0.3-0.2C122.4,45,123.8,46.8,125.2,48.8z"/>
			<path d="M120.4,83.9c0.3-1.8-0.3-4.4,3.2-4.1C122.7,81.2,121.6,82.6,120.4,83.9L120.4,83.9z"/>
			<path d="M122.8,136.9c-2.2-0.1-4.4-0.4-6.8-0.8c1.7-0.3,3.6-0.6,5.5-0.6C122,135.4,122.4,136.3,122.8,136.9z"/>
			<path d="M137.6,82.4c-0.7,0-1.3-0.1-1.3-0.1c-0.7-1.5-1.2-2.4-2-3.5c0.8-1.2,1.6-1.4,2.2,0.3c0.2,0.5,0.7,1,1,1.8
				c0.2,0.6,0.2,0.9,0.3,1.2C137.8,82.2,137.7,82.3,137.6,82.4L137.6,82.4z"/>
			<path d="M136.8,99.5c-3.5-1.8-5.6-4.4-6.2-7.9c2.8-2,4.2-3,6.9-4.9C138.3,90.5,138.3,94.7,136.8,99.5z"/>
			<path d="M107.9,34.2c-0.3-0.5,0.5-6.2,0.1-7c2.6,0.3,2.9,2.6,3.7,4.5c-0.9,0.3-3.8,1.1-1.1-0.3c-0.7-0.9-0.7,1.3-1.1,0.5
				L107.9,34.2z"/>
			<path d="M67,81.3c-2-0.3-4-0.9-6-1.5C62.9,80.1,64.9,80.6,67,81.3z"/>
			<path d="M84.3,60.6c-1-0.3-2-0.7-3-1.1c1.5,0.3,3.4,0.8,5.4,1.4C86,60.9,85.3,60.7,84.3,60.6z M96.3,75.6c-0.2-0.3-0.1-0.7,0-1.3
				c0.5-1,0.9-1.7,1.6-2.5c0.6-0.1,0.9,0,1.1,0C98.2,73,97.4,74.2,96.3,75.6z"/>
			<path d="M59.7,79.1c-1.4,0.1-3,0-4.7-0.2C56.5,78.8,58.1,79,59.7,79.1z M51.7,80.4c-0.2,0.3-0.5,1-1,1.2
				c-0.8,0.4-1.8,0.6-2.8,0.8C48.8,81.9,50.1,81.2,51.7,80.4L51.7,80.4z"/>
			<path d="M91.5,155.2c-3.2,0.2-5.3-0.6-3-0.2l-0.1-0.5c0.7-0.3,1.5-0.5,2.4-0.9C91.1,154.2,91.3,154.7,91.5,155.2z"/>
			<path d="M128.3,114.2c-0.2-0.5-0.2-1.1-0.2-1.8c-0.1-0.3-0.1-0.3,0.1-0.3c0.3,0,0.5,0,0.6,0c0.8,0.3,1.5,0.5,2.5,0.8
				C130.4,113.4,129.4,113.7,128.3,114.2z"/>
			<path d="M70.7,121.1c0-0.2,0-0.4,0.1-0.6c0.9,0.8,1.8,1.7,2.5,2.7C72.5,122.8,71.6,122.1,70.7,121.1z"/>
			<path d="M118.1,145.6c0.2-0.3,0.3-0.7,0.7-0.9c0.6,0.5,1,1,1.5,1.6c-0.6,0.1-1.2-0.1-1.9-0.3
				C118.2,145.8,118.1,145.7,118.1,145.6z"/>
			<path d="M127.5,141.2c0.2,1,0.2,2.1,0,3.4C127.3,143.6,127.4,142.4,127.5,141.2z"/>
			<path d="M126.8,106.1c1.3,0.5,1.7,1.3,0.1,2C126.7,107.5,126.7,106.9,126.8,106.1L126.8,106.1z"/>
			<path d="M111.8,85.7c-0.1,1.1-0.5,2.2-0.9,3.5C111,88.2,111.3,86.9,111.8,85.7z"/>
			<path d="M130.6,99.4l-2.5-0.2c-0.3-0.3-0.3-0.5-0.2-1c1.1,0.1,2.1,0.5,3.1,1C130.9,99.4,130.6,99.4,130.6,99.4z M127.5,100.3
				c1.4,0.5,1.6,1.2,0.1,2C127.4,101.7,127.4,101,127.5,100.3z"/>
			<path d="M136.9,104.7c-0.3,0.2-0.5,0.2-0.8-0.1c-0.1-0.7-0.1-1.1-0.1-1.4c0.2-0.3,0.4-0.7,0.7-1C137,102.9,137,103.6,136.9,104.7
				L136.9,104.7z"/>
			<path d="M119.9,149.4c-0.1-0.7-0.1-1.4,0.1-1.9C120.1,148.1,120,148.6,119.9,149.4z M120,141.9c-0.1-0.7,0-1.6,0.2-2.5
				C120.3,140.1,120.2,140.9,120,141.9z"/>
			<path d="M75.7,81.3"/>
			<path d="M40.4,124.3c0.3,0.7,0.5,1.5,0.4,2.5C40.7,126.1,40.5,125.3,40.4,124.3z"/>
			<path d="M69.9,118.9c-0.4-0.2-0.7-0.7-1.1-1.3c0.3-0.5,0.6-0.9,1.1-1.2C70.1,117.2,70,118,69.9,118.9z M75.6,111.1
				c-0.1-0.4,0-0.7,0.3-1.2c0.3-0.4,0.4-0.5,0.5-0.6C77.8,110.5,77,111,75.6,111.1L75.6,111.1z"/>
			<path d="M91.3,145.9c-0.2-0.5-0.2-1.2-0.2-1.9C91.3,144.6,91.3,145.2,91.3,145.9z"/>
			<path d="M127.5,88.5c0.2,0.5,0.4,1.1,0.4,1.8C127.7,89.9,127.6,89.3,127.5,88.5z"/>
			<path d="M103.1,23.9c0.1-0.6,0.1-1.4,0.2-2.2c0.3-0.1,0.6,0.1,1.1,0.5c0,0.4,0,0.6-0.1,1.2c-0.3,0.3-0.4,0.5-0.5,0.6
				c0,0,0,0-0.1,0C103.4,23.9,103.1,23.9,103.1,23.9z"/>
			<path d="M76.2,32.6c1-0.3,1.7-0.3,3-0.1c-0.7,1.5-1.9,2.8-3.9,4.4C75.3,35.6,75.8,34.4,76.2,32.6z"/>
			<path d="M86.4,23.6c2.1-0.3,3.6-0.3,6.2-0.2c-1.5,1.5-4.1,2.9-8.2,4.5C84.4,26.6,85.4,25.3,86.4,23.6z"/>
			<path d="M77.8,106.1c0,0.3,0,0.6,0,1.2c-0.1,0.5-0.3,0.8-0.5,1.1c-0.2-0.7-0.3-1.5-0.1-2.2C77.4,106.1,77.6,106.1,77.8,106.1z"/>
			<path d="M53.7,78.9c-0.3,0.5-0.8,0.9-1.5,1.3C52.5,79.6,53,79.3,53.7,78.9z"/>
			<path d="M88,26.5c-0.2-0.2-0.2-0.5-0.1-1.2c0.3-0.5,0.4-0.6,0.6-0.8l1.1,0.2c0.2,0,0.1,0.3,0.1,0.4C89.1,25.6,88.6,26.1,88,26.5
				L88,26.5z"/>
			<path d="M106.9,96.3c-0.1,0.5-0.3,1.1-0.7,1.7C106.3,97.6,106.5,97,106.9,96.3z"/>
			<path d="M119.7,42.2c0-0.1,0-0.3,0.1-0.6c0.4,0.3,0.8,0.8,1.2,1.4c0,0.2-0.2,0.3-0.4,0.3C120,43,119.8,42.6,119.7,42.2z
				 M123.7,67.4c0.3-0.2,0.9-0.3,1.6-0.4C124.8,67.3,124.4,67.4,123.7,67.4z"/>
			<path d="M137.8,88.1c-0.2-0.4-0.4-0.9-0.5-1.6C137.6,86.9,137.8,87.4,137.8,88.1z"/>
			<path d="M42,147.4c0.2,0.5,0.2,1.1,0.1,2C42,149,41.9,148.2,42,147.4z"/>
			<path d="M128.8,111.9c-0.1,0.2-0.3,0.2-0.6,0.1c-0.2-0.6-0.2-1.3-0.2-2C128.3,110.5,128.5,111.1,128.8,111.9z"/>
			<path d="M92.7,143.4c-0.1-0.4-0.1-0.9,0.2-1.4C92.9,142.4,92.9,142.9,92.7,143.4z"/>
			<path d="M127.7,93.8c0.2,0.4,0.4,1,0.5,1.6C127.8,95.2,127.8,94.6,127.7,93.8z"/>
			<path d="M113.8,148.5c0.2,0.4,0.3,1,0.4,1.8C113.9,149.8,113.8,149.2,113.8,148.5z"/>
			<path d="M88.6,154.1c0.4,0.2-0.6,2.7-0.4,3.1C87.8,157,88.8,154.6,88.6,154.1z"/>
			<path d="M108.6,105.1c0.1-0.4,0.3-0.9,0.7-1.4C109.2,104.2,109,104.7,108.6,105.1z"/>
			<path d="M136.9,106.9c-0.2-0.3-0.3-0.7-0.2-1C136.9,106.2,137,106.5,136.9,106.9z"/>
			<path d="M91.8,28c0.5,0.1,1.1,0.3,1.6,0.7C92.8,28.7,92.3,28.4,91.8,28z"/>
			<path d="M114.4,34.7c-0.4-0.2-0.9-0.5-1.2-1C113.7,33.9,114,34.2,114.4,34.7L114.4,34.7z"/>
			<path d="M137.3,86.7c-0.4,0-0.8-0.1-1.1-0.2c0.2-0.3,0.6-0.5,0.9-0.5c0.3,0,0.6,0,0.6,0C137.5,86.2,137.5,86.4,137.3,86.7z
				 M113.5,151.7c0.2-0.1,0.3-0.1,0.5-0.1l0.2,0c-0.1,0.5-0.1,1-0.3,1.7C113.8,153,113.6,152.4,113.5,151.7z"/>
			<path d="M76.9,109.8c-0.1,0.3-0.2,0.4-0.5,0.6c-0.1-0.3,0-0.7,0.2-1.1C76.9,109.4,76.9,109.5,76.9,109.8z"/>
			<path d="M126.8,148.6c0.2,0.3,0.2,0.6,0.2,0.9C126.8,149.3,126.8,148.9,126.8,148.6z"/>
			<path d="M138.2,143.6c-0.2-0.2-0.3-0.5-0.3-1C138.2,142.9,138.2,143.2,138.2,143.6z"/>
			<path d="M98.9,158.4c0.2,0.3,0.2,0.5,0.1,0.8c-0.4,0-0.7-0.2-0.9-0.4C98.3,158.6,98.5,158.5,98.9,158.4L98.9,158.4z"/>
			<path d="M116.1,141.2c0.2-0.1,0.6-0.1,1,0.1C116.8,141.4,116.5,141.3,116.1,141.2z"/>
			<path d="M119.6,151.6c-0.2-0.2-0.2-0.6-0.2-1C119.7,150.9,119.7,151.2,119.6,151.6z"/>
			<path d="M137.7,150.4c-0.1-0.2-0.1-0.6,0-0.9C137.8,149.8,137.8,150.1,137.7,150.4z"/>
			<path d="M95.4,137.2c0-0.3,0-0.6,0.2-1C95.8,136.6,95.6,136.8,95.4,137.2z"/>
			<path d="M81.8,31.4c-0.2-0.1-0.2-0.2-0.2-0.4c0.3-0.3,0.7-0.5,1.2-0.7C82.7,30.6,82.4,31,81.8,31.4z"/>
			<path d="M113.1,83.6c0,0.3-0.1,0.7-0.5,1.1C112.6,84.4,112.8,84,113.1,83.6z M104.7,101.3c0.1,0.3,0,0.6-0.1,1
				C104.4,102,104.5,101.6,104.7,101.3z"/>
			<path d="M124,79.8c0.2-0.1,0.5-0.3,0.9-0.3C124.7,79.8,124.5,79.9,124,79.8z"/>
			<path d="M138.3,147.3c-0.2-0.2-0.3-0.6-0.2-0.9C138.2,146.6,138.3,146.9,138.3,147.3z"/>
			<path d="M116.6,163.6c0.2-0.3,0.5-0.6,1.1-0.7C117.5,163.2,117.1,163.5,116.6,163.6z"/>
			<path d="M138.1,85.5c-0.1,0.1-0.4,0.1-0.5,0c-0.1-0.3,0-0.6,0.2-1C138,84.7,138.1,85.1,138.1,85.5z"/>
			<path d="M127.9,91.7c0.1,0.2,0.1,0.6,0,1C127.8,92.5,127.8,92.2,127.9,91.7L127.9,91.7z"/>
			<path d="M110.1,91.7c0,0.4-0.2,0.8-0.5,1.2C109.5,92.6,109.7,92.2,110.1,91.7z M107.5,107c0-0.3,0.1-0.8,0.4-1.2
				C108,106.2,107.8,106.6,107.5,107z"/>
			<path d="M99.1,71.6c-0.3,0-0.6,0-1.2-0.2c0.1-0.2,0.5-0.2,0.9-0.3C99.2,71.3,99.2,71.4,99.1,71.6z"/>
			<path d="M118.4,161.8c0.1-0.1,0.2-0.1,0.5,0c0.2,0.1,0.2,0.2,0.1,0.4C118.7,162.3,118.6,162.1,118.4,161.8z"/>
			<path d="M70.9,99.9c-1.8-2.2-3.5-4.4-5.3-6.5c-0.3-0.4-1.5-1.5-1.9-2c0.6-1.2,2.4-6.7,3.3-7.8c0.6,0,0.6,5.3,1.3,5.6
				c-0.2,2.3-0.4,4.3,2.8,3.6L71,97.8l0.6,0.3l3.6-3.4l0.9,0.1c0.6,0.6,1,1.3,1.6,2.1l-2.4-0.1l0.1,3.6l0.5,0.1l1.1-1.9
				c0.5,0.8,0.8,1.3,1.3,1.9c0.2,1.1,0.2,2.1-0.2,3.2c-0.4,0.1-0.5,0.1-0.6,0.1c-0.2-0.4-0.4-0.8-0.5-1.2c-0.7-0.6-1.4-0.9-2.2-1.3
				l-0.9-0.1c0,0,0,0,0-0.2l0.1-1.1c-0.2-0.7-0.3-1.2-0.5-1.7c-0.6,0.6-1.2,1.1-2,1.7C71.3,100,71.1,99.9,70.9,99.9L70.9,99.9z"/>
			<path d="M61.4,86l-2.9-4.6l7.7,2.5l-1.5,4.4c-0.6,0.1-1.4,0.2-2.3,0C62.1,87.6,61.8,86.7,61.4,86L61.4,86z"/>
			<path d="M46.6,128.6l-2.8-1.2c0.6-0.8,1.2-1.5,1.6-2.3c0.6-1,1.2-2.1,2.2-2.9C45.8,124.1,49.9,126.9,46.6,128.6
				C46.6,128.6,46.6,128.6,46.6,128.6L46.6,128.6z"/>
			<path d="M50.3,128c0.2,1.6,0.2,3.3,0.2,5.2c-0.8,0.6-1.6,0.9-2.3,1.3C47.1,131.9,48.4,130,50.3,128L50.3,128z"/>
			<path d="M61.4,86c0.3,0.6,0.6,1.3,0.9,2.1c-0.2,0.5-0.5,0.9-0.7,1.4c-1.1-0.2-2.1-0.6-3.2-1.4c0.7-0.6,1.4-1,2.4-1.5
				C61.2,86.3,61.3,86.2,61.4,86L61.4,86L61.4,86z"/>
			<path d="M46.2,132.7c-0.6,0.7-1.3,1.3-2.5,2.2l0.4-4.2C45,131.5,45.6,132,46.2,132.7L46.2,132.7z"/>
			<path d="M46.5,157.6c-0.4,0.2-0.7,0.4-1.2,0.8c-1.6,0-1.6,0-1-3.2c0.6,0.4,1.1,0.7,1.7,1.2c0.3,0.4,0.4,0.5,0.6,0.7L46.5,157.6z"
				/>
			<path d="M47,109.1c0.1-3.3,1.3-1.7,2.4-0.9l0.1,0.9C48.7,109.2,47.9,109.2,47,109.1z"/>
			<path d="M51.6,98.6c0.2,1.4,0.2,2.9,0.2,4.7C51.6,101.7,51.5,100.2,51.6,98.6z"/>
			<path d="M49.7,153c0.3-0.1,0.6,0.1,1,0.5c0,1,0,1.6,0,2.2l-2.8-0.9C48.5,154.3,49.1,153.8,49.7,153L49.7,153z"/>
			<path d="M50.6,155.9c0.1-0.7,0.1-1.4,0.1-2.2c0.9,0.4,1.8,1,2.8,1.8c0,0.3,0,0.3-0.3,0.5c-0.9,0.1-1.8,0.2-2.7,0.2L50.6,155.9z
				 M50.2,134.8c0.2,1.2,0.2,2.6,0.2,4.1C50.1,137.5,50.1,136.1,50.2,134.8z"/>
			<path d="M50.5,156.4c0.8-0.2,1.6-0.3,2.6-0.2c0.2,0.3,0.1,0.5,0.1,1l0,0.6l0,0c-0.6,0.4-1.1,0.7-1.7,1.1c-0.3-0.5-0.6-1-1-1.7
				C50.4,156.8,50.4,156.7,50.5,156.4L50.5,156.4z"/>
			<path d="M49.6,141.3c0.2,1.3,0.1,2.6-0.1,4.1C49.3,144.2,49.3,142.8,49.6,141.3z"/>
			<path d="M45.8,112.9c0.8-0.2,1.5-0.2,2.7-0.2C46.6,114.6,46.6,114.6,45.8,112.9z M46.5,94.8c-0.6-0.3-1.1-0.6-2.2-1.4l2.7,0
				C47,93.8,46.8,94.3,46.5,94.8z M45.3,92c1-0.3,2.1-0.4,3.2-0.4l0,0.7C47.4,92.2,46.4,92.2,45.3,92z"/>
			<path d="M48.8,149.6c0.3,0.4,0.4,0.8,0.5,1.5c-0.8,0.2-1.5,0.2-2.5,0.2C47.6,150.7,48.1,150.2,48.8,149.6z"/>
			<path d="M51.2,90.7c0.3,0.7,0.4,1.5,0.4,2.5C51.4,92.6,51.3,91.7,51.2,90.7z M55.7,87.8c-0.6,0.1-1.3,0.1-2.1-0.1
				C54.2,87.6,54.9,87.6,55.7,87.8z"/>
			<path d="M58.1,84.2c-0.1-0.5,0-1,0.1-1.5L59,83C58.8,83.4,58.5,83.9,58.1,84.2L58.1,84.2z M44.6,106.1c-0.4,0.3-0.9,0.4-1.4,0.6
				l-0.1-0.5C43.6,106.1,44.1,106,44.6,106.1L44.6,106.1z"/>
			<path d="M51.9,87.8c0.1,0.3,0,0.6-0.2,1C51.6,88.5,51.7,88.2,51.9,87.8L51.9,87.8z"/>
			<path d="M44.2,147c0.2,0.3,0.2,0.7,0.2,1c-0.2,0-0.4-0.1-0.4-0.1C44,147.6,44,147.3,44.2,147z"/>
			<path d="M50.4,120.1c0.1,0.3,0.1,0.5,0.1,1C50.3,120.8,50.3,120.5,50.4,120.1z"/>
			<path d="M51.8,95.1c0.2,0.3,0.2,0.5,0.2,1C51.7,95.9,51.7,95.5,51.8,95.1z"/>
			<path d="M43.9,136.5c-0.2,0-0.3-0.1-0.5-0.2l0.4-0.3C43.9,136.1,43.9,136.3,43.9,136.5z"/>
			<path d="M44.2,151.1c0,0.1-0.1,0.2-0.2,0.3C44.1,151.3,44.1,151.2,44.2,151.1z M61.3,86c0.1,0.2-0.1,0.3-0.3,0.5
				C60.9,86.4,61,86.2,61.3,86L61.3,86z"/>
			<path d="M47.1,136.8c-0.1,0-0.2-0.1-0.3-0.2C46.9,136.7,47,136.7,47.1,136.8z"/>
			<path d="M46.6,157.5c-0.1,0-0.1-0.1-0.1-0.5c0-0.2,0-0.4,0-0.5l0.4,0C47,156.9,46.9,157.1,46.6,157.5L46.6,157.5z"/>
			<path d="M45.8,150.6C45.8,150.6,45.8,150.5,45.8,150.6z M46.4,156.5c0.1,0,0.1,0.3,0.1,0.4c-0.2,0.1-0.3,0-0.4-0.3
				C46,156.4,46.3,156.5,46.4,156.5z"/>
			<path d="M48.2,156.6c-0.1,0.1-0.1,0.1-0.4,0.1C47.8,156.6,48,156.6,48.2,156.6z"/>
			<path d="M46.8,146.8C46.8,146.7,46.8,146.8,46.8,146.8z M45.2,146C45.1,146,45.2,146,45.2,146z M47,103L47,103L47,103z M47,103
				L47,103L47,103z M47,104.9C47,104.9,47,105,47,104.9z M45.5,109.2C45.4,109.3,45.5,109.2,45.5,109.2z"/>
			<path d="M48.4,111L48.4,111L48.4,111z"/>
			<path d="M45.5,111.2l-0.2-0.2C45.4,111,45.5,111.1,45.5,111.2L45.5,111.2z"/>
			<path d="M48.4,111C48.3,111,48.3,111,48.4,111L48.4,111z M49.7,111.4C49.8,111.4,49.7,111.4,49.7,111.4z"/>
			<path d="M45.5,111.2l0.2,0.3C45.7,111.4,45.6,111.4,45.5,111.2L45.5,111.2z"/>
			<path d="M49.6,113C49.6,113,49.6,113.1,49.6,113z"/>
			<path d="M46.6,128.6l0.2,0.2C46.7,128.8,46.7,128.8,46.6,128.6L46.6,128.6z"/>
			<path d="M117.3,52.1l-3.1-3.1c0.3-2.2,2.1-1.6,3.7-1.5c0.4,0.8,0.6,1.4,0.6,1.6c1.4,0.3,2.4,0.6,3.6,1.1c0,0.6-0.1,1.1-0.2,1.6
				c0,0,0,0,0.2,0c0.4,0.2,0.7,0.4,1,0.6c0,0,0,0-0.1,0.1C121,52.4,119.2,52.3,117.3,52.1z"/>
			<path d="M109.2,29.1c0.4,0.6,0.9,1.3,1.5,2.3c-0.3,1.8-0.1,4.2-3.2,2.9c-0.5-0.2-1.5,0.7-2.6,1.3c0.1-1.4,0.1-2.5,0.3-3.9
				c1.1-0.8,2.3-1.2,3.3-1.7C108.8,29.7,109,29.5,109.2,29.1z"/>
			<path d="M122.1,50l-3.6-0.9c0-0.1-0.1-0.7-0.2-1.6c0.2-0.1,0.4-0.1,0.9,0c0.7-0.1,1.1-0.4,1.6-0.8l-0.2-0.4l-1.3,0.3
				c-0.4-0.6-0.8-1.2-1.4-2c-0.3-0.5-0.5-0.7-0.8-1c-13.8-2.1,0.1-4.2,0.2-4.6c0.7-0.3,1.2,3.2,2.1,3.1c0.4,0.3,0.6,0.7,1,1.2
				c0.4,0.6,0.7,1.2,0.9,1.9c0.3,0.8,0.7,1.7,0.9,2.7c-0.1,0.2-0.1,0.4-0.1,0.4l0.2-0.2c0.6,0.2,1.3,0.4,2.1,0.7
				c-0.1,0.6-0.5,1.2-0.9,1.6c-0.2-0.2-0.4-0.4-0.6-0.6C122.4,49.9,122.3,49.9,122.1,50L122.1,50L122.1,50z"/>
			<path d="M117.3,52.3c1.8,0,3.7,0.2,5.7,0.3c0.6,0.1,1.1,0.3,1.7,0.6c-0.8,0.5-1.4,0.9-2.2,1.4c-0.2,0.1-0.3,0.1-0.6,0
				c-0.5-0.1-0.8,0-1.3,0c-0.3,0.3-0.6,0.6-1.1,1.1l-0.2,0.1C118.7,54.6,118.1,53.6,117.3,52.3z"/>
			<path d="M103.9,29.7l-0.9,3.4c-0.2,0.5-0.4,0.6-0.5,0.6c-1.4-0.4-3.4-0.1-2.6-2.9c0.6-0.2,1-0.1,1.7-0.1c0.6-0.3,1.1-0.7,1.8-1.1
				C103.7,29.7,103.8,29.7,103.9,29.7z"/>
			<path d="M112.1,38.3c-0.4,0-9.9,2.9,3.5-0.1C131.9,61.9,84.9,22.5,86,20.8c1.4-0.5,18.2-2.2,19.2,3.6
				C104.8,25.5,118.4,39.4,112.1,38.3z M96.3,24.6c0.2-0.8,0.5-1.7,1-2.7c1.2,0.7,2.2,1.4,3.3,2.2l-0.2,0.6
				C99,24.6,97.7,24.5,96.3,24.6z"/>
			<path d="M128,62.6c0-0.6,0.1-1.4,0.2-2c1,1.4,3.3-1.4,3.8,1.5c0,0.2-0.3,0.2-0.4,0.1c-0.2,0-0.5,0-0.7,0.1
				c-0.1,0.2-0.2,0.3-0.7,0.4c-0.7,0-1.2,0-1.7,0C128.5,62.5,128,62.6,128,62.6z"/>
			<path d="M104,29.5c-0.2,0.1-0.3,0.1-0.5-0.1c-0.1-0.8,0-1.5-0.1-2.3c-0.2-0.4-0.3-0.7-0.4-1c0,0,0,0,0.1-0.1
				c0.6,0,1.1,0.1,1.6,0.2C105.3,27.4,106.4,28.7,104,29.5z"/>
			<path d="M102.8,26.2c0.3,0.3,0.4,0.6,0.4,1c-0.4,0.1-0.6,0.1-0.9,0.1c-1,0.2-2.2,0.6-3.3,0.9c-0.1-0.2-0.1-0.4-0.1-1
				c0-0.4,0-0.5,0-0.6c0.4,0,0.8,0.1,1.6,0.2c0.4,0.1,0.6,0,0.7,0C101.7,26.5,102.2,26.3,102.8,26.2L102.8,26.2z M108.4,29.9
				c-0.8,0.4-2,1-3.2,1.5C105,29.8,105,29.8,108.4,29.9z"/>
			<path d="M92.7,23.7c0.3-0.4,0.8-1,1.3-1.4l1.2,1.4c-0.4,0.2-0.9,0.4-1.4,0.6C93.4,24.2,93.1,23.9,92.7,23.7z"/>
			<path d="M104.8,26.1c-0.6,0-1.1-0.1-1.7-0.1c-0.1-0.5-0.1-1.2-0.1-2.1c0-0.2,0.3-0.2,0.5-0.1c0.3,0.3,0.4,0.4,0.6,0.5
				C104.5,25,104.8,25.5,104.8,26.1z"/>
			<path d="M93.7,25.7c0.9-0.1,1.9,0,3.2,0C96.1,27.9,94.9,27.1,93.7,25.7z"/>
			<path d="M109.8,38.8c-0.3,0.2-0.5,0.3-1.1,0.4c-0.4,0-0.5,0-0.6,0c0-0.4,0.1-0.8,0.3-1.5c0.3-0.2,0.3-0.2,0.4-0.2
				c0.3,0.1,0.6,0.2,1.1,0.6C109.8,38.6,109.8,38.7,109.8,38.8z"/>
			<path d="M114.7,57.2l1.6,0.8l-0.6,0.8c-0.3-0.4-0.7-0.8-1-1.3C114.7,57.3,114.7,57.2,114.7,57.2z"/>
			<path d="M105.9,41.3c-0.4,0.3-0.7,0.5-1,0.8l0-1.5C105.3,40.7,105.6,40.9,105.9,41.3z"/>
			<path d="M127.2,65.4c-0.4-0.4-0.8-0.8-1.2-1.3l0.7-0.3C126.9,64.3,127.2,64.8,127.2,65.4z"/>
			<path d="M117,43.9c0.3,0.2,0.5,0.5,0.8,0.9c-0.2,0.4-0.3,0.6-0.4,0.9C117.2,45.2,117,44.6,117,43.9z"/>
			<path d="M102.6,34c0.2-0.2,0.3-0.3,0.5-0.6c0.2,0.5,0.4,1,0.6,1.7l-0.6,0.2C102.9,34.8,102.8,34.5,102.6,34z"/>
			<path d="M119.4,47c0.4-0.3,0.8-0.4,1.2-0.6c0.1,0.1,0.1,0.2,0.2,0.4c-0.4,0.3-0.9,0.5-1.5,0.8C119.3,47.4,119.3,47.3,119.4,47z"
				/>
			<path d="M112.4,44.9c0.3-0.3,0.7-0.4,1.1-0.7l0.2,0.4C113.3,44.7,112.9,44.9,112.4,44.9z M120.6,57.7c0.1,0.2,0.1,0.4,0.1,0.7
				c0,0-0.2,0-0.3,0C120.4,58.1,120.4,57.9,120.6,57.7z"/>
			<path d="M103.3,41.9l-1.3-0.2l0.1-0.5c0.4,0.1,0.7,0.2,1.2,0.5L103.3,41.9L103.3,41.9z M99,35.8c-0.1,0.2-0.2,0.2-0.4,0.3
				C98.7,36.1,98.8,35.8,99,35.8L99,35.8z"/>
			<path d="M117.2,57.5c0.1-0.2,0.3-0.4,0.4-0.5c0,0,0.1,0.1,0.2,0.2C117.6,57.2,117.5,57.3,117.2,57.5L117.2,57.5z"/>
			<path d="M121.8,62.5c-0.2,0-0.4,0-0.5-0.1l0.5-0.4C121.7,62.2,121.8,62.3,121.8,62.5z M128.6,62.8c0.3-0.1,0.7-0.1,1.4,0
				C129.6,62.7,129.1,62.8,128.6,62.8z M112.4,50.4c0.1,0.1,0.1,0.2,0.1,0.3C112.4,50.6,112.3,50.6,112.4,50.4z M98.7,26.5
				c0.1,0.1,0.1,0.2,0.1,0.4c-0.2,0-0.5-0.1-0.7-0.2C98.3,26.7,98.4,26.6,98.7,26.5z M120.9,54.5c0.1-0.1,0.5-0.1,0.8-0.1
				C121.6,54.6,121.4,54.6,120.9,54.5z"/>
			<path d="M110.6,44.1c-0.1,0.1-0.2,0-0.3,0C110.4,44.1,110.5,44.1,110.6,44.1z"/>
			<path d="M111.5,39.9c-0.1-0.1,0-0.2,0-0.3C111.6,39.7,111.6,39.8,111.5,39.9z"/>
			<path d="M116.6,61.7c0.1-0.1,0.2-0.1,0.3-0.1C116.9,61.7,116.8,61.7,116.6,61.7z"/>
			<path d="M101.8,24c0.1,0,0.2,0.1,0.3,0.2C101.9,24.1,101.8,24.1,101.8,24z"/>
			<path d="M108.8,37.5c0,0.1-0.1,0.1-0.4,0.1c-0.1-0.1-0.2-0.2-0.3-0.4C108.2,37.2,108.4,37.3,108.8,37.5z"/>
			<path d="M98.8,29c-0.1,0.1-0.2,0.1-0.3,0.1C98.6,29,98.6,29,98.8,29z"/>
			<path d="M114.7,57.2l-0.7-0.3c0.2,0,0.4,0,0.6,0.1C114.7,57,114.7,57.2,114.7,57.2z"/>
			<path d="M112.3,48.9C112.3,48.9,112.4,48.9,112.3,48.9L112.3,48.9z M101,26.6c0,0.1-0.2,0.1-0.4,0.1
				C100.7,26.7,100.8,26.7,101,26.6z M112.3,48.9L112.3,48.9L112.3,48.9z"/>
			<path d="M109.2,44.8L109.2,44.8z M118.9,60.6C118.9,60.7,118.9,60.6,118.9,60.6z"/>
			<path d="M113.5,51.6L113.5,51.6z"/>
			<path d="M115,45.7C114.9,45.7,115,45.7,115,45.7z M118.1,64.1L118.1,64.1z"/>
			<path d="M131.6,63.6L131.6,63.6z"/>
			<path d="M108.2,39.4c0.1-0.1,0.1-0.1,0.4-0.1C108.5,39.4,108.4,39.4,108.2,39.4z M104.9,43.8c-0.1-0.1-0.1-0.2-0.2-0.2
				C104.8,43.6,104.8,43.6,104.9,43.8L104.9,43.8L104.9,43.8z M103.3,41.9l0.2,0.3C103.4,42.1,103.4,42.1,103.3,41.9L103.3,41.9z
				 M108.2,41.9L108.2,41.9z"/>
			<path d="M104.2,24.4c-0.2,0.1-0.3,0-0.5-0.3c-0.1-0.1-0.1-0.1,0.1-0.1c0.2,0,0.3,0,0.4,0C104.2,23.9,104.2,24,104.2,24.4z"/>
			<path d="M104.9,43.8l0.2,0.2C105,44,105,44,104.9,43.8L104.9,43.8z M107.8,40.8C107.8,40.8,107.7,40.8,107.8,40.8z"/>
			<path d="M126.8,59.5l-0.2-0.2C126.7,59.3,126.7,59.4,126.8,59.5L126.8,59.5z"/>
			<path d="M104.2,23.7c-0.1,0.1-0.2,0.1-0.4,0.1c-0.1-0.2,0-0.3,0.3-0.5C104.3,23.3,104.3,23.6,104.2,23.7z"/>
			<path d="M119.5,55.6L119.5,55.6L119.5,55.6z"/>
			<path d="M103.1,37.5C103.1,37.4,103.2,37.5,103.1,37.5z"/>
			<path d="M118.3,62.3C118.3,62.3,118.3,62.4,118.3,62.3z"/>
			<path d="M109.9,38.7c-0.1-0.1-0.1-0.1-0.1-0.4c0.1,0,0.2,0.1,0.3,0.2C110.1,38.6,110.1,38.6,109.9,38.7z"/>
			<path d="M130.9,62.2c0-0.1,0.2-0.1,0.4-0.1C131.3,62.2,131.2,62.2,130.9,62.2z M124.8,61C124.8,61,124.7,61,124.8,61z"/>
			<path d="M116.7,59.9L116.7,59.9z"/>
			<path d="M85.3,26.1c-0.1,0.6-0.3,1.1-0.5,1.7c-2.1-0.3-4.1-0.6-6.1-1.1l0-0.5C80.9,26.1,83,26.1,85.3,26.1z"/>
			<path d="M89,23.5l2.1-3.3l0.9,0.6c0.1,1.8-0.7,2.6-2.7,2.8C89,23.5,89,23.5,89,23.5L89,23.5z"/>
			<path d="M68,40.2c-1.3,1.1-2.7,1.6-4-0.4C65.6,39.9,66.9,40,68,40.2z M69,36.6c-0.7,0.1-1.3,0.2-1.8,0.4l0.1-1.1
				C68,36.2,68.6,36.4,69,36.6z"/>
			<path d="M88.5,24.4c-0.2,0.2-0.4,0.4-0.7,0.6c-0.3-0.2-0.6-0.6-0.9-1c0.6-0.2,1.1-0.4,1.9-0.7c0.2,0.1,0.2,0.1,0.2,0.1
				C88.9,23.7,88.7,24.1,88.5,24.4z"/>
			<path d="M91.8,19.1c-0.6-0.2-1.2-0.5-1.6-0.8C91.1,18.1,92.8,16.6,91.8,19.1z M90.5,16.7c-0.7,0-1.3,0.1-1.8,0.1l0-0.7
				c0.7,0.1,1.5,0.1,2.2,0.2c0.1,0,0.1,0.1,0.2,0.1C91,16.4,90.8,16.5,90.5,16.7z"/>
			<path d="M55.7,52c0.3,0.2,0.4,0.5,0.7,0.9l-0.5,0.2C55.7,52.8,55.7,52.5,55.7,52L55.7,52z M60.9,45.9c-0.3-0.2-0.5-0.5-0.6-0.7
				l0.8-0.1C61,45.4,61,45.6,60.9,45.9L60.9,45.9z M47.1,59.4c0.3-0.2,0.7-0.2,1-0.3l-0.1,0.7C47.8,59.7,47.5,59.6,47.1,59.4z
				 M53.2,55.4c0.2-0.3,0.5-0.4,0.9-0.7l0.2,0.5C54.1,55.2,53.8,55.4,53.2,55.4L53.2,55.4z M55.4,57.2c-0.1,0.2-0.3,0.4-0.4,0.5
				c0,0-0.1-0.1-0.2-0.2C55,57.4,55.1,57.3,55.4,57.2z M60,48.2C60,48.2,60,48.1,60,48.2z M69.2,38.7C69.3,38.7,69.2,38.7,69.2,38.7
				z"/>
			<path d="M79.3,24.5C79.3,24.5,79.4,24.4,79.3,24.5z M85.9,23.6C85.8,23.6,85.9,23.7,85.9,23.6z"/>
			<path d="M135.9,103.1c0.2,0.4,0.2,0.8,0.1,1.4c-0.9,0.9-1.7,1.7-2.5,2.5l1.1,0.1c0.1,0.8,0.2,1.5,0.1,2.3c-0.2,0-0.2,0-0.2-0.1
				c-0.1-0.3-0.3-0.4-0.5-0.5c-1.5-0.2-1.9-1.1-1.4-2.6c0-0.2,0-0.2,0.2-0.2c0.5-0.5,0.8-1,1-1.6c-0.1-0.3-0.3-0.6-0.6-0.8
				c0,0.3,0,0.6-0.2,0.9c-0.5,0.3-0.7,0.7-1,0.9l0,0c-0.9-0.5-1.8-0.9-2.4-1.6c-0.2-0.3,0.4-1.8,0.9-1.9c0.8-0.2,1.6,0.3,2.5,0.5
				C134,102.7,134.8,102.9,135.9,103.1L135.9,103.1z M135.4,111.1c0.3-0.5,0.6-0.9,1-1.3c0.3,1.3,0.3,2.5,0.3,4.1
				c-1.3,0.1-2.4,0-3.7-0.2l-0.5,1.1c-0.3-0.5-0.6-1.1-1-1.7c0.4-0.8,0.9-1.3,1.6-1.8C134,111.2,134.7,111.1,135.4,111.1z
				 M130.9,108.7c-0.2,0.4-0.7,0.9-1.1,1.3l-0.5-0.6C129.9,109.3,130.4,109,130.9,108.7L130.9,108.7z M130.6,99.6
				c0-0.2,0.3-0.2,0.4-0.2c0.4,0.3,0.7,0.5,0.9,0.8C131.4,100.1,131,99.9,130.6,99.6z M134.2,99.2c0.3,0.2,0.4,0.4,0.5,0.6l-1.2,0.1
				C133.7,99.6,133.8,99.4,134.2,99.2L134.2,99.2z M113.4,88.6c-0.4-0.1-0.8-0.2-0.8-0.4c0-0.3,0.2-0.6,0.5-1.3
				C113.3,87.8,113.4,88.1,113.4,88.6z"/>
			<path d="M135.2,111.1c-0.5,0.1-1.2,0.1-1.9,0.1c0.2-0.1,0.4-0.1,0.8-0.1C134.5,111,134.7,111,135.2,111.1z M130.1,107.9
				c-0.4,0.1-0.7,0.2-1,0.3l-0.1-0.4c0.4-0.1,0.8-0.3,1.3-0.4c0,0,0.2,0.1,0.2,0.2C130.4,107.8,130.3,107.9,130.1,107.9z"/>
			<path d="M131.1,84c-0.2-0.1-0.4-0.3-0.5-0.4c0,0,0.1-0.1,0.2-0.2C131,83.6,131.1,83.8,131.1,84z"/>
			<path d="M135,96.9c-0.2-0.2-0.2-0.3-0.3-0.5l0.4-0.1C135.2,96.7,135.1,96.7,135,96.9L135,96.9z M134.1,101.4l0.6-0.4l0.1,0.2
				C134.6,101.3,134.5,101.3,134.1,101.4L134.1,101.4z"/>
			<path d="M134,109c0.1-0.1,0.3,0.1,0.4,0.3C134.2,109.4,134.1,109.3,134,109z"/>
			<path d="M136.2,83L136.2,83z"/>
			<path d="M133.7,81.2C133.7,81.1,133.7,81.2,133.7,81.2z"/>
			<path d="M132.6,106.1c-0.2-0.1-0.3-0.2-0.5-0.5c-0.1-0.1,0-0.1,0.1-0.1C132.5,105.7,132.6,105.9,132.6,106.1L132.6,106.1
				L132.6,106.1z M128.9,121.8l4.3-2.5c1.8,1.7,3.5,3.3,2.1,6.1c-0.1,0.2,0.8,0.9,1.1,1.3c-1.7-0.1-2.4,3.7-4.3,1.4
				c-0.9-2-2-4.1-3.1-6.2C129,121.8,129,121.8,128.9,121.8L128.9,121.8z"/>
			<path d="M135.1,141.2l-2.5,5.7c-0.1,0-0.8-0.1-1.5-0.2c-1.3-1.3-0.7-2.3,0.2-3.6l0-0.2c0.7-1,1.4-1.9,2.3-2.9
				c0.6,0.1,1,0.2,1.5,0.6C135.1,141,135.1,141.1,135.1,141.2L135.1,141.2z"/>
			<path d="M128.4,132.3c-0.1-0.5-0.3-0.8-0.5-1.2c0.9-0.1,1.8-0.4,2.8-0.3c0.2,0,0.4,0.9,0.6,1.4l-3.8,1.1l-0.2-0.8
				C127.6,132.5,128,132.5,128.4,132.3z"/>
			<path d="M130.1,154.4c0.6-0.4,1.2-0.6,1.8-0.8c0.1,1,0.2,1.7,0.4,2.5c-1.2,0.8-1.3,0.8-1.6-0.3
				C130.7,155.2,130.4,154.8,130.1,154.4z M129.9,148.8c-0.2,1-0.5,1.8-1,2.6c-0.3-0.4-0.5-0.8-0.5-1.2c0-0.5,0.1-1,0.4-1.4
				c0.2,0,0.2,0,0.2,0.1c0.2,0,0.4,0,0.5-0.1L129.9,148.8L129.9,148.8z"/>
			<path d="M129.1,116.3c0.1-0.4,0-1.3,0.2-1.3c0.6-0.1,1.3,0,1.9,0.4C130.5,115.7,129.8,115.9,129.1,116.3z"/>
			<path d="M130.7,141.2c-0.7,0.3-1.3,0.5-1.8,0.6C129.4,140.9,129.5,139.1,130.7,141.2z"/>
			<path d="M131.8,138.2c0.6-0.3-0.6-2.4,1.4-1.3c0.1,0.3,0.1,0.4,0.1,0.6c-0.2,0.3-0.4,0.6-0.6,0.9
				C132.5,138.3,132.3,138.3,131.8,138.2z"/>
			<path d="M129.4,149.5c0.1-3.8,0.8-7.5,2.1-12.5c0.3-1.2,0.9-1.2,1.6-1.2c0,0,0,0,0.3,1.3c0.2,3.8,0.8,5,1.4,6.3l0,0l-0.1,5
				C132.4,149.6,131.2,149.6,129.4,149.5z"/>
			<path d="M129.7,135.3c-0.4,0.2-0.7,0.3-1.1,0.5l-0.2-0.8c0.4,0,0.8,0,1.2,0.1C129.7,135.3,129.7,135.3,129.7,135.3z"/>
			<path d="M129.3,143.5c0.1-0.2,0.3-0.4,0.4-0.5c0,0,0.1,0.1,0.2,0.2C129.7,143.4,129.5,143.5,129.3,143.5L129.3,143.5z
				 M129.5,146.8C129.4,146.8,129.5,146.9,129.5,146.8z M129,148.7c0.2,0,0.3-0.1,0.5-0.1c0,0.1,0,0.1-0.1,0.1L129,148.7L129,148.7z
				 M128,156.4C128,156.4,128,156.3,128,156.4z M129.6,155.5C129.6,155.5,129.7,155.4,129.6,155.5z"/>
			<path d="M130.5,119C130.6,119,130.5,119,130.5,119z"/>
			<path d="M132.6,140.3C132.6,140.2,132.6,140.3,132.6,140.3z M130.8,142.8l-0.2-0.3C130.7,142.6,130.7,142.6,130.8,142.8
				L130.8,142.8z M130.8,142.8c0.2,0.1,0.3,0.2,0.5,0.4c0,0.1,0,0.1,0.1,0.1c-0.2-0.1-0.3-0.2-0.5-0.4
				C130.9,142.9,130.8,142.8,130.8,142.8L130.8,142.8z M128.4,146.2L128.4,146.2z"/>
			<path d="M129.4,120C129.4,120,129.3,120,129.4,120z M128.9,121.8C128.9,121.8,128.8,121.8,128.9,121.8L128.9,121.8z M131.1,129.8
				L131.1,129.8z M132.1,129.9C132.1,130,132.1,129.9,132.1,129.9z"/>
			<path d="M67.8,147.9c0.2-1.9,0.8-3.6,1.3-5.6c0.9-0.2,1.7-0.1,2-0.1c0.1,2,0.2,3.6,0.3,5.4c0,0.2-0.3,0.2-0.5,0.1
				c-0.3-0.1-0.5,0-0.7,0s-0.3,0.1-0.7,0.4c-0.5,0.1-0.7,0.1-1,0.1C68.5,148.1,68.3,148,67.8,147.9z M74.1,138.1l-0.8,2.6l-0.8-0.2
				l-0.1-2.2l-2.2,0.5c0-1.2,0.1-2.4,0-3.6l0.9,0l0.3,1.5c0.9,0.2,1.7,0.4,2.6,1C74.1,137.9,74.1,138,74.1,138.1z"/>
			<path d="M69.7,127l-5-1l0.1-1.6c1.4,0.3,2.5,0.8,3.7,0.7c1.3,0,2.1,0,1.2,1.7C69.6,127,69.7,127,69.7,127L69.7,127z"/>
			<path d="M74.2,138.2c-0.1-0.2-0.1-0.3-0.1-0.6c0.4-0.5,0.8-0.8,1.3-1.1c0.5-0.3,1-0.4,2.1-1c-0.3,1.2-0.4,2.2-1,2.6
				C76.1,138.7,75.1,138.3,74.2,138.2z"/>
			<path d="M73.3,128.5c-1.9,1.5-3.2,1-3.8-1.3c0-0.2,0-0.2,0-0.2c0.4,0,0.8,0.1,1.5,0.1c0.2,0,0.2,0,0.2,0.2
				C72,127.9,72.7,128.2,73.3,128.5L73.3,128.5z M74.1,127.5l2,1c-1.3,0.1-1.8,0.1-2.5,0c-0.2,0-0.2,0-0.1-0.2
				C73.7,128,73.9,127.7,74.1,127.5L74.1,127.5z"/>
			<path d="M75.4,141.5l1-0.9l0.5,0.5c-0.4,0.2-0.8,0.3-1.2,0.5C75.5,141.6,75.4,141.5,75.4,141.5L75.4,141.5z"/>
			<path d="M62.3,124.1c0.1-0.2,0.4-0.3,0.8-0.5C63,123.8,62.7,123.9,62.3,124.1L62.3,124.1z"/>
			<path d="M75.5,141.6C75.4,141.5,75.3,141.5,75.5,141.6C75.4,141.5,75.5,141.6,75.5,141.6z M76.2,142.5
				C76.1,142.6,76.2,142.5,76.2,142.5z"/>
			<path d="M117.4,156.4c-0.5,0.5-0.8,0.8-1.2,1.1l-0.6-0.5l2-1.4c0,0.1,0.1,0.2,0.1,0.2C117.7,156.1,117.6,156.2,117.4,156.4
				L117.4,156.4z M119.2,156.9c0.1,0.2,0.1,0.3,0.1,0.5c-0.4,0.1-0.9,0-1.2-0.2C118.4,157.2,118.7,157,119.2,156.9z M115.8,154.6
				c0.4,0,0.6,0.1,0.8,0.2l-0.3,0.5C116.2,155,115.9,154.8,115.8,154.6z M115.7,160.9l-0.1,1.1l-0.3,0c0-0.3,0.1-0.6,0.3-1
				C115.7,160.9,115.7,160.9,115.7,160.9L115.7,160.9z M117.4,150.5c0.1,0,0.2,0.1,0.3,0.2C117.5,150.6,117.4,150.6,117.4,150.5z
				 M118.1,145.5c0.1,0,0.1,0.2,0.2,0.4c-0.2,0-0.5-0.1-0.7-0.2C117.6,145.6,117.8,145.6,118.1,145.5z M117.3,152.9
				c-0.1-0.1,0-0.2,0-0.3C117.3,152.7,117.3,152.8,117.3,152.9z M116.6,146.7L116.6,146.7z M115.7,160.9
				C115.7,160.9,115.8,160.9,115.7,160.9L115.7,160.9z M117.2,159.8C117.2,159.7,117.1,159.8,117.2,159.8z M114.6,152.2L114.6,152.2
				L114.6,152.2z"/>
			<path d="M75.3,104.4l-0.2,4.2c-0.6-0.1-0.6-0.7-1.3-0.7c-0.5,0.5-0.5,0.8-0.8,1.1c-0.3-0.6-1.2-3.5-1.5-4.4
				c0.2-0.4,0.3-0.5,0.7-0.6c0.5-0.3,0.7-0.7,1-1c0.2,0,0.5,0,0.9,0.2C74.6,103.8,74.9,104.1,75.3,104.4z"/>
			<path d="M72.3,105c-0.2,0-0.3,0.1-0.5,0.4c-0.3-0.5-0.5-1.1-0.8-2c-0.2-0.4-0.2-0.5,0.1-0.7c0.1-0.8,0-1.5-0.1-2.3
				c-0.1-0.1-0.1-0.1-0.3-0.3c0.1-0.1,0.3-0.2,0.8-0.1c1,0.1,1.7,0.1,2.3,0.1l-0.1,0.9c-0.4,1-0.8,1.8-1.4,2.9
				C72.5,104.3,72.5,104.7,72.3,105z"/>
			<path d="M60.4,118.8c0.5,0.7,0.8,1.3,1.1,2l-1.2,0.3c-0.2-0.8-0.4-1.6-0.5-2.4c0.1,0,0.1-0.1,0.2-0.1
				C60,118.6,60.1,118.7,60.4,118.8z M62.7,117.1c0.9-0.2,1.7-0.3,2.5-0.3l-0.1,0.8C64.3,117.4,63.4,117.3,62.7,117.1L62.7,117.1z
				 M75,101.3c0.7,0.3,1.3,0.6,2,1.1c-0.6,0-1.2-0.1-2-0.5C75,101.7,74.9,101.5,75,101.3z"/>
			<path d="M77.5,104c0.1-0.2,0.2-0.2,0.4-0.1c0.1,0.7,0.1,1.3,0,2.1c-0.1,0.1-0.4,0.1-0.5,0.1C77.3,105.4,77.5,104.8,77.5,104
				L77.5,104z"/>
			<path d="M72.8,108c0.2-0.4,0.5-0.7,0.9-1C73.5,107.3,73.2,107.7,72.8,108z"/>
			<path d="M72.5,105c-0.2-0.2-0.1-0.5-0.1-0.9c0.3-0.2,0.5-0.1,1-0.1C73.4,104.4,73.1,104.7,72.5,105z M75.6,105.1
				c-0.3-0.1-0.7-0.4-1-0.8C75.1,104.4,75.4,104.7,75.6,105.1z"/>
			<path d="M74.8,101.3c0.2,0,0.2,0.3,0.2,0.4c-0.3,0-0.6-0.1-1-0.4C74.1,101.3,74.3,101.3,74.8,101.3z"/>
			<path d="M67.9,153.2c0.2,1.1,0.2,2.1,0.2,3.6C65.7,155.2,67.6,154.2,67.9,153.2z M68.6,148.3c0.2-0.2,0.5-0.1,0.9-0.1
				c0,0.3-0.1,0.6-0.3,0.8C69.1,148.8,68.8,148.6,68.6,148.3L68.6,148.3z"/>
			<path d="M57.5,158.7C57.6,158.7,57.6,158.7,57.5,158.7L57.5,158.7z M53.2,157.7c-0.1-0.1-0.1-0.1-0.1-0.4
				C53.2,157.3,53.3,157.5,53.2,157.7z"/>
			<path d="M68,151.7L68,151.7z M69.2,150.6C69.2,150.7,69.2,150.6,69.2,150.6z M70.4,147.7c0-0.1,0.2-0.1,0.4-0.1
				C70.8,147.8,70.7,147.8,70.4,147.7z"/>
			<path d="M80.9,70.9c-1-0.2-2-0.6-3-0.9l0.4-0.8c0.8,0.4,1.7,0.8,2.6,1.2C81,70.4,80.9,70.7,80.9,70.9L80.9,70.9z"/>
			<path d="M96,70c0.4-0.2,0.9-0.3,1.4-0.3l-0.6,1.4C96.5,70.8,96.2,70.5,96,70z M86.6,79.1c-1,0-1.8,0-2.8,0l0.3-1.1
				c0.7,0.4,1.3,0.5,2.2,0.9L86.6,79.1L86.6,79.1z M95.9,72.9c0.1-0.1,0.2-0.1,0.3,0C96.2,73,96.1,73.1,95.9,72.9L95.9,72.9z
				 M87.9,79.9L87.9,79.9L87.9,79.9z M87.9,79.9L87.9,79.9L87.9,79.9L87.9,79.9z M85.7,79.2L85.7,79.2L85.7,79.2L85.7,79.2z
				 M93.8,71.8c0.1,0.1,0.2,0.3,0.4,0.3c-0.1,0-0.2,0-0.4-0.2C93.8,71.8,93.8,71.8,93.8,71.8z"/>
			<path d="M135.2,145l-0.6,0.8l-0.3-0.3c0.2-0.2,0.4-0.3,0.7-0.5L135.2,145L135.2,145z M135.6,147.2l-1.1,0.5l-0.1-0.4
				c0.3,0,0.6-0.1,1-0.1L135.6,147.2z"/>
			<path d="M135.2,141.3c-0.1-0.2-0.1-0.3,0-0.5C135.2,140.9,135.2,141.1,135.2,141.3z"/>
			<path d="M132.4,149.3L132.4,149.3z M137,140.6L137,140.6z M136.8,142.2L136.8,142.2z M135.2,143.6
				C135.1,143.6,135.2,143.6,135.2,143.6z M135.2,145C135.3,145,135.3,145,135.2,145L135.2,145z"/>
			<path d="M82.5,65.5c0.9-3.2,3,0.4,4.2-1.1l0.2,0.9c-1,0.2-1.9,0.3-3.2,0.5C83,65.6,82.7,65.5,82.5,65.5z"/>
			<path d="M82.5,65.7c0.3,0,0.5,0,0.9,0.1c0.1,0.9,0,1.8-0.1,2.9c-0.4,0.2-0.7,0.3-1.1,0.3c-0.4-0.7-0.5-1.4-0.6-2.4
				C81.9,66.2,82.2,66.1,82.5,65.7z"/>
			<path d="M96.1,62.4c0.6,0.3,1,0.8,1.4,1.4c-1.2,0.1-2.5,0-3.7-0.1l0.1-0.9C94.7,62.7,95.3,62.7,96.1,62.4z"/>
			<path d="M86.9,71c-0.5-0.2-0.9-0.6-1.5-1.1C86,70.1,86.4,70.4,86.9,71z"/>
			<path d="M98.3,64.2c0-0.1,0.2-0.1,0.4,0C98.6,64.4,98.5,64.3,98.3,64.2z"/>
			<path d="M122.7,50c0.2,0.1,0.3,0.2,0.4,0.4c0,0.5,0,1.1-0.1,1.7c-0.3,0-0.5-0.1-1-0.4l-0.1-0.1c0-0.4,0.1-0.8,0.1-1.6
				c0-0.2,0-0.2,0.2-0.2C122.5,50,122.6,50,122.7,50z"/>
			<path d="M75,94.5c-1.1,1.3-2.3,2.5-3.5,3.6l-0.6-0.3l0.1-5.1c-3.2,0.7-3.1-1.3-2.6-3.6c1.5-0.2,3-0.2,4.9-0.2l-0.5,2.4
				c1.1,0.2,3.3-0.1,1.5,2.1C74.3,93.6,74.8,94.1,75,94.5z"/>
			<path d="M49.4,160.9c0.1,0,0.2,0.1,0.3,0.2C49.5,161,49.4,161,49.4,160.9z M48.5,160.1l0.3-0.7c0,0.2,0,0.4-0.1,0.6
				C48.5,160.1,48.5,160.1,48.5,160.1z M48.5,160.1C48.5,160.1,48.4,160.1,48.5,160.1L48.5,160.1z"/>
			<path d="M97.1,19L97.1,19z"/>
			<path d="M84.9,66c-0.1-0.2,0-0.4,0.1-0.8C85.1,65.3,85.1,65.6,84.9,66L84.9,66z M124.5,161L124.5,161L124.5,161z"/>
			<path d="M134.3,137.8c-0.1,0.1-0.3-0.1-0.4-0.3C134,137.4,134.2,137.5,134.3,137.8z"/>
			<path d="M134.4,132C134.4,132,134.5,132,134.4,132L134.4,132z"/>
			<path d="M133.8,137.2c0,0.1-0.2,0.1-0.4,0.1c-0.1-0.1-0.1-0.2-0.1-0.4C133.5,136.9,133.6,137,133.8,137.2L133.8,137.2z"/>
			<path d="M73.9,127.4c0,0.3-0.2,0.5-0.4,0.9c-0.8-0.2-1.5-0.5-2.2-1C72.1,127.3,72.9,127.3,73.9,127.4z M72.5,124.7
				c0.1,0,0.2,0.1,0.3,0.2C72.6,124.9,72.5,124.8,72.5,124.7z M69.1,122.4c-0.1-0.2-0.1-0.4,0-0.8C69.1,121.7,69.2,122,69.1,122.4z
				 M69.1,120.8c-0.1-0.1-0.1-0.2-0.2-0.2C69,120.6,69,120.6,69.1,120.8L69.1,120.8z"/>
			<path d="M129,112.9L129,112.9z"/>
			<path d="M71.1,100.7c0.1,0.5,0.3,1.3,0.2,2C71.1,102.1,71,101.4,71.1,100.7z"/>
			<path d="M74.1,99.9c-0.6,0.1-1.3,0.1-2.1,0c0.4-0.6,1-1.1,1.6-1.7C73.7,98.8,73.9,99.3,74.1,99.9L74.1,99.9z"/>
			<path d="M48.4,108.5C48.3,108.5,48.4,108.4,48.4,108.5z"/>
			<path d="M122,51.7C122,51.8,121.9,51.8,122,51.7C121.9,51.8,122,51.8,122,51.7z"/>
			<path d="M122.6,49.9c0,0.1-0.1,0.1-0.4,0.1C122.3,49.9,122.4,49.9,122.6,49.9z"/>
			<path d="M122.1,48.2c-0.1,0.1-0.1,0.1-0.2,0.2C122,48.4,122,48.3,122.1,48.2C122.3,48.2,122.1,48.2,122.1,48.2z"/>
			<path d="M133.9,104.3c0,0.2-0.3,0.1-0.4,0.1c-0.1-0.3-0.1-0.6-0.2-0.9C133.5,103.9,133.7,104.1,133.9,104.3z"/>
			<path d="M133,121.3C133,121.4,133,121.3,133,121.3z M129,148.8c0.1-0.1,0.1-0.1,0.4-0.1C129.4,148.8,129.2,148.8,129,148.8z"/>
			<path d="M73.7,94.8C73.8,94.8,73.7,94.9,73.7,94.8z"/>
			<path d="M136.7,83c-1,0.3-2.1,0.4-1.9,0.4c-1.9-2.1-3.1-3.5-4.8-4.9c0.5-2.4,1.6-3.1,3.5-0.5c0.5,0.7,1.5,1.3,2.5,2.4
				c0.6,0.9,0.7,1.4,1,1.8C136.9,82.6,136.8,82.8,136.7,83L136.7,83z"/>
		</g>
	</g>
</g>
</svg>
