<?xml version="1.0" encoding="utf-8"?>
<!-- Generator: Adobe Illustrator 27.2.0, SVG Export Plug-In . SVG Version: 6.00 Build 0)  -->
<svg version="1.1" id="Layer_1" xmlns="http://www.w3.org/2000/svg" xmlns:xlink="http://www.w3.org/1999/xlink" x="0px" y="0px"
	 viewBox="0 0 612 672" style="enable-background:new 0 0 612 672;" xml:space="preserve">
<path d="M158.2,121.4c0.9-1.2,0.9-2.1,0.4-3.2c-3.8-7-2.1-10.3,5.7-12.8c3.2-1,6.1-0.2,9.2-0.1c1.2,2.9-2,3.6-2.9,5.7
	c1,0.8,2,0.1,2.9-0.1c2.3-0.5,4.1,0.2,4.8,2.4c0.7,2.1-0.9,3.6-2.7,4.2c-2.5,0.8-3.2,2.3-3.2,4.8c0,2.9,0.8,4.8,4.2,5
	c2,0.1,4.7,0.7,4.8,3.3c0.1,2.6-2.3,3.7-4.5,4.3c-1.7,0.5-3.6,0.5-4.7,2.3c0.8,1.4,2,1,3,1.1c1.7,0,3.9-0.3,4.2,2
	c0.3,2.3-1,4.1-3.4,4.7c-3.4,0.9-6.4,2.5-9.2,4.5c-1.3,0.9-2.7,1.8-2.7,3.6c0.5,1.1,1.5,1.1,2.4,1.2c5.8,0.6,8.1,3.6,7.1,9.2
	c-0.2,1.1-1.2,1.6-2.1,2.3c-1.7,1.5-3.4,3-4.9,4.6c-0.8,1-1,2.6-2.8,2.2c-1.6-0.4-1.7-1.8-1.6-3.2c0-0.7,0.1-1.4-1-1.8
	c-1.9,0.8-2.7,2.7-2.6,4.6c0,1.8,2.1,1.7,3.4,2.1c2.8,0.8,5.6,1.2,8.6,0.8c3.2-0.4,6.3,0.2,9,2.3c2.2,1.7,2.5,3.3-0.1,4.9
	c-1.3,0.8-3,1.2-3.5,2.9c0.1,0.9,0.8,1.5,1.3,1.3c3.1-0.9,5.3-0.8,5.8,3.2c0.2,1.3,2,0.9,3.1,1.1c2.3,0.6,4.9,0.9,4.7,4.3
	c0,0.5,0.3,1,0.6,1.4c3.9,5,2.5,7-2.7,11.1c-5.2,4.2-11.2,5-17,6.9c-2.1,0.7-3.4,2.2-2.4,4.2c1.7,3.2,1.3,6-0.3,9
	c-0.4,0.7-0.4,1.5,0.5,2.5c2.5-1.5,5.1-2.9,7.7-4.5c5-3.1,10.2-5.1,16.2-3.2c5.3,1.6,10.8,1,16.2,1.4c12.8,1,20.7,8.7,26.1,19.5
	c2.6,5.1,6,10.2,4,16.5c-4.3,13.5-11.4,24.6-24.7,30.9c-1.8,0.9-3.9,1.6-5.1,4.1c9.4,2.6,15.6,9.4,22.4,15.4
	c6.4,5.6,8.4,13.3,9.2,21.3c0.8,8.2,0.3,16.4-0.1,24.6c-0.3,6.1-4.6,10.9-7.8,15.9c-4.8,7.7-9.7,15.3-18.4,19.3
	c-5.1,2.3-10.4,4-15.8,5.4c-1.9,0.5-4,0.5-5.9-0.3c-2.8-1.1-5.7-1.3-8.6-1.1c-4.6,0.3-8.9-2.2-13.7-1.4c-2,0.3-2.9-2-3.4-3.9
	c-0.4-1.8,0.3-2.9,1.9-3.9c3.7-2.2,6.7-5.6,11.3-6.3c1.4-0.2,2.5-0.5,3.8,0.1c4.1,1.9,8.7,1.8,12.7,4.2c2.6,1.6,5.1-0.6,6.4-2.6
	c4.7-7.5,9.6-14.9,13.2-23.1c2.9-6.5,1-12.8,0.4-19.2c-1.1-11.2-6.5-20.3-14.5-28c-3.3-3.2-6.6-5.6-11.9-4.7
	c-4.3,0.7-8.4-2-12.4-3.6c-1.6-0.7-2.4-3.2-0.2-4.1c5-2,8.5-5.9,12.5-9c5-3.8,10.9-6.4,14.8-11.8c5.8-7.9,9.9-15.9,7.1-26
	c-2.3-8.3-12.7-16-21.2-16.3c-6-0.2-11.5,0.2-16.2,4.6c-2.1,2-3.6,3.6-2.9,7.1c1.1,6,1.7,12,1.8,18.2c0.1,9,0.8,17.9,0.7,26.9
	c-0.3,20.5,1.7,40.9,3,61.4c0.4,5.4,0.2,10.8-0.6,16.2c-0.6,3.9-5,6.1-8.5,4.3c-2-1-3.9-1.7-6.1-1.2c-3.9,0.9-5.5-1.4-6.2-4.5
	c-1.3-6.4-1.9-12.8-1.8-19.3c0.1-5.9,0.4-11.9-0.9-17.7c-0.5-2.4,0.3-4.8,0.4-7.3c0.4-9.2-0.3-18.4-0.3-27.6c0-6-1.8-11.8-2.1-17.7
	c-0.6-9.4-0.6-18.8-1.5-28.3c-0.2-2.3-0.8-7,4.6-6.8c1.2,0,1.5-1.3,0.9-2.7c-2.2,0.1-4,1.9-6.4,1.1c-3.1-1.1-3.7-2.7-1.5-5.2
	c3.1-3.5,6.2-6.9,9.2-10.4c1.9-2.1,2.4-4.7,2.7-7.4c0.2-2.7-1.9-2.5-3.6-2.3c-7.7,0.8-14.7,3.2-20.4,8.7c-1.2,1.2-2.3,2-4.2,1.6
	c-3.4-0.8-4.7,1.5-5,4.1c-0.4,3.8,0,7.6-1.7,11.3c-0.8,1.8,0.5,3.3,2.2,3.6c3.6,0.7,2.6,3,2.2,5.1c-0.8,4.4-4.6,6.3-7.5,8.9
	c-0.4,0.3-0.8,0.6-1.2,0.9c0.5,1.5,2,1.3,2.9,2c2.3,1.8,4.1,3.8,2.8,7.1c-0.9,2.1-1,3.6,1.9,4.5c2.5,0.8,3,4.6,1.2,6.7
	c-0.5,0.6-1.1,1.1-1.7,1.7c-0.8,0.9-1.8,1.8-1,3.1c0.7,1.1,1.8,1.1,2.8,0.8c2.6-0.8,4.1,0.2,4.8,2.7c0.9,3,3.3,4.7,5.3,6.9
	c1.9,2.1,1.9,3.5,0,6.1c-4.2,5.8-10.9,4.9-16.4,7.2c-0.9,0.4-2.2-0.1-3,1.3c1.1,2.7,3.6,3,6,3.1c3.8,0.1,7.7,0,11.5-0.1
	c2.3-0.1,4.2,0.4,5.7,2.2c1.6,1.8,2,3.3-0.1,5c-1.3,1.1-2.3,2.5-3.3,4c-5.2,7.8-10.4,9-19.8,7.8c-9.2-1.2-18.7-2.5-27.9,0.1
	c-1.8,0.5-3.2,0.8-4.6-1c-1.5-2,0.1-2.8,1.2-3.9c0.3-0.3,0.7-0.6,0.7-1c0.4-6.7,6-7.3,10.5-8.2c4.5-0.8,5.5-4.2,7.1-7.2
	c0.9-1.7-0.9-2.3-2.4-2.8c-4.8-1.7-5-3.1-2.2-7.1c3.8-5.6,7.2-11.4,10.7-17.1c0.2-0.3,0.5-0.9,0.4-1.1c-2.8-3.3-0.9-8.1-4-11.4
	c-4.1-4.3-4-7.6-0.4-12.3c1.6-2.1,2.5-4.3,2.3-7c-0.2-1.5,0.3-2.9,0.9-4.2c1.3-2.7,2.8-5.1-0.2-8.1c-1.6-1.5-1.1-4.6,0.3-6.8
	c1.4-2.4,1.9-4.3-0.3-6.8c-1.9-2.1,0.8-7.3,4.1-7.6c4.5-0.4,9.1-2.3,13.9,0.2c3.7-5.7,9.6-9.3,12.9-15.1c1.8-3.1,5.3-4.2,8.4-5.7
	c2.5-1.2,4.4-2.4,1-5c-2.5-1.9-1-4,0.5-5.8c1-1.2,1.7-2.1,0.2-3.7c-5.5-5.4-4-9-1.7-13.9c1.3-2.8,3.5-5.1,2.5-8.8
	c-0.6-2.1,1.4-2.9,3.5-2.3c1.6,0.5,3.2,1.5,4.9,0.4c-2.8-4.1-5.5-5.4-10.3-4.6c-0.9-4.7,4.3-5.6,5.5-9c-0.1-0.3-0.2-0.8-0.5-1
	c-3.6-2.5-7.3-3.9-5.2-10.4C154.1,130.4,154.8,125.6,158.2,121.4z"/>
<path d="M338,305.8c1.8-3.3,3.4-6.3,5.2-9.3c2-3.2,5.5-2.2,7.9-1.7c3.5,0.8,6.8,2.9,10.1,4.7c6,3.5,5.8,10,7.3,15.6
	c4,15,7.4,30.1,11.9,44.9c3.4,11.4,7.5,22.6,10.1,34.2c1,4.5,0.6,9,0.7,13.5c0,3.2-0.1,6.3,0.8,9.4c1.4,4.9-5,9.9-10.6,8.7
	c-2.7-0.6-5.1-2.3-8.1,0c-1.4,1.1-2.1-1-2.4-2.6c-0.5-2.7,1.8-4.3,2.5-6.5c1.6-5.1-1.3-9.6-1.2-14.4c0.3-11.1-4.7-20.6-8-30.6
	c-3.2-9.8-4-20.3-7.3-29.9c-2.8-8.1-4.7-16.2-6.3-24.5c-0.1-0.4-0.6-0.8-1.1-1.5c-3.3,2.9-5.7,6.4-8.1,9.7c-5.5,7.5-11,15-15.8,22.8
	c-3.1,5.1-7.7,6.4-12.8,7.4c-1.3,0.2-2.9-0.3-3.6-1.3c-5.1-6.8-13-10.4-18.4-16.8c-3.2-3.9-6.8-7.4-10.3-11.3
	c-3.5,2.6-2.6,6.5-3.6,9.6c-4.6,14.5-9,29-15.4,42.9c-2.7,5.8-6,11.2-8.9,16.8c-1,2-2.5,3.4-5.1,3c-1.8-0.3-3.4,0.6-4.8,1.5
	c-1.2,0.7-2.4,1.5-3.6,0.2c-1-1.1-1-2.2-0.5-3.7c3.6-9.7,7-19.4,10.6-29.1c5.8-15.8,10.2-32,15.8-47.8c2.2-6.2,2.7-13,7-18.4
	c3.8-4.7,9.3-5.3,14.6-5.8c2.3-0.2,4.4,1.6,5.2,4.3c3.6,13,12.4,22.6,21.2,32.2c3.1,3.4,3,3,6.1-0.5
	C326.1,323.6,331.1,314.1,338,305.8z"/>
<path d="M460,449.5c-4.1-1.1-5.9-3.6-6.3-7.5c-0.9-9.6-2.3-19.3-0.1-28.8c2-8.6,2.6-17.4,3.9-26.1c0.6-4,1.2-8.5,0.4-13
	c-4,0.8-6.1,3.6-8.6,5.5c-11.3,8.6-29,10.1-40.3,2.1c-6.5-4.6-11-11.5-11.4-20.1c-0.2-3.4,1.7-6.1,2.9-9c1.6-3.8,2.9-6.9,0.5-11.3
	c-4.3-7.8-1.9-16.2,1.5-23.4c6.1-12.9,13.9-25,23.9-35.5c5.9-6.1,13-9.9,21.6-10.9c1-0.1,2.1-0.4,3-0.9c3.2-1.7,5.8-1.1,8.2,1.5
	c1,1.1,2.4,2,1.8,3.7c-0.6,1.6-1.9,3.1-3.8,3.2c-9.9,0.2-14.7,7.5-19.9,14.2c-2.1,2.7-3.5,6-5.7,8.6c-3,3.5-3.7,7.5-2.2,11.3
	c1.9,4.7-0.2,8.5-1.2,12.7c-2.6,10.5-6.7,20.8-5.6,31.9c0.5,5.2,0.9,10.7,5.9,14c1.4,1,2.8,1.3,4.4,0.4c6.6-3.5,12.8-7.5,16.9-14
	c1-1.6,1.8-2,3.5-1c1.5,0.8,2.8,2,5.2,2c0.6-4.5,0.4-9-0.5-13.5c-0.3-1.4-1.5-1.9-2.8-1.5c-1.8,0.6-3.7,0.2-5.5,0.6
	c-8,1.7-13.5-3.2-19.4-7.1c-1-0.7-1.8-1.7-1.3-3.1c0.4-1.1,1.6-1.2,2.6-1.6c4.3-1.7,8.4,0.5,12.7,0.2c5.5-0.4,10.5-2.5,15.9-3.1
	c6.2-0.7,12.2-2.1,18.4-3.2c0.9-0.2,1.9-0.1,2.8,0.1c2.5,0.6,4.7,2.2,5.1,4.5c0.4,2.5-2.1,4.1-4.2,4.6c-4.1,0.9-4.4,3.2-4.4,6.9
	c0,8.1-0.2,16.2-1.4,24.2c-0.9,5.9,1.1,11.6,0.4,17.4c-1,7.5-1.7,15-2.6,22.5c-1.2,10.2-3.2,20.4-2.3,30.8c0.3,3.3-0.3,6.3-2,9.2
	C467.4,451.2,465.1,452,460,449.5z"/>
<path d="M91.9,180.4c5,4.4,4,15.5-2.9,19.9c-3.5,2.2-7.1,4.3-11,5.6c-3.9,1.3-6.6,4.3-10.1,6.1c-1.2,0.6-3,1.9-2.1,3.8
	c0.8,1.8,2.5,0.9,3.9,0.7c9.7-1.4,19.3-3.1,27.8-8.6c0.2-0.1,0.5-0.3,0.7-0.3c2.7-0.5,5.5-2.9,8.2-0.4c1.5,1.4,0.2,6.9-2.5,9.4
	c-2.2,2-3.4,3.4-1.6,6.6c1.7,2.9-1.8,8.2-5.5,8.5c-2.8,0.3-3.5,1.1-3.3,3.9c0.1,3-1.8,5.1-4.9,5.8c-2.2,0.5-3.3,1.5-2.7,3.9
	c0.2,1,0.3,2.4-0.6,3c-5.8,4-2.3,10.3-3.9,15.4c-0.7,2.1,1.1,2.9,3.2,2.6c4.1-0.6,6.3,1.3,6,5.2c-0.5,6.1-1.8,12.2-1.5,18.2
	c0.4,7.2-2.4,13.4-4.3,19.9c-0.8,2.9-0.2,5.8-0.2,8.7c0,5.5-3.4,9-8.7,9.2c-2.4,0.1-3.3-1-3-3.1c0.6-3.6,0.6-7.3,1.8-10.9
	c1.6-4.7,1.4-9.9-0.3-14.5c-2.6-7.1-1.1-14.1-1.3-21.2c0-1.3,0.3-2.7-0.1-3.9c-2.4-7.6-1.8-15.4-1.7-23.2c0-2.8-0.4-4.3-3.9-5.1
	c-4.2-0.9-7.7-4-10.8-7.1c-0.7-0.7-1.4-2-0.9-2.9c1.4-2.1,0.7-5.5,1.6-6.5c2.9-3.3,2-8.9,6.9-10.6c0-0.4,0.2-0.7,0.1-0.9
	c-4.2-6.2-4.1-7,0.8-13.4c1.6-2.1,2.8-4.5,5.1-6.4c-2.9-2.7-1.9-5.5-0.7-8.4c5-12.1,8.8-24.6,11.8-37.3c0.6-2.5,0.6-4.9,0.1-7.2
	c-1-0.8-1.8-0.4-2.6-0.3c-1.5,0.1-2.9,0.3-3.9-1.2c-1-1.7-0.4-3.2,0.7-4.4c5.7-6.2,3.1-12.4-0.1-18.3c-3.4-6.3-3.9-7.9-1-10.9
	c2.6-2.8,4.5-6.7,9.3-6.4c0.9,0.1,1.7-0.5,2.7-0.7c1.9,3.5-1.8,4.9-2.7,7.2c5.4,5.8,6.5,12.8,5.5,20.2c-0.1,0.6-0.3,1.6,0,1.9
	c5.9,6.6,2,13.6,0.8,20.3c-1.3,7-3.8,13.7-5.6,20.6c-0.4,1.4-0.9,2.8-0.5,4.5C87.3,177.3,89.4,178.9,91.9,180.4 M70.8,234.1
	c-1.2,0.1-2.7-0.3-3.2,1.5c1.4,1.7,2.8,1.1,4.1,0.1C72.6,235.1,72.4,234.4,70.8,234.1z"/>
<path d="M111.3,393.1c-1.3,0.6-2.3,1.7-3.5,0.6c-0.9-0.8-0.8-1.8-0.6-2.9c1.9-8.4,1.9-17.1,2.6-25.7c0.5-6.8,1.1-13.7,1.6-20.5
	c0.1-1.8,0.6-2.7,2.6-3.4c2.6-0.9,4.9-2.5,7.4-3.8c0.9-0.5,2-1,3-0.2c1,0.8,0.7,1.9,0.3,2.9c-1.3,3.8-1.5,7.7-2.9,11.5
	c-1.4,3.8,0.6,7.6,2.3,11c1.1,2.1,1.8,4.1,0.9,6c-2,4.3-1.4,9.2-2.9,13.5C120.3,387.2,118.1,392.3,111.3,393.1z"/>
</svg>
