<?xml version="1.0" encoding="utf-8"?>
<!-- Generator: Adobe Illustrator 27.2.0, SVG Export Plug-In . SVG Version: 6.00 Build 0)  -->
<svg version="1.1" id="Layer_1" xmlns="http://www.w3.org/2000/svg" xmlns:xlink="http://www.w3.org/1999/xlink" x="0px" y="0px"
	 viewBox="0 0 612 512" style="enable-background:new 0 0 612 512;" xml:space="preserve">
<path d="M307.4,190.9c1.2-10,10.9-35.9,13.5-45.6c1.5-5.5,7.5-6.2,11.5-6.6c9.6-0.9,16,6.6,15.6,16.2c-0.6,14.9,0,29.6,1.8,44.4
	c1.5,12.1-2.1,24-3.4,36c-1.2,11-2.3,22-3.9,33c-2,13.7-0.6,27.6-1.4,41.3c-1.2,19.9-0.8,39.9-1.3,59.8
	c-0.5,16.8,2.1,33.9,15.3,46.8c3.3,3.2,2.7,8.2,4.9,12c1.3,2.4-5.7,6.9-9.8,6.8c-12.2-0.4-20.1-7.6-26.6-16.7
	c-4-5.6-6.6-11.9-8.4-18.6c-1.1-4.2,2.1-8.7-1.1-13.2c-0.9-4.9-1.8-9.2,0.6-13.4c0.7-1.3,0.2-2.2-0.7-3.2c-1.1-1.1-0.8-2.7-0.4-3.8
	c3.5-6.1,1.9-6.6,1.2-10.2c-0.8-4.5-1.7-9.2-1.5-13.7c1.3-22.9,0.9-45.9,4.8-68.6c1.9-11.1,3.4-22.2,5.1-33.3
	c1.1-7-10.5-27.4-19.7-19.7c-8.8,7.5-10.8-1.8-12.3-2.5c-4.2-2-6.5,1.4-7.4,5.6c-2.4,12.1-4.7,24.1-5.2,36.4
	c-0.5,13.4-11.8,24.3-25,23.3c-3.8-0.3-7-1.2-6.7-7c0.9-18.7,4.3-36.9,9-55c5.1-19.7,12.2-38.8,16.2-58.8
	c1.3-6.8,6.7-13.9,13.2-10.8c6.4,3.1,12.1,9.4,11.6,15.9c2.3,4.5,0.2,12.2,2.5,16.7c1.5,4.1,3.4,6.3,4.1,13.8"/>
<path d="M234.6,86.9c12.1,0.9,18.7,7.8,23.4,17.9c6.5,14,0.7,25-7.1,35.9c-2.7,3.8-5.6,7.3-8.8,10.5c1.3,3,4.3,2.8,6.2,4.2
	c7.8,5.5,13.7,14.9,8.6,26.4c-5.3,12-10.4,24.2-19,34.2c-5.1,6-11.5,10.9-19.6,12.9c-5.7,1.4-10.5-1.4-15.8-3
	c-0.1,5.9,1.8,10.9,4.2,15.8c2.6,5.2-1.3,11-7.1,10.5c-6.7-0.6-12.4-3.4-16.7-8.6c-6.2-7.6-8.6-16.1-9-26.1
	c-0.5-13.1-0.9-26.2-2-39.3c-0.8-9.6-1.2-19.3,1-28.8c0.8-3.7-2.3-23.6-2.9-27.1c-1.2-6.9,13.2-5,5.4-3.4c0.2-4.1,3.4,0.3,5.7,0.2
	c5-7.2,10.6-14.3,18.4-18.9C210.4,93.9,221.3,87.8,234.6,86.9 M213.9,206.6c4.7-6,7.5-13,11.2-19.6c3.4-6.1,3.3-11.9,3.5-18.1
	c0.1-3-1.7-3.6-4.3-3c-4.8,1-22.2,7.6-26.9,5.9c-1.8-0.7,1.5-4.8-0.3-4.3c-2.2,0.6,1.4-2.3,0.4-4.8c-1.1-2.5-2.3-1.4-1.1-2.5
	c0.3-0.3,0.7,0.2,1.1-0.5c-3.1-1.6-0.5-3.7,0,0c1,7.5-0.3,15,1.1,22.3c1.6,8.5,2.8,16.9,2.5,25.6c-0.1,2.8,0,5.6,1.8,7.9
	C208.2,214.6,209.9,209.8,213.9,206.6 M223.4,131.2c1.1-2.4,2.3-4.8,3.4-7.2c2.5-5.5,3.4-11.1,1.1-16.8c-1.8-4.6-4-5.4-8-2.9
	c-4.5,2.8-8.6,6.1-12.4,9.9c-4.1,4-7.3,7.8-12.9,11.4c-2.1,2.4-2.3-0.5-1.1,5.6c1.1,2.4,1.4,5.1,1.6,7.7c0.4,4.5,1.3,8.9,2.2,14.2
	c6.4-5,14.7-4,19.6-10.5C219.3,139.2,220.4,135.1,223.4,131.2z"/>
<path d="M400.8,170.6c8.7,0.1,28-3.9,24.7,3.4c-5.3,12-25.1,19.5-26.3,32.4c-0.3,3.8-6,30.6-3.5,35.4c11.6-11.9,27.9-21.3,41.5-24.8
	c5.9-1.5,11.5,6.8,11,13.9c-2.2,33.3-10.2,65.6-15.8,98.3c-4.2,24.9-10.4,49.8-10.2,75.3c0.1,16.7,2.5,33.4,3.9,50.1
	c0.1,1.2,0.6,2.5,1.2,3.6c3.3,6,1.8,14.5-3.4,18.6c-2.7,2.2-14,0.6-17.7-2.8c-7-6.2-10.9-14.4-11.4-23.5
	c-0.6-12.7-2.9-25.3-3.8-37.9c-0.6-8.7-0.6-17.4,1.6-25.8c6.1-22.9,8.3-46.4,11.5-69.9c2-14.6,5.9-29,8.5-43.6
	c1.3-6.8,1.7-13.8,2.3-20.8c0.1-1.2,0.3-2.6-1.9-3.3c-2,7.6-4.9,15.1-5.9,22.8c-1.2,9.1-11.2,17-20.5,16c-12.1-1.3-19.2-8.6-25-18.2
	c-1.2-2.1-2.1-4.3-1.3-6.7c6.4-19.5-3.1-50.2,6.7-67.7c1-2,0.5,2.2,0,0c-2-8.1,12.9-16.3,21-19.4
	C392.5,174.8,395.9,171.7,400.8,170.6z"/>
</svg>
